<svg width="274" height="16" viewBox="0 0 274 16" fill="none" xmlns="http://www.w3.org/2000/svg">
<path d="M10.044 4.25183H8.27053C8.20232 3.87288 8.07537 3.53941 7.88969 3.25141C7.704 2.9634 7.47663 2.71898 7.20758 2.51814C6.93853 2.3173 6.63726 2.16572 6.30379 2.0634C5.9741 1.96108 5.62357 1.90993 5.2522 1.90993C4.58146 1.90993 3.98083 2.07856 3.4503 2.41582C2.92356 2.75309 2.50672 3.24762 2.19977 3.89941C1.89661 4.5512 1.74503 5.34699 1.74503 6.28679C1.74503 7.23416 1.89661 8.03374 2.19977 8.68554C2.50672 9.33733 2.92545 9.82996 3.45598 10.1634C3.98651 10.4969 4.58336 10.6637 5.24652 10.6637C5.6141 10.6637 5.96273 10.6144 6.29242 10.5159C6.62589 10.4135 6.92716 10.2639 7.19621 10.0668C7.46526 9.86975 7.69263 9.62912 7.87832 9.34491C8.06779 9.05691 8.19853 8.72722 8.27053 8.35585L10.044 8.36153C9.94928 8.93375 9.76549 9.46049 9.49264 9.94175C9.22359 10.4192 8.87685 10.8323 8.45243 11.1809C8.03179 11.5258 7.55053 11.7929 7.00863 11.9824C6.46673 12.1719 5.87557 12.2666 5.23515 12.2666C4.22714 12.2666 3.32903 12.0279 2.54082 11.5504C1.75261 11.0691 1.13113 10.3813 0.676391 9.48701C0.225441 8.59269 -3.32735e-05 7.52595 -3.32735e-05 6.28679C-3.32735e-05 5.04383 0.227336 3.97709 0.682075 3.08656C1.13681 2.19224 1.75829 1.50634 2.5465 1.02887C3.33472 0.547603 4.23093 0.306971 5.23515 0.306971C5.85284 0.306971 6.42884 0.396024 6.96316 0.57413C7.50126 0.748446 7.98442 1.00613 8.41264 1.34719C8.84085 1.68445 9.19517 2.09751 9.47559 2.58635C9.75601 3.0714 9.94549 3.62656 10.044 4.25183ZM15.687 12.2837C14.8685 12.2837 14.1542 12.0961 13.5441 11.7209C12.934 11.3458 12.4603 10.8209 12.123 10.1464C11.7858 9.47186 11.6171 8.68364 11.6171 7.78174C11.6171 6.87605 11.7858 6.08405 12.123 5.40573C12.4603 4.72741 12.934 4.20067 13.5441 3.82551C14.1542 3.45035 14.8685 3.26277 15.687 3.26277C16.5056 3.26277 17.2199 3.45035 17.83 3.82551C18.4401 4.20067 18.9138 4.72741 19.2511 5.40573C19.5883 6.08405 19.757 6.87605 19.757 7.78174C19.757 8.68364 19.5883 9.47186 19.2511 10.1464C18.9138 10.8209 18.4401 11.3458 17.83 11.7209C17.2199 12.0961 16.5056 12.2837 15.687 12.2837ZM15.6927 10.8569C16.2233 10.8569 16.6628 10.7167 17.0115 10.4363C17.3601 10.1559 17.6178 9.78259 17.7845 9.31649C17.955 8.85038 18.0403 8.3369 18.0403 7.77606C18.0403 7.219 17.955 6.70742 17.7845 6.24131C17.6178 5.77142 17.3601 5.39436 17.0115 5.11015C16.6628 4.82594 16.2233 4.68383 15.6927 4.68383C15.1584 4.68383 14.715 4.82594 14.3626 5.11015C14.014 5.39436 13.7544 5.77142 13.5839 6.24131C13.4171 6.70742 13.3338 7.219 13.3338 7.77606C13.3338 8.3369 13.4171 8.85038 13.5839 9.31649C13.7544 9.78259 14.014 10.1559 14.3626 10.4363C14.715 10.7167 15.1584 10.8569 15.6927 10.8569ZM21.6541 15.3816V3.37646H23.3139V4.79183H23.456C23.5545 4.60994 23.6966 4.39962 23.8823 4.16088C24.068 3.92215 24.3257 3.71372 24.6553 3.53562C24.985 3.35372 25.4208 3.26277 25.9627 3.26277C26.6676 3.26277 27.2966 3.44088 27.8499 3.79709C28.4031 4.1533 28.837 4.66678 29.1516 5.33752C29.4699 6.00826 29.6291 6.81542 29.6291 7.75901C29.6291 8.70259 29.4718 9.51164 29.1573 10.1862C28.8427 10.8569 28.4107 11.3742 27.8613 11.738C27.3118 12.098 26.6846 12.278 25.9798 12.278C25.4492 12.278 25.0153 12.1889 24.6781 12.0108C24.3446 11.8327 24.0831 11.6243 23.8937 11.3855C23.7042 11.1468 23.5583 10.9346 23.456 10.7489H23.3537V15.3816H21.6541ZM23.3195 7.74195C23.3195 8.35585 23.4086 8.89396 23.5867 9.35628C23.7648 9.81859 24.0225 10.1805 24.3598 10.442C24.697 10.6997 25.1101 10.8285 25.5989 10.8285C26.1067 10.8285 26.5311 10.694 26.8722 10.4249C27.2132 10.1521 27.4709 9.78259 27.6453 9.31649C27.8234 8.85038 27.9124 8.32553 27.9124 7.74195C27.9124 7.16595 27.8253 6.64868 27.6509 6.19016C27.4804 5.73163 27.2227 5.36973 26.8779 5.10447C26.5368 4.8392 26.1105 4.70657 25.5989 4.70657C25.1063 4.70657 24.6894 4.83352 24.3484 5.08741C24.0111 5.34131 23.7553 5.69563 23.581 6.15037C23.4067 6.6051 23.3195 7.13563 23.3195 7.74195ZM32.3106 15.3816C32.0567 15.3816 31.8255 15.3607 31.6171 15.319C31.4087 15.2811 31.2533 15.2395 31.151 15.194L31.5603 13.8013C31.871 13.8847 32.1476 13.9207 32.3902 13.9093C32.6327 13.898 32.8468 13.807 33.0325 13.6365C33.222 13.466 33.3887 13.1875 33.5327 12.8009L33.743 12.2211L30.5485 3.37646H32.3674L34.5786 10.1521H34.6695L36.8807 3.37646H38.7054L35.1072 13.2727C34.9405 13.7275 34.7283 14.1121 34.4706 14.4266C34.2129 14.7449 33.906 14.9837 33.5498 15.1428C33.1935 15.302 32.7805 15.3816 32.3106 15.3816ZM40.3026 12.1074V3.37646H41.9454V4.76341H42.0363C42.1955 4.29352 42.4759 3.92404 42.8776 3.65499C43.2831 3.38214 43.7416 3.24572 44.2532 3.24572C44.3593 3.24572 44.4843 3.24951 44.6283 3.25709C44.7761 3.26467 44.8917 3.27414 44.9751 3.28551V4.9112C44.9069 4.89226 44.7856 4.87141 44.6113 4.84868C44.437 4.82215 44.2626 4.80889 44.0883 4.80889C43.6866 4.80889 43.3285 4.89415 43.014 5.06468C42.7033 5.23141 42.457 5.46447 42.2751 5.76384C42.0932 6.05942 42.0022 6.39668 42.0022 6.77563V12.1074H40.3026ZM46.4459 12.1074V3.37646H48.1455V12.1074H46.4459ZM47.3042 2.02929C47.0086 2.02929 46.7547 1.93077 46.5425 1.73371C46.3341 1.53287 46.2299 1.29413 46.2299 1.0175C46.2299 0.737078 46.3341 0.49834 46.5425 0.301286C46.7547 0.100443 47.0086 2.19438e-05 47.3042 2.19438e-05C47.5998 2.19438e-05 47.8518 0.100443 48.0602 0.301286C48.2724 0.49834 48.3785 0.737078 48.3785 1.0175C48.3785 1.29413 48.2724 1.53287 48.0602 1.73371C47.8518 1.93077 47.5998 2.02929 47.3042 2.02929ZM54.0926 15.5635C53.3991 15.5635 52.8023 15.4725 52.302 15.2906C51.8056 15.1087 51.4002 14.8681 51.0856 14.5687C50.7711 14.2694 50.5361 13.9416 50.3808 13.5853L51.8416 12.9828C51.9439 13.1496 52.0804 13.3258 52.2509 13.5115C52.4252 13.7009 52.6602 13.862 52.9557 13.9946C53.2551 14.1272 53.6397 14.1936 54.1096 14.1936C54.7538 14.1936 55.2863 14.0363 55.7069 13.7218C56.1275 13.411 56.3379 12.9146 56.3379 12.2325V10.5159H56.2299C56.1275 10.7015 55.9798 10.9081 55.7865 11.1354C55.597 11.3628 55.3355 11.5599 55.0021 11.7266C54.6686 11.8933 54.2347 11.9767 53.7004 11.9767C53.0107 11.9767 52.3892 11.8157 51.8359 11.4935C51.2865 11.1677 50.8507 10.6883 50.5286 10.0554C50.2102 9.4188 50.0511 8.63627 50.0511 7.70785C50.0511 6.77942 50.2084 5.98363 50.5229 5.32047C50.8412 4.65731 51.277 4.14951 51.8303 3.79709C52.3835 3.44088 53.0107 3.26277 53.7117 3.26277C54.2536 3.26277 54.6913 3.35372 55.0248 3.53562C55.3583 3.71372 55.6179 3.92215 55.8035 4.16088C55.993 4.39962 56.1389 4.60994 56.2412 4.79183H56.3663V3.37646H58.0318V12.3007C58.0318 13.051 57.8574 13.6668 57.5088 14.1481C57.1602 14.6294 56.6884 14.9856 56.0934 15.2167C55.5023 15.4479 54.8353 15.5635 54.0926 15.5635ZM54.0755 10.567C54.5644 10.567 54.9774 10.4533 55.3147 10.226C55.6557 9.9948 55.9134 9.66512 56.0878 9.23691C56.2659 8.8049 56.3549 8.28764 56.3549 7.68511C56.3549 7.09774 56.2678 6.58047 56.0934 6.13331C55.9191 5.68615 55.6633 5.33752 55.3261 5.08741C54.9888 4.83352 54.572 4.70657 54.0755 4.70657C53.5639 4.70657 53.1376 4.8392 52.7966 5.10447C52.4555 5.36594 52.1978 5.72215 52.0235 6.1731C51.853 6.62405 51.7677 7.12805 51.7677 7.68511C51.7677 8.25732 51.8549 8.75943 52.0292 9.19143C52.2035 9.62343 52.4612 9.9607 52.8023 10.2032C53.1471 10.4458 53.5715 10.567 54.0755 10.567ZM62.0107 6.92342V12.1074H60.3111V0.466129H61.988V4.79752H62.096C62.3006 4.32762 62.6133 3.95436 63.0339 3.67772C63.4545 3.40109 64.004 3.26277 64.6823 3.26277C65.2811 3.26277 65.804 3.38593 66.2512 3.63225C66.7021 3.87857 67.0507 4.24615 67.2971 4.73499C67.5472 5.22005 67.6722 5.82636 67.6722 6.55395V12.1074H65.9726V6.75858C65.9726 6.11816 65.8078 5.62173 65.4781 5.26931C65.1484 4.9131 64.6899 4.73499 64.1025 4.73499C63.7008 4.73499 63.3408 4.82025 63.0225 4.99078C62.708 5.16131 62.4598 5.41142 62.2779 5.7411C62.0998 6.067 62.0107 6.4611 62.0107 6.92342ZM74.0158 3.37646V4.74068H69.2468V3.37646H74.0158ZM70.5257 1.28466H72.2253V9.54386C72.2253 9.87354 72.2746 10.1218 72.3731 10.2885C72.4716 10.4514 72.5986 10.5632 72.7539 10.6239C72.9131 10.6807 73.0855 10.7091 73.2712 10.7091C73.4076 10.7091 73.527 10.6997 73.6293 10.6807C73.7316 10.6618 73.8112 10.6466 73.868 10.6352L74.175 12.0392C74.0765 12.0771 73.9363 12.115 73.7544 12.1529C73.5725 12.1946 73.3451 12.2173 73.0722 12.2211C72.6251 12.2287 72.2082 12.1491 71.8217 11.9824C71.4352 11.8157 71.1226 11.558 70.8838 11.2093C70.6451 10.8607 70.5257 10.423 70.5257 9.89628V1.28466ZM83.0481 3.89372C83.4801 3.89372 83.8742 3.95625 84.2304 4.0813C84.5904 4.20636 84.9144 4.36931 85.2024 4.57015C85.4942 4.7672 85.75 4.97183 85.9698 5.18405C86.091 5.29773 86.2009 5.40952 86.2995 5.51942C86.398 5.62931 86.4927 5.73921 86.5837 5.8491C86.667 5.73921 86.7523 5.6331 86.8395 5.53078C86.9304 5.42468 87.0441 5.3091 87.1805 5.18405C87.5102 4.86194 87.9195 4.56636 88.4083 4.2973C88.901 4.02825 89.4713 3.89372 90.1193 3.89372C90.7256 3.89372 91.277 4.04151 91.7734 4.33709C92.2736 4.62889 92.6696 5.0211 92.9614 5.51373C93.257 6.00637 93.4048 6.55205 93.4048 7.15079C93.4048 7.60553 93.3195 8.03185 93.149 8.42974C92.9784 8.82385 92.7435 9.17059 92.4441 9.46996C92.1448 9.76554 91.7961 9.99859 91.3982 10.1691C91.0003 10.3359 90.574 10.4192 90.1193 10.4192C89.6873 10.4192 89.2894 10.3586 88.9256 10.2373C88.5656 10.1123 88.2397 9.95312 87.9479 9.75986C87.6599 9.56659 87.406 9.36764 87.1862 9.16301C87.0612 9.03796 86.9494 8.92048 86.8508 8.81059C86.7561 8.6969 86.667 8.58511 86.5837 8.47522C86.4889 8.58511 86.3923 8.6969 86.2938 8.81059C86.1953 8.92427 86.0854 9.04175 85.9641 9.16301C85.7481 9.36764 85.4942 9.56659 85.2024 9.75986C84.9144 9.94933 84.5904 10.1066 84.2304 10.2316C83.8742 10.3567 83.4801 10.4192 83.0481 10.4192C82.4342 10.4192 81.879 10.2733 81.3826 9.98154C80.8862 9.68975 80.4902 9.29754 80.1946 8.8049C79.899 8.30848 79.7512 7.75711 79.7512 7.15079C79.7512 6.69984 79.8346 6.27921 80.0013 5.88889C80.1719 5.49478 80.4068 5.14805 80.7062 4.84868C81.0093 4.54931 81.3599 4.31625 81.7578 4.14951C82.1594 3.97899 82.5896 3.89372 83.0481 3.89372ZM81.3201 7.15079C81.3201 7.46532 81.3978 7.75143 81.5531 8.00911C81.7085 8.2668 81.9169 8.47143 82.1784 8.62301C82.4399 8.77459 82.7298 8.85038 83.0481 8.85038C83.4043 8.85038 83.7321 8.7708 84.0315 8.61164C84.3308 8.45248 84.6094 8.25164 84.867 8.00911C85.03 7.85374 85.1702 7.70406 85.2877 7.56006C85.4051 7.41606 85.5075 7.27963 85.5946 7.15079C85.5037 7.02953 85.3957 6.895 85.2706 6.74721C85.1494 6.59563 85.0148 6.45163 84.867 6.31521C84.6245 6.07647 84.3498 5.87563 84.0428 5.71268C83.7359 5.54594 83.4043 5.46257 83.0481 5.46257C82.7298 5.46257 82.4399 5.54026 82.1784 5.69563C81.9169 5.84721 81.7085 6.05184 81.5531 6.30952C81.3978 6.56342 81.3201 6.84384 81.3201 7.15079ZM91.8245 7.15079C91.8245 6.84384 91.7469 6.56342 91.5915 6.30952C91.4399 6.05184 91.2353 5.84721 90.9776 5.69563C90.7199 5.54026 90.4338 5.46257 90.1193 5.46257C89.8767 5.46257 89.6456 5.50047 89.4258 5.57626C89.206 5.65205 88.9995 5.75436 88.8062 5.88321C88.6167 6.01205 88.4424 6.15605 88.2833 6.31521C88.1127 6.47437 87.9631 6.63732 87.8342 6.80405C87.7054 6.967 87.6125 7.08258 87.5557 7.15079C87.6504 7.28342 87.7565 7.42174 87.874 7.56574C87.9915 7.70595 88.1279 7.85374 88.2833 8.00911C88.5372 8.25164 88.8138 8.45248 89.1132 8.61164C89.4163 8.7708 89.7517 8.85038 90.1193 8.85038C90.4338 8.85038 90.7199 8.77459 90.9776 8.62301C91.2353 8.47143 91.4399 8.2668 91.5915 8.00911C91.7469 7.75143 91.8245 7.46532 91.8245 7.15079ZM106.032 3.52425C105.972 2.98614 105.722 2.5693 105.282 2.27372C104.842 1.97435 104.289 1.82466 103.622 1.82466C103.145 1.82466 102.732 1.90045 102.383 2.05203C102.034 2.19982 101.763 2.40445 101.57 2.66593C101.381 2.92361 101.286 3.2173 101.286 3.54699C101.286 3.82362 101.35 4.06236 101.479 4.2632C101.612 4.46404 101.784 4.63267 101.996 4.7691C102.212 4.90173 102.444 5.01352 102.69 5.10447C102.936 5.19162 103.173 5.26363 103.4 5.32047L104.537 5.61605C104.909 5.707 105.29 5.83015 105.68 5.98552C106.07 6.14089 106.432 6.34552 106.766 6.59942C107.099 6.85332 107.368 7.16784 107.573 7.543C107.781 7.91816 107.885 8.36722 107.885 8.89017C107.885 9.54954 107.715 10.135 107.374 10.6466C107.037 11.1582 106.546 11.5618 105.902 11.8573C105.261 12.1529 104.486 12.3007 103.577 12.3007C102.705 12.3007 101.951 12.1624 101.314 11.8858C100.678 11.6091 100.179 11.2169 99.8194 10.7091C99.4594 10.1975 99.2605 9.59122 99.2226 8.89017H100.985C101.019 9.3108 101.155 9.66133 101.394 9.94175C101.636 10.2184 101.945 10.4249 102.32 10.5613C102.699 10.694 103.114 10.7603 103.565 10.7603C104.062 10.7603 104.503 10.6826 104.89 10.5272C105.28 10.3681 105.587 10.1483 105.811 9.86786C106.034 9.58365 106.146 9.25206 106.146 8.87312C106.146 8.52827 106.047 8.24595 105.85 8.02616C105.657 7.80637 105.394 7.62448 105.06 7.48048C104.731 7.33648 104.357 7.20953 103.94 7.09963L102.565 6.72447C101.633 6.47058 100.894 6.09731 100.348 5.60468C99.8062 5.11205 99.5352 4.46025 99.5352 3.6493C99.5352 2.97856 99.7171 2.39309 100.081 1.89287C100.445 1.39266 100.937 1.00424 101.559 0.727604C102.18 0.447182 102.881 0.306971 103.662 0.306971C104.45 0.306971 105.146 0.445287 105.748 0.72192C106.354 0.998553 106.832 1.3794 107.181 1.86445C107.529 2.34572 107.711 2.89898 107.726 3.52425H106.032ZM113.526 12.2837C112.707 12.2837 111.993 12.0961 111.383 11.7209C110.772 11.3458 110.299 10.8209 109.962 10.1464C109.624 9.47186 109.456 8.68364 109.456 7.78174C109.456 6.87605 109.624 6.08405 109.962 5.40573C110.299 4.72741 110.772 4.20067 111.383 3.82551C111.993 3.45035 112.707 3.26277 113.526 3.26277C114.344 3.26277 115.058 3.45035 115.668 3.82551C116.279 4.20067 116.752 4.72741 117.09 5.40573C117.427 6.08405 117.595 6.87605 117.595 7.78174C117.595 8.68364 117.427 9.47186 117.09 10.1464C116.752 10.8209 116.279 11.3458 115.668 11.7209C115.058 12.0961 114.344 12.2837 113.526 12.2837ZM113.531 10.8569C114.062 10.8569 114.501 10.7167 114.85 10.4363C115.199 10.1559 115.456 9.78259 115.623 9.31649C115.794 8.85038 115.879 8.3369 115.879 7.77606C115.879 7.219 115.794 6.70742 115.623 6.24131C115.456 5.77142 115.199 5.39436 114.85 5.11015C114.501 4.82594 114.062 4.68383 113.531 4.68383C112.997 4.68383 112.554 4.82594 112.201 5.11015C111.852 5.39436 111.593 5.77142 111.422 6.24131C111.256 6.70742 111.172 7.219 111.172 7.77606C111.172 8.3369 111.256 8.85038 111.422 9.31649C111.593 9.78259 111.852 10.1559 112.201 10.4363C112.554 10.7167 112.997 10.8569 113.531 10.8569ZM125.023 8.48659V3.37646H126.729V12.1074H125.057V10.5954H124.966C124.766 11.0615 124.444 11.45 124 11.7607C123.561 12.0677 123.013 12.2211 122.357 12.2211C121.797 12.2211 121.3 12.098 120.868 11.8517C120.44 11.6015 120.103 11.2321 119.856 10.7432C119.614 10.2544 119.493 9.64996 119.493 8.92996V3.37646H121.192V8.72533C121.192 9.32028 121.357 9.79396 121.687 10.1464C122.016 10.4988 122.445 10.675 122.971 10.675C123.29 10.675 123.606 10.5954 123.921 10.4363C124.239 10.2771 124.502 10.0365 124.711 9.71438C124.923 9.39228 125.027 8.98301 125.023 8.48659ZM130.712 0.466129V12.1074H129.012V0.466129H130.712ZM137.371 12.1074V0.466129H144.59V1.97814H139.127V5.5251H144.073V7.03142H139.127V12.1074H137.371ZM149.65 12.2837C148.832 12.2837 148.117 12.0961 147.507 11.7209C146.897 11.3458 146.424 10.8209 146.086 10.1464C145.749 9.47186 145.58 8.68364 145.58 7.78174C145.58 6.87605 145.749 6.08405 146.086 5.40573C146.424 4.72741 146.897 4.20067 147.507 3.82551C148.117 3.45035 148.832 3.26277 149.65 3.26277C150.469 3.26277 151.183 3.45035 151.793 3.82551C152.403 4.20067 152.877 4.72741 153.214 5.40573C153.552 6.08405 153.72 6.87605 153.72 7.78174C153.72 8.68364 153.552 9.47186 153.214 10.1464C152.877 10.8209 152.403 11.3458 151.793 11.7209C151.183 12.0961 150.469 12.2837 149.65 12.2837ZM149.656 10.8569C150.186 10.8569 150.626 10.7167 150.975 10.4363C151.323 10.1559 151.581 9.78259 151.748 9.31649C151.918 8.85038 152.004 8.3369 152.004 7.77606C152.004 7.219 151.918 6.70742 151.748 6.24131C151.581 5.77142 151.323 5.39436 150.975 5.11015C150.626 4.82594 150.186 4.68383 149.656 4.68383C149.122 4.68383 148.678 4.82594 148.326 5.11015C147.977 5.39436 147.718 5.77142 147.547 6.24131C147.38 6.70742 147.297 7.219 147.297 7.77606C147.297 8.3369 147.38 8.85038 147.547 9.31649C147.718 9.78259 147.977 10.1559 148.326 10.4363C148.678 10.7167 149.122 10.8569 149.656 10.8569ZM159.295 12.2837C158.45 12.2837 157.722 12.0923 157.112 11.7095C156.506 11.323 156.04 10.7906 155.714 10.1123C155.388 9.43396 155.225 8.65711 155.225 7.78174C155.225 6.895 155.392 6.11247 155.725 5.43415C156.059 4.75204 156.529 4.21962 157.135 3.83688C157.741 3.45414 158.456 3.26277 159.278 3.26277C159.941 3.26277 160.532 3.38593 161.051 3.63225C161.571 3.87478 161.989 4.21583 162.308 4.65541C162.63 5.09499 162.821 5.60847 162.882 6.19584H161.228C161.137 5.78657 160.928 5.43415 160.602 5.13857C160.28 4.84299 159.848 4.6952 159.306 4.6952C158.833 4.6952 158.418 4.82025 158.062 5.07036C157.709 5.31668 157.434 5.6691 157.237 6.12763C157.04 6.58237 156.942 7.12048 156.942 7.74195C156.942 8.37859 157.038 8.92806 157.232 9.39038C157.425 9.8527 157.698 10.2108 158.05 10.4647C158.406 10.7186 158.825 10.8455 159.306 10.8455C159.628 10.8455 159.92 10.7868 160.182 10.6693C160.447 10.5481 160.669 10.3756 160.847 10.1521C161.029 9.92849 161.156 9.65943 161.228 9.34491H162.882C162.821 9.90954 162.637 10.4135 162.33 10.8569C162.023 11.3003 161.612 11.6489 161.097 11.9028C160.585 12.1567 159.985 12.2837 159.295 12.2837ZM170.23 8.48659V3.37646H171.935V12.1074H170.264V10.5954H170.173C169.972 11.0615 169.65 11.45 169.207 11.7607C168.767 12.0677 168.22 12.2211 167.564 12.2211C167.003 12.2211 166.507 12.098 166.075 11.8517C165.647 11.6015 165.309 11.2321 165.063 10.7432C164.821 10.2544 164.699 9.64996 164.699 8.92996V3.37646H166.399V8.72533C166.399 9.32028 166.564 9.79396 166.893 10.1464C167.223 10.4988 167.651 10.675 168.178 10.675C168.496 10.675 168.813 10.5954 169.127 10.4363C169.446 10.2771 169.709 10.0365 169.917 9.71438C170.13 9.39228 170.234 8.98301 170.23 8.48659ZM180.762 5.50805L179.221 5.78089C179.157 5.58384 179.054 5.39626 178.914 5.21815C178.778 5.04004 178.592 4.89415 178.357 4.78046C178.122 4.66678 177.828 4.60994 177.476 4.60994C176.995 4.60994 176.593 4.71794 176.271 4.93394C175.949 5.14615 175.788 5.42089 175.788 5.75815C175.788 6.04994 175.896 6.28489 176.112 6.463C176.328 6.64111 176.676 6.787 177.158 6.90069L178.545 7.219C179.348 7.40469 179.947 7.69079 180.341 8.07732C180.735 8.46385 180.932 8.96596 180.932 9.58365C180.932 10.1066 180.78 10.5727 180.477 10.982C180.178 11.3874 179.759 11.7058 179.221 11.9369C178.687 12.1681 178.067 12.2837 177.362 12.2837C176.385 12.2837 175.587 12.0752 174.969 11.6584C174.352 11.2378 173.973 10.6409 173.832 9.86786L175.475 9.61775C175.578 10.046 175.788 10.37 176.106 10.5898C176.424 10.8058 176.839 10.9138 177.351 10.9138C177.908 10.9138 178.353 10.7982 178.687 10.567C179.02 10.3321 179.187 10.046 179.187 9.7087C179.187 9.43585 179.085 9.20659 178.88 9.02091C178.679 8.83522 178.37 8.69501 177.954 8.60027L176.476 8.27627C175.661 8.09059 175.058 7.79501 174.668 7.38953C174.282 6.98405 174.088 6.47058 174.088 5.8491C174.088 5.33373 174.232 4.88278 174.52 4.49625C174.808 4.10973 175.206 3.80846 175.714 3.59246C176.222 3.37267 176.803 3.26277 177.459 3.26277C178.403 3.26277 179.145 3.46741 179.687 3.87667C180.229 4.28215 180.587 4.82594 180.762 5.50805ZM193.523 3.52425C193.462 2.98614 193.212 2.5693 192.772 2.27372C192.333 1.97435 191.779 1.82466 191.113 1.82466C190.635 1.82466 190.222 1.90045 189.873 2.05203C189.525 2.19982 189.254 2.40445 189.061 2.66593C188.871 2.92361 188.776 3.2173 188.776 3.54699C188.776 3.82362 188.841 4.06236 188.97 4.2632C189.102 4.46404 189.275 4.63267 189.487 4.7691C189.703 4.90173 189.934 5.01352 190.18 5.10447C190.427 5.19162 190.663 5.26363 190.891 5.32047L192.028 5.61605C192.399 5.707 192.78 5.83015 193.17 5.98552C193.561 6.14089 193.922 6.34552 194.256 6.59942C194.589 6.85332 194.858 7.16784 195.063 7.543C195.271 7.91816 195.376 8.36722 195.376 8.89017C195.376 9.54954 195.205 10.135 194.864 10.6466C194.527 11.1582 194.036 11.5618 193.392 11.8573C192.751 12.1529 191.977 12.3007 191.067 12.3007C190.195 12.3007 189.441 12.1624 188.805 11.8858C188.168 11.6091 187.67 11.2169 187.31 10.7091C186.95 10.1975 186.751 9.59122 186.713 8.89017H188.475C188.509 9.3108 188.646 9.66133 188.884 9.94175C189.127 10.2184 189.436 10.4249 189.811 10.5613C190.19 10.694 190.605 10.7603 191.056 10.7603C191.552 10.7603 191.994 10.6826 192.38 10.5272C192.77 10.3681 193.077 10.1483 193.301 9.86786C193.525 9.58365 193.636 9.25206 193.636 8.87312C193.636 8.52827 193.538 8.24595 193.341 8.02616C193.147 7.80637 192.884 7.62448 192.551 7.48048C192.221 7.33648 191.848 7.20953 191.431 7.09963L190.055 6.72447C189.123 6.47058 188.384 6.09731 187.838 5.60468C187.297 5.11205 187.026 4.46025 187.026 3.6493C187.026 2.97856 187.207 2.39309 187.571 1.89287C187.935 1.39266 188.428 1.00424 189.049 0.727604C189.671 0.447182 190.372 0.306971 191.152 0.306971C191.941 0.306971 192.636 0.445287 193.238 0.72192C193.845 0.998553 194.322 1.3794 194.671 1.86445C195.019 2.34572 195.201 2.89898 195.217 3.52425H193.523ZM197.338 15.3816V3.37646H198.998V4.79183H199.14C199.239 4.60994 199.381 4.39962 199.566 4.16088C199.752 3.92215 200.01 3.71372 200.339 3.53562C200.669 3.35372 201.105 3.26277 201.647 3.26277C202.352 3.26277 202.981 3.44088 203.534 3.79709C204.087 4.1533 204.521 4.66678 204.836 5.33752C205.154 6.00826 205.313 6.81542 205.313 7.75901C205.313 8.70259 205.156 9.51164 204.841 10.1862C204.527 10.8569 204.095 11.3742 203.545 11.738C202.996 12.098 202.369 12.278 201.664 12.278C201.133 12.278 200.699 12.1889 200.362 12.0108C200.029 11.8327 199.767 11.6243 199.578 11.3855C199.388 11.1468 199.242 10.9346 199.14 10.7489H199.038V15.3816H197.338ZM199.004 7.74195C199.004 8.35585 199.093 8.89396 199.271 9.35628C199.449 9.81859 199.707 10.1805 200.044 10.442C200.381 10.6997 200.794 10.8285 201.283 10.8285C201.791 10.8285 202.215 10.694 202.556 10.4249C202.897 10.1521 203.155 9.78259 203.329 9.31649C203.507 8.85038 203.597 8.32553 203.597 7.74195C203.597 7.16595 203.509 6.64868 203.335 6.19016C203.165 5.73163 202.907 5.36973 202.562 5.10447C202.221 4.8392 201.795 4.70657 201.283 4.70657C200.79 4.70657 200.374 4.83352 200.033 5.08741C199.695 5.34131 199.439 5.69563 199.265 6.15037C199.091 6.6051 199.004 7.13563 199.004 7.74195ZM210.895 12.2837C210.077 12.2837 209.362 12.0961 208.752 11.7209C208.142 11.3458 207.668 10.8209 207.331 10.1464C206.994 9.47186 206.825 8.68364 206.825 7.78174C206.825 6.87605 206.994 6.08405 207.331 5.40573C207.668 4.72741 208.142 4.20067 208.752 3.82551C209.362 3.45035 210.077 3.26277 210.895 3.26277C211.714 3.26277 212.428 3.45035 213.038 3.82551C213.648 4.20067 214.122 4.72741 214.459 5.40573C214.796 6.08405 214.965 6.87605 214.965 7.78174C214.965 8.68364 214.796 9.47186 214.459 10.1464C214.122 10.8209 213.648 11.3458 213.038 11.7209C212.428 12.0961 211.714 12.2837 210.895 12.2837ZM210.901 10.8569C211.431 10.8569 211.871 10.7167 212.22 10.4363C212.568 10.1559 212.826 9.78259 212.993 9.31649C213.163 8.85038 213.248 8.3369 213.248 7.77606C213.248 7.219 213.163 6.70742 212.993 6.24131C212.826 5.77142 212.568 5.39436 212.22 5.11015C211.871 4.82594 211.431 4.68383 210.901 4.68383C210.366 4.68383 209.923 4.82594 209.571 5.11015C209.222 5.39436 208.962 5.77142 208.792 6.24131C208.625 6.70742 208.542 7.219 208.542 7.77606C208.542 8.3369 208.625 8.85038 208.792 9.31649C208.962 9.78259 209.222 10.1559 209.571 10.4363C209.923 10.7167 210.366 10.8569 210.901 10.8569ZM216.862 12.1074V3.37646H218.505V4.76341H218.596C218.755 4.29352 219.035 3.92404 219.437 3.65499C219.843 3.38214 220.301 3.24572 220.813 3.24572C220.919 3.24572 221.044 3.24951 221.188 3.25709C221.336 3.26467 221.451 3.27414 221.535 3.28551V4.9112C221.466 4.89226 221.345 4.87141 221.171 4.84868C220.996 4.82215 220.822 4.80889 220.648 4.80889C220.246 4.80889 219.888 4.89415 219.574 5.06468C219.263 5.23141 219.016 5.46447 218.835 5.76384C218.653 6.05942 218.562 6.39668 218.562 6.77563V12.1074H216.862ZM227.597 3.37646V4.74068H222.828V3.37646H227.597ZM224.107 1.28466H225.806V9.54386C225.806 9.87354 225.856 10.1218 225.954 10.2885C226.053 10.4514 226.18 10.5632 226.335 10.6239C226.494 10.6807 226.666 10.7091 226.852 10.7091C226.989 10.7091 227.108 10.6997 227.21 10.6807C227.313 10.6618 227.392 10.6466 227.449 10.6352L227.756 12.0392C227.657 12.0771 227.517 12.115 227.335 12.1529C227.153 12.1946 226.926 12.2173 226.653 12.2211C226.206 12.2287 225.789 12.1491 225.403 11.9824C225.016 11.8157 224.704 11.558 224.465 11.2093C224.226 10.8607 224.107 10.423 224.107 9.89628V1.28466ZM235.879 5.50805L234.338 5.78089C234.274 5.58384 234.172 5.39626 234.031 5.21815C233.895 5.04004 233.709 4.89415 233.474 4.78046C233.239 4.66678 232.946 4.60994 232.593 4.60994C232.112 4.60994 231.71 4.71794 231.388 4.93394C231.066 5.14615 230.905 5.42089 230.905 5.75815C230.905 6.04994 231.013 6.28489 231.229 6.463C231.445 6.64111 231.794 6.787 232.275 6.90069L233.662 7.219C234.465 7.40469 235.064 7.69079 235.458 8.07732C235.852 8.46385 236.049 8.96596 236.049 9.58365C236.049 10.1066 235.898 10.5727 235.595 10.982C235.295 11.3874 234.876 11.7058 234.338 11.9369C233.804 12.1681 233.184 12.2837 232.48 12.2837C231.502 12.2837 230.704 12.0752 230.086 11.6584C229.469 11.2378 229.09 10.6409 228.95 9.86786L230.592 9.61775C230.695 10.046 230.905 10.37 231.223 10.5898C231.542 10.8058 231.957 10.9138 232.468 10.9138C233.025 10.9138 233.471 10.7982 233.804 10.567C234.137 10.3321 234.304 10.046 234.304 9.7087C234.304 9.43585 234.202 9.20659 233.997 9.02091C233.796 8.83522 233.488 8.69501 233.071 8.60027L231.593 8.27627C230.778 8.09059 230.176 7.79501 229.785 7.38953C229.399 6.98405 229.205 6.47058 229.205 5.8491C229.205 5.33373 229.349 4.88278 229.637 4.49625C229.925 4.10973 230.323 3.80846 230.831 3.59246C231.339 3.37267 231.921 3.26277 232.576 3.26277C233.52 3.26277 234.263 3.46741 234.804 3.87667C235.346 4.28215 235.704 4.82594 235.879 5.50805ZM240.129 10.5159L240.044 11.1354C239.987 11.5902 239.89 12.0639 239.754 12.5565C239.621 13.0529 239.483 13.5133 239.339 13.9378C239.199 14.3622 239.083 14.6995 238.992 14.9496H237.787C237.836 14.7146 237.905 14.3963 237.992 13.9946C238.079 13.5967 238.164 13.1515 238.248 12.6588C238.331 12.1662 238.394 11.6641 238.435 11.1525L238.492 10.5159H240.129ZM246.714 12.1074V0.466129H248.471V10.5954H253.746V12.1074H246.714ZM255.749 12.1074V0.466129H257.506V10.5954H262.781V12.1074H255.749ZM274 4.25183H272.227C272.158 3.87288 272.031 3.53941 271.846 3.25141C271.66 2.9634 271.433 2.71898 271.164 2.51814C270.895 2.3173 270.593 2.16572 270.26 2.0634C269.93 1.96108 269.58 1.90993 269.208 1.90993C268.538 1.90993 267.937 2.07856 267.406 2.41582C266.88 2.75309 266.463 3.24762 266.156 3.89941C265.853 4.5512 265.701 5.34699 265.701 6.28679C265.701 7.23416 265.853 8.03374 266.156 8.68554C266.463 9.33733 266.882 9.82996 267.412 10.1634C267.943 10.4969 268.539 10.6637 269.203 10.6637C269.57 10.6637 269.919 10.6144 270.248 10.5159C270.582 10.4135 270.883 10.2639 271.152 10.0668C271.421 9.86975 271.649 9.62912 271.834 9.34491C272.024 9.05691 272.155 8.72722 272.227 8.35585L274 8.36153C273.905 8.93375 273.722 9.46049 273.449 9.94175C273.18 10.4192 272.833 10.8323 272.408 11.1809C271.988 11.5258 271.507 11.7929 270.965 11.9824C270.423 12.1719 269.832 12.2666 269.191 12.2666C268.183 12.2666 267.285 12.0279 266.497 11.5504C265.709 11.0691 265.087 10.3813 264.632 9.48701C264.181 8.59269 263.956 7.52595 263.956 6.28679C263.956 5.04383 264.183 3.97709 264.638 3.08656C265.093 2.19224 265.714 1.50634 266.503 1.02887C267.291 0.547603 268.187 0.306971 269.191 0.306971C269.809 0.306971 270.385 0.396024 270.919 0.57413C271.457 0.748446 271.94 1.00613 272.369 1.34719C272.797 1.68445 273.151 2.09751 273.432 2.58635C273.712 3.0714 273.902 3.62656 274 4.25183Z" fill="white"/>
</svg>
