<svg width="134" height="32" viewBox="0 0 134 32" fill="none" xmlns="http://www.w3.org/2000/svg">
<g clip-path="url(#clip0_95_65)">
<path d="M16.2229 3.84017C16.2229 3.0747 16.7053 2.12107 17.1207 1.41548C14.137 -0.333556 10.5145 1.56942 10.5145 4.60992C10.5145 8.35601 19.0146 10.0152 19.0146 15.7883C19.0146 19.3805 16.1916 22.1772 10.7691 22.1772C5.34657 22.1772 3.22937 18.6706 3.22937 16.9515C3.22937 16.7077 3.26064 16.4896 3.32764 16.2758C3.5197 15.784 4.06464 15.2923 4.70784 15.2923C5.57437 15.2923 6.1193 16.0278 6.1193 16.7377C6.1193 17.6571 5.5431 18.7647 5.0607 19.5301C9.7105 23.1864 14.5881 20.1459 14.5881 16.8275C14.5881 12.9274 6.05677 11.7899 6.05677 6.20072C6.0523 2.94641 9.25937 0 13.9762 0C16.0934 0 18.818 1.10758 18.818 3.56221C18.818 3.77603 18.7868 4.02405 18.7198 4.23787C18.5902 4.69972 18.0766 5.09742 17.5004 5.09742C16.6651 5.09742 16.2184 4.48163 16.2184 3.83589L16.2229 3.84017Z" fill="white"/>
<path d="M28.3767 10.0708C32.4503 10.0708 34.9203 12.3758 34.9203 15.3521C34.9203 19.2521 31.0075 22.0788 26.8044 22.0788C22.6013 22.0788 20.292 19.7739 20.292 16.7975C20.292 12.9274 24.1735 10.0708 28.3767 10.0708ZM24.6872 17.533C24.6872 19.6199 25.3929 21.1551 26.9339 21.1551C29.7256 21.1551 30.4939 16.7633 30.4939 14.5824C30.4939 12.5254 29.8194 10.9902 28.2471 10.9902C25.5225 10.9902 24.6872 15.412 24.6872 17.5288V17.533Z" fill="white"/>
<path d="M42.9693 10.3188L42.938 10.5626C42.5852 10.5626 42.2323 10.8406 42.1698 11.1784L41.0486 17.2893C40.794 18.7005 40.8566 20.3897 42.268 20.3897C43.1971 20.3897 44.0324 19.0084 44.1619 18.2729L45.4751 11.1784C45.5376 10.8406 45.3143 10.5626 44.9614 10.5626L44.9927 10.3188H50.6698L50.6386 10.5626C50.317 10.5626 49.9641 10.8406 49.9016 11.1784L48.4276 19.2864C48.2668 20.0861 48.9412 20.9755 50.2544 19.838L50.4152 20.0818C48.9055 22.7844 44.7694 22.7844 44.1619 19.8979C43.1033 21.5871 41.339 22.0788 40.2178 22.0788C37.9398 22.0788 36.0817 20.2956 36.6579 17.1054L37.7478 11.1784C37.8103 10.8406 37.587 10.5626 37.2341 10.5626L37.2654 10.3188H42.9738H42.9693Z" fill="white"/>
<path d="M55.0963 1.19738C55.1588 0.859545 54.9355 0.581582 54.5826 0.581582L54.6139 0.33783H60.3223L60.291 0.581582C59.9381 0.581582 59.5853 0.859545 59.5227 1.19738L56.2174 19.2864C56.0566 20.0861 56.7311 20.9755 58.0443 19.838L58.2051 20.0818C56.472 23.2121 51.1477 22.7246 51.9517 18.2686L55.0963 1.19738Z" fill="white"/>
<path d="M64.7533 19.2436L66.3568 16.6008L66.5801 16.6949C66.3568 17.1567 66.3881 17.6785 66.933 17.6785H68.6348L69.4388 14.2403C69.9525 12.0294 72.1635 11.0159 73.9635 11.0159C75.2142 11.0159 76.7239 11.6317 76.6882 13.1028L76.4649 13.2268C76.3666 12.5511 75.7591 12.3073 75.3393 12.3073C74.6648 12.3073 74.1511 12.8889 73.9591 13.7185L73.0613 17.6785C74.0216 17.6785 76.9741 17.6785 77.7781 16.8788L77.9389 17.1225C77.1706 19.2436 73.3203 18.8716 72.7754 18.8416L71.6498 23.8792C70.4974 29.0065 59.6881 28.2411 59.6523 24.4308V24.4009C59.6523 23.8193 60.0677 23.0795 60.903 23.0795C62.5065 23.0795 62.4127 25.1065 62.1537 26.4279C64.1413 27.1634 66.5801 26.5519 67.1563 24.1529L68.3757 18.8416H66.0977C65.6153 18.8416 65.2937 18.8716 65.0079 19.2393H64.7533V19.2436ZM64.6907 17.0627C62.3815 16.7548 60.7154 14.7577 60.7154 12.3629C60.7154 9.19843 63.4401 5.51649 68.2194 5.51649C72.0384 5.51649 75.6609 6.52999 77.3314 6.52999C79.3191 6.52999 79.6407 5.73031 79.9623 5.23853L80.1856 5.36254C80.1856 6.40597 80.1231 10.3359 76.1433 10.3359C74.9239 10.3359 71.1406 9.38232 67.6745 9.38232C64.4987 9.38232 62.6405 11.7172 62.6405 13.8682C62.6405 15.1597 63.3463 16.387 64.6952 16.8146V17.0584L64.6907 17.0627Z" fill="white"/>
<path d="M85.6304 15.4975C89.704 15.4975 92.1741 17.8025 92.1741 20.7788C92.1741 24.6788 88.2613 27.5055 84.0582 27.5055C79.855 27.5055 77.5458 25.2006 77.5458 22.2242C77.5458 18.3541 81.4273 15.4975 85.6304 15.4975ZM81.941 22.9597C81.941 25.0466 82.6467 26.5818 84.1877 26.5818C86.9794 26.5818 87.7476 22.19 87.7476 20.0091C87.7476 17.9521 87.0732 16.4169 85.5009 16.4169C82.7762 16.4169 81.941 20.8387 81.941 22.9555V22.9597Z" fill="white"/>
<path d="M105.905 19.5215C105.713 17.8923 104.752 16.4511 102.474 16.4511C99.9729 16.4511 98.2711 18.8758 98.2711 21.3347C98.2711 24.1913 99.8121 26.0344 101.894 26.0344C103.113 26.0344 104.524 25.5127 105.775 24.0074L105.967 24.1913C104.556 26.3723 102.698 27.5055 100.192 27.5055C97.0473 27.5055 93.4561 25.5085 93.4561 21.8265C93.4561 18.1446 97.2081 15.5018 101.541 15.5018C103.658 15.5018 105.422 16.1475 106.61 17.1311L106.164 19.6498L105.909 19.5258L105.905 19.5215Z" fill="white"/>
<path d="M114.016 15.7413L113.985 15.985C113.632 15.985 113.279 16.263 113.217 16.6008L112.095 22.7117C111.841 24.1229 111.903 25.8121 113.315 25.8121C114.244 25.8121 115.079 24.4308 115.209 23.6953L116.522 16.6008C116.584 16.263 116.361 15.985 116.008 15.985L116.04 15.7413H121.717L121.685 15.985C121.364 15.985 121.011 16.263 120.948 16.6008L119.474 24.7088C119.314 25.5085 119.988 26.398 121.301 25.2604L121.462 25.5042C119.952 28.2069 115.816 28.2069 115.209 25.3203C114.15 27.0095 112.386 27.5013 111.265 27.5013C108.987 27.5013 107.124 25.718 107.705 22.5279L108.795 16.6008C108.857 16.263 108.634 15.985 108.281 15.985L108.312 15.7413H114.021H114.016Z" fill="white"/>
<path d="M130.887 25.2348C130.887 22.6861 123.316 24.465 123.316 20.1373C123.316 16.9429 126.523 15.5018 129.605 15.5018C131.24 15.5018 132.843 15.9337 133.902 16.6393L133.518 18.8202L133.263 18.6962C132.848 17.007 131.146 16.4255 129.605 16.4255C129.605 16.4255 126.911 16.5195 126.911 18.0205C126.911 20.0176 134 18.8502 134 23.3318C134 26.4321 130.855 27.5098 127.872 27.5098C125.723 27.5098 123.928 26.9581 122.677 26.1884L123.061 24.0074L123.316 24.1315C123.539 26.0986 126.393 26.5904 127.934 26.5904C128.962 26.5904 130.887 26.3766 130.887 25.239V25.2348Z" fill="white"/>
<path d="M71.4314 28.1256C62.9626 31.6408 53.5335 28.9509 44.8145 27.8391C34.5412 26.4322 24.0534 25.0979 13.6863 26.0858C10.5596 26.5391 6.77638 26.9325 4.66364 29.2717C3.96238 30.2638 4.02938 31.4954 6.03491 31.0036L6.05725 31.32C-2.80909 34.9336 -3.21556 22.8699 13.5344 23.4857C24.1249 23.5841 34.5278 25.5812 44.8994 27.373C53.5022 28.767 62.9537 31.6023 71.3242 27.9417L71.4359 28.1213L71.4314 28.1256Z" fill="white"/>
</g>
<defs>
<clipPath id="clip0_95_65">
<rect width="134" height="32" fill="white"/>
</clipPath>
</defs>
</svg>
