<svg width="275" height="270" viewBox="0 0 275 270" fill="none" xmlns="http://www.w3.org/2000/svg">
<path d="M51.6596 36.708L41.7773 1.69266H48.5991L54.9081 27.4242H55.2329L61.9693 1.69266H68.1756L74.9291 27.4413H75.2368L81.5457 1.69266H88.3676L78.4853 36.708H72.2277L65.2178 12.1391H64.9442L57.9172 36.708H51.6596ZM101.438 37.2209C98.8055 37.2209 96.5315 36.6738 94.6166 35.5796C92.7131 34.474 91.2485 32.9124 90.2226 30.8949C89.1968 28.866 88.6839 26.4781 88.6839 23.7311C88.6839 21.0298 89.1968 18.6589 90.2226 16.6186C91.2599 14.567 92.7074 12.9712 94.5653 11.8314C96.4233 10.6802 98.606 10.1046 101.114 10.1046C102.732 10.1046 104.26 10.3667 105.696 10.891C107.143 11.404 108.42 12.2018 109.526 13.2847C110.643 14.3675 111.52 15.7467 112.159 17.4222C112.797 19.0864 113.116 21.0697 113.116 23.3721V25.2699H91.5904V21.0981H107.183C107.172 19.9127 106.915 18.8584 106.414 17.9351C105.912 17.0005 105.211 16.2653 104.311 15.7296C103.422 15.1939 102.385 14.926 101.199 14.926C99.9339 14.926 98.8226 15.2338 97.8651 15.8493C96.9077 16.4534 96.1611 17.2512 95.6254 18.2429C95.1011 19.2231 94.8332 20.3003 94.8218 21.4743V25.116C94.8218 26.6434 95.1011 27.9542 95.6596 29.0484C96.2181 30.1312 96.9989 30.9633 98.0019 31.5446C99.005 32.1145 100.179 32.3995 101.524 32.3995C102.424 32.3995 103.239 32.2741 103.969 32.0234C104.698 31.7612 105.331 31.3794 105.867 30.8778C106.402 30.3763 106.807 29.7551 107.081 29.0142L112.86 29.6639C112.495 31.1913 111.799 32.5249 110.774 33.6647C109.759 34.7931 108.46 35.6708 106.875 36.2977C105.291 36.9132 103.479 37.2209 101.438 37.2209ZM130.568 36.708V1.69266H136.757V14.7892H137.014C137.333 14.1509 137.783 13.4727 138.364 12.7546C138.946 12.0252 139.732 11.404 140.724 10.891C141.716 10.3667 142.981 10.1046 144.52 10.1046C146.548 10.1046 148.378 10.6232 150.008 11.6604C151.649 12.6863 152.949 14.2079 153.906 16.2254C154.875 18.2315 155.359 20.6935 155.359 23.6115C155.359 26.4952 154.886 28.9458 153.94 30.9633C152.994 32.9808 151.706 34.5196 150.076 35.5796C148.446 36.6396 146.6 37.1697 144.537 37.1697C143.032 37.1697 141.784 36.9189 140.792 36.4174C139.801 35.9158 139.003 35.3117 138.399 34.6051C137.806 33.887 137.344 33.2088 137.014 32.5705H136.655V36.708H130.568ZM136.638 23.5773C136.638 25.2756 136.877 26.7631 137.356 28.0397C137.846 29.3163 138.547 30.3136 139.459 31.0317C140.382 31.7384 141.499 32.0917 142.81 32.0917C144.178 32.0917 145.323 31.727 146.246 30.9975C147.17 30.2566 147.865 29.2479 148.332 27.9713C148.811 26.6833 149.05 25.2186 149.05 23.5773C149.05 21.9473 148.817 20.4997 148.349 19.2345C147.882 17.9693 147.187 16.9777 146.263 16.2596C145.34 15.5415 144.189 15.1825 142.81 15.1825C141.488 15.1825 140.365 15.5301 139.442 16.2254C138.518 16.9207 137.817 17.8952 137.339 19.1491C136.871 20.4029 136.638 21.8789 136.638 23.5773ZM177.359 25.6631V10.4465H183.548V36.708H177.547V32.0404H177.274C176.681 33.5108 175.706 34.7133 174.35 35.648C173.005 36.5826 171.347 37.05 169.375 37.05C167.654 37.05 166.132 36.6681 164.81 35.9044C163.499 35.1294 162.473 34.0066 161.732 32.5363C160.991 31.0545 160.621 29.265 160.621 27.1677V10.4465H166.81V26.2103C166.81 27.8744 167.266 29.1966 168.178 30.1768C169.09 31.1571 170.287 31.6472 171.768 31.6472C172.68 31.6472 173.564 31.4249 174.418 30.9804C175.273 30.5359 175.974 29.8748 176.521 28.9971C177.08 28.1081 177.359 26.9967 177.359 25.6631ZM189.913 36.708V10.4465H196.102V36.708H189.913ZM193.025 6.71928C192.044 6.71928 191.201 6.39443 190.494 5.74473C189.788 5.08364 189.434 4.29146 189.434 3.3682C189.434 2.43355 189.788 1.64137 190.494 0.991671C191.201 0.330575 192.044 2.67842e-05 193.025 2.67842e-05C194.016 2.67842e-05 194.86 0.330575 195.555 0.991671C196.262 1.64137 196.615 2.43355 196.615 3.3682C196.615 4.29146 196.262 5.08364 195.555 5.74473C194.86 6.39443 194.016 6.71928 193.025 6.71928ZM208.656 1.69266V36.708H202.467V1.69266H208.656ZM224.766 37.1697C222.703 37.1697 220.856 36.6396 219.226 35.5796C217.596 34.5196 216.308 32.9808 215.362 30.9633C214.416 28.9458 213.943 26.4952 213.943 23.6115C213.943 20.6935 214.422 18.2315 215.379 16.2254C216.348 14.2079 217.653 12.6863 219.295 11.6604C220.936 10.6232 222.766 10.1046 224.783 10.1046C226.322 10.1046 227.587 10.3667 228.579 10.891C229.57 11.404 230.357 12.0252 230.938 12.7546C231.519 13.4727 231.97 14.1509 232.289 14.7892H232.545V1.69266H238.752V36.708H232.665V32.5705H232.289C231.97 33.2088 231.508 33.887 230.904 34.6051C230.3 35.3117 229.502 35.9158 228.51 36.4174C227.519 36.9189 226.27 37.1697 224.766 37.1697ZM226.493 32.0917C227.804 32.0917 228.921 31.7384 229.844 31.0317C230.767 30.3136 231.468 29.3163 231.947 28.0397C232.426 26.7631 232.665 25.2756 232.665 23.5773C232.665 21.8789 232.426 20.4029 231.947 19.1491C231.479 17.8952 230.784 16.9207 229.861 16.2254C228.949 15.5301 227.826 15.1825 226.493 15.1825C225.114 15.1825 223.962 15.5415 223.039 16.2596C222.116 16.9777 221.421 17.9693 220.953 19.2345C220.486 20.4997 220.252 21.9473 220.252 23.5773C220.252 25.2186 220.486 26.6833 220.953 27.9713C221.432 29.2479 222.133 30.2566 223.056 30.9975C223.991 31.727 225.136 32.0917 226.493 32.0917ZM25.7806 95.3975C23.159 95.3975 20.9079 94.8219 19.0272 93.6707C17.1578 92.5195 15.716 90.9294 14.7015 88.9005C13.6985 86.8602 13.197 84.5122 13.197 81.8564C13.197 79.1892 13.7099 76.8355 14.7357 74.7952C15.7616 72.7435 17.2091 71.1478 19.0784 70.0079C20.9592 68.8567 23.1818 68.2811 25.7464 68.2811C27.8779 68.2811 29.7643 68.6744 31.4056 69.4608C33.0584 70.2359 34.3749 71.3358 35.3551 72.7606C36.3354 74.174 36.8939 75.8267 37.0307 77.7189H31.115C30.8756 76.4536 30.3057 75.3993 29.4052 74.5558C28.5162 73.701 27.3251 73.2735 25.8319 73.2735C24.5667 73.2735 23.4554 73.6155 22.4979 74.2994C21.5405 74.9719 20.7939 75.9407 20.2582 77.2059C19.7338 78.4711 19.4717 79.9871 19.4717 81.7538C19.4717 83.5433 19.7338 85.0821 20.2582 86.3701C20.7825 87.6467 21.5177 88.6327 22.4637 89.3279C23.4212 90.0118 24.5439 90.3538 25.8319 90.3538C26.7438 90.3538 27.5587 90.1828 28.2768 89.8409C29.0063 89.4875 29.6161 88.9803 30.1062 88.3192C30.5964 87.6581 30.9326 86.8545 31.115 85.9085H37.0307C36.8825 87.7664 36.3354 89.4134 35.3893 90.8496C34.4433 92.2744 33.1553 93.3914 31.5253 94.2007C29.8954 94.9986 27.9805 95.3975 25.7806 95.3975ZM53.5681 95.3975C51.0035 95.3975 48.7808 94.8333 46.9001 93.7049C45.0194 92.5764 43.5604 90.9978 42.5232 88.9689C41.4973 86.94 40.9844 84.5692 40.9844 81.8564C40.9844 79.1436 41.4973 76.7671 42.5232 74.7268C43.5604 72.6865 45.0194 71.1022 46.9001 69.9738C48.7808 68.8453 51.0035 68.2811 53.5681 68.2811C56.1327 68.2811 58.3553 68.8453 60.236 69.9738C62.1167 71.1022 63.57 72.6865 64.5958 74.7268C65.6331 76.7671 66.1517 79.1436 66.1517 81.8564C66.1517 84.5692 65.6331 86.94 64.5958 88.9689C63.57 90.9978 62.1167 92.5764 60.236 93.7049C58.3553 94.8333 56.1327 95.3975 53.5681 95.3975ZM53.6023 90.4393C54.9928 90.4393 56.1555 90.0574 57.0901 89.2938C58.0248 88.5187 58.7201 87.4814 59.176 86.182C59.6433 84.8826 59.877 83.4351 59.877 81.8393C59.877 80.2322 59.6433 78.7789 59.176 77.4795C58.7201 76.1687 58.0248 75.1258 57.0901 74.3507C56.1555 73.5756 54.9928 73.1881 53.6023 73.1881C52.1775 73.1881 50.9921 73.5756 50.046 74.3507C49.1114 75.1258 48.4104 76.1687 47.943 77.4795C47.4871 78.7789 47.2591 80.2322 47.2591 81.8393C47.2591 83.4351 47.4871 84.8826 47.943 86.182C48.4104 87.4814 49.1114 88.5187 50.046 89.2938C50.9921 90.0574 52.1775 90.4393 53.6023 90.4393ZM71.4049 94.8846V68.6231H77.3205V73.0855H77.6283C78.1754 71.5809 79.0816 70.4069 80.3468 69.5634C81.612 68.7086 83.1222 68.2811 84.8776 68.2811C86.6557 68.2811 88.1546 68.7142 89.3742 69.5805C90.6052 70.4354 91.4714 71.6037 91.973 73.0855H92.2465C92.8278 71.6265 93.8081 70.4639 95.1873 69.5976C96.5778 68.7199 98.2249 68.2811 100.128 68.2811C102.545 68.2811 104.517 69.0448 106.044 70.5722C107.571 72.0995 108.335 74.3279 108.335 77.2572V94.8846H102.129V78.2147C102.129 76.5847 101.696 75.3936 100.829 74.6413C99.9631 73.8776 98.9031 73.4958 97.6493 73.4958C96.1561 73.4958 94.9878 73.9631 94.1443 74.8978C93.3123 75.821 92.8962 77.0236 92.8962 78.5053V94.8846H86.8267V77.9582C86.8267 76.6018 86.4163 75.519 85.5957 74.7097C84.7864 73.9004 83.7263 73.4958 82.4155 73.4958C81.5265 73.4958 80.7172 73.7238 79.9877 74.1797C79.2582 74.6242 78.6769 75.2568 78.2438 76.0775C77.8107 76.8868 77.5941 77.8328 77.5941 78.9157V94.8846H71.4049ZM114.614 94.8846V68.6231H120.53V73.0855H120.838C121.385 71.5809 122.291 70.4069 123.556 69.5634C124.821 68.7086 126.332 68.2811 128.087 68.2811C129.865 68.2811 131.364 68.7142 132.583 69.5805C133.814 70.4354 134.681 71.6037 135.182 73.0855H135.456C136.037 71.6265 137.017 70.4639 138.397 69.5976C139.787 68.7199 141.434 68.2811 143.338 68.2811C145.754 68.2811 147.726 69.0448 149.253 70.5722C150.781 72.0995 151.544 74.3279 151.544 77.2572V94.8846H145.338V78.2147C145.338 76.5847 144.905 75.3936 144.039 74.6413C143.172 73.8776 142.112 73.4958 140.859 73.4958C139.365 73.4958 138.197 73.9631 137.354 74.8978C136.522 75.821 136.105 77.0236 136.105 78.5053V94.8846H130.036V77.9582C130.036 76.6018 129.626 75.519 128.805 74.7097C127.996 73.9004 126.936 73.4958 125.625 73.4958C124.736 73.4958 123.926 73.7238 123.197 74.1797C122.468 74.6242 121.886 75.2568 121.453 76.0775C121.02 76.8868 120.803 77.8328 120.803 78.9157V94.8846H114.614ZM174.562 83.8397V68.6231H180.751V94.8846H174.75V90.217H174.476C173.883 91.6874 172.909 92.8899 171.553 93.8245C170.208 94.7592 168.549 95.2265 166.577 95.2265C164.856 95.2265 163.334 94.8447 162.012 94.081C160.701 93.3059 159.676 92.1832 158.935 90.7128C158.194 89.2311 157.823 87.4415 157.823 85.3443V68.6231H164.013V84.3868C164.013 86.051 164.469 87.3732 165.38 88.3534C166.292 89.3336 167.489 89.8238 168.971 89.8238C169.883 89.8238 170.766 89.6015 171.621 89.157C172.476 88.7124 173.177 88.0513 173.724 87.1737C174.282 86.2846 174.562 85.1733 174.562 83.8397ZM193.305 79.497V94.8846H187.115V68.6231H193.031V73.0855H193.339C193.943 71.6151 194.906 70.4468 196.228 69.5805C197.562 68.7142 199.209 68.2811 201.169 68.2811C202.982 68.2811 204.56 68.6687 205.905 69.4437C207.262 70.2188 208.31 71.3415 209.051 72.8119C209.804 74.2823 210.174 76.0661 210.163 78.1634V94.8846H203.973V79.1208C203.973 77.3655 203.517 75.992 202.606 75.0004C201.705 74.0087 200.457 73.5129 198.861 73.5129C197.778 73.5129 196.815 73.7523 195.972 74.231C195.14 74.6983 194.484 75.3765 194.006 76.2656C193.538 77.1546 193.305 78.2318 193.305 79.497ZM216.454 94.8846V68.6231H222.644V94.8846H216.454ZM219.566 64.8958C218.586 64.8958 217.742 64.571 217.036 63.9213C216.329 63.2602 215.976 62.468 215.976 61.5448C215.976 60.6101 216.329 59.8179 217.036 59.1682C217.742 58.5071 218.586 58.1766 219.566 58.1766C220.558 58.1766 221.401 58.5071 222.097 59.1682C222.803 59.8179 223.157 60.6101 223.157 61.5448C223.157 62.468 222.803 63.2602 222.097 63.9213C221.401 64.571 220.558 64.8958 219.566 64.8958ZM242.122 68.6231V73.4103H227.025V68.6231H242.122ZM230.752 62.3312H236.941V86.9856C236.941 87.8177 237.067 88.456 237.317 88.9005C237.58 89.3336 237.922 89.63 238.343 89.7896C238.765 89.9491 239.232 90.0289 239.745 90.0289C240.133 90.0289 240.486 90.0004 240.805 89.9435C241.136 89.8865 241.387 89.8352 241.558 89.7896L242.601 94.6281C242.27 94.7421 241.797 94.8675 241.181 95.0043C240.577 95.141 239.836 95.2208 238.959 95.2436C237.409 95.2892 236.012 95.0556 234.77 94.5426C233.528 94.0183 232.542 93.209 231.812 92.1148C231.094 91.0206 230.741 89.6528 230.752 88.0115V62.3312ZM251.145 104.733C250.301 104.733 249.521 104.664 248.803 104.527C248.096 104.402 247.532 104.254 247.11 104.083L248.546 99.2615C249.447 99.5237 250.25 99.649 250.957 99.6376C251.664 99.6262 252.285 99.404 252.82 98.9708C253.368 98.5491 253.829 97.8424 254.205 96.8508L254.735 95.4317L245.212 68.6231H251.778L257.83 88.456H258.104L264.173 68.6231H270.756L260.241 98.0647C259.751 99.4553 259.101 100.646 258.292 101.638C257.482 102.641 256.491 103.405 255.317 103.929C254.154 104.465 252.764 104.733 251.145 104.733ZM15.0969 126.8V131.587H-5.5631e-05V126.8H15.0969ZM3.72717 120.508H9.9164V145.162C9.9164 145.994 10.0418 146.633 10.2925 147.077C10.5547 147.51 10.8967 147.807 11.3184 147.966C11.7401 148.126 12.2074 148.205 12.7204 148.205C13.1079 148.205 13.4613 148.177 13.7804 148.12C14.111 148.063 14.3617 148.012 14.5327 147.966L15.5756 152.805C15.2451 152.919 14.772 153.044 14.1565 153.181C13.5524 153.318 12.8116 153.397 11.9339 153.42C10.3837 153.466 8.98745 153.232 7.74504 152.719C6.50263 152.195 5.51669 151.386 4.7872 150.291C4.06911 149.197 3.71577 147.829 3.72717 146.188V120.508ZM27.0266 137.674V153.061H20.8373V118.046H26.8898V131.262H27.1975C27.813 129.78 28.7648 128.612 30.0528 127.757C31.3522 126.891 33.0049 126.458 35.011 126.458C36.8347 126.458 38.4248 126.84 39.7812 127.603C41.1376 128.367 42.1862 129.484 42.9271 130.954C43.6794 132.425 44.0555 134.22 44.0555 136.34V153.061H37.8663V137.297C37.8663 135.531 37.4104 134.157 36.4985 133.177C35.598 132.185 34.3328 131.689 32.7029 131.689C31.6087 131.689 30.6284 131.929 29.7621 132.408C28.9073 132.875 28.2348 133.553 27.7447 134.442C27.2659 135.331 27.0266 136.408 27.0266 137.674ZM50.3644 153.061V126.8H56.3656V131.177H56.6392C57.1179 129.661 57.9386 128.492 59.1012 127.672C60.2752 126.84 61.6145 126.423 63.1191 126.423C63.461 126.423 63.8428 126.441 64.2646 126.475C64.6977 126.498 65.0568 126.537 65.3417 126.594V132.288C65.0796 132.197 64.6635 132.117 64.0936 132.049C63.5351 131.969 62.9937 131.929 62.4694 131.929C61.3409 131.929 60.3265 132.174 59.426 132.664C58.537 133.143 57.836 133.81 57.3231 134.664C56.8101 135.519 56.5537 136.505 56.5537 137.622V153.061H50.3644ZM79.8274 153.574C77.2628 153.574 75.0402 153.01 73.1595 151.881C71.2788 150.753 69.8198 149.174 68.7826 147.145C67.7567 145.117 67.2438 142.746 67.2438 140.033C67.2438 137.32 67.7567 134.944 68.7826 132.903C69.8198 130.863 71.2788 129.279 73.1595 128.15C75.0402 127.022 77.2628 126.458 79.8274 126.458C82.392 126.458 84.6147 127.022 86.4954 128.15C88.3761 129.279 89.8294 130.863 90.8552 132.903C91.8925 134.944 92.4111 137.32 92.4111 140.033C92.4111 142.746 91.8925 145.117 90.8552 147.145C89.8294 149.174 88.3761 150.753 86.4954 151.881C84.6147 153.01 82.392 153.574 79.8274 153.574ZM79.8616 148.616C81.2522 148.616 82.4148 148.234 83.3495 147.47C84.2841 146.695 84.9794 145.658 85.4354 144.359C85.9027 143.059 86.1364 141.612 86.1364 140.016C86.1364 138.409 85.9027 136.955 85.4354 135.656C84.9794 134.345 84.2841 133.302 83.3495 132.527C82.4148 131.752 81.2522 131.365 79.8616 131.365C78.4369 131.365 77.2514 131.752 76.3054 132.527C75.3707 133.302 74.6697 134.345 74.2024 135.656C73.7465 136.955 73.5185 138.409 73.5185 140.016C73.5185 141.612 73.7465 143.059 74.2024 144.359C74.6697 145.658 75.3707 146.695 76.3054 147.47C77.2514 148.234 78.4369 148.616 79.8616 148.616ZM114.403 142.016V126.8H120.592V153.061H114.591V148.394H114.317C113.724 149.864 112.75 151.066 111.393 152.001C110.048 152.936 108.39 153.403 106.418 153.403C104.697 153.403 103.175 153.021 101.853 152.258C100.542 151.482 99.5165 150.36 98.7756 148.889C98.0347 147.408 97.6642 145.618 97.6642 143.521V126.8H103.853V142.563C103.853 144.228 104.309 145.55 105.221 146.53C106.133 147.51 107.33 148 108.812 148C109.724 148 110.607 147.778 111.462 147.334C112.317 146.889 113.018 146.228 113.565 145.35C114.123 144.461 114.403 143.35 114.403 142.016ZM138.377 163.456C136.155 163.456 134.245 163.154 132.65 162.55C131.054 161.957 129.772 161.16 128.803 160.157C127.834 159.153 127.161 158.042 126.785 156.823L132.359 155.472C132.61 155.985 132.975 156.492 133.453 156.994C133.932 157.506 134.576 157.928 135.385 158.259C136.206 158.601 137.237 158.772 138.48 158.772C140.235 158.772 141.688 158.344 142.84 157.489C143.991 156.646 144.567 155.255 144.567 153.318V148.342H144.259C143.94 148.981 143.472 149.636 142.857 150.308C142.253 150.981 141.449 151.545 140.446 152.001C139.454 152.457 138.206 152.685 136.702 152.685C134.684 152.685 132.855 152.212 131.214 151.266C129.584 150.308 128.284 148.884 127.315 146.992C126.358 145.088 125.879 142.706 125.879 139.845C125.879 136.961 126.358 134.528 127.315 132.544C128.284 130.55 129.589 129.039 131.231 128.014C132.872 126.976 134.701 126.458 136.719 126.458C138.258 126.458 139.523 126.72 140.514 127.244C141.518 127.757 142.315 128.378 142.908 129.108C143.501 129.826 143.951 130.504 144.259 131.142H144.601V126.8H150.704V153.489C150.704 155.734 150.169 157.592 149.097 159.062C148.026 160.533 146.561 161.633 144.703 162.362C142.845 163.092 140.737 163.456 138.377 163.456ZM138.429 147.829C139.739 147.829 140.856 147.51 141.78 146.872C142.703 146.234 143.404 145.316 143.883 144.119C144.361 142.922 144.601 141.486 144.601 139.811C144.601 138.158 144.361 136.71 143.883 135.468C143.415 134.226 142.72 133.262 141.797 132.579C140.885 131.883 139.762 131.536 138.429 131.536C137.049 131.536 135.898 131.895 134.975 132.613C134.052 133.331 133.356 134.317 132.889 135.571C132.422 136.813 132.188 138.226 132.188 139.811C132.188 141.418 132.422 142.826 132.889 144.034C133.368 145.231 134.069 146.165 134.992 146.838C135.927 147.499 137.072 147.829 138.429 147.829ZM163.237 137.674V153.061H157.048V118.046H163.1V131.262H163.408C164.023 129.78 164.975 128.612 166.263 127.757C167.562 126.891 169.215 126.458 171.221 126.458C173.045 126.458 174.635 126.84 175.991 127.603C177.348 128.367 178.396 129.484 179.137 130.954C179.89 132.425 180.266 134.22 180.266 136.34V153.061H174.077V137.297C174.077 135.531 173.621 134.157 172.709 133.177C171.808 132.185 170.543 131.689 168.913 131.689C167.819 131.689 166.839 131.929 165.972 132.408C165.118 132.875 164.445 133.553 163.955 134.442C163.476 135.331 163.237 136.408 163.237 137.674ZM211.631 126.8V131.587H196.534V126.8H211.631ZM200.261 120.508H206.45V145.162C206.45 145.994 206.576 146.633 206.827 147.077C207.089 147.51 207.431 147.807 207.852 147.966C208.274 148.126 208.741 148.205 209.254 148.205C209.642 148.205 209.995 148.177 210.314 148.12C210.645 148.063 210.896 148.012 211.067 147.966L212.11 152.805C211.779 152.919 211.306 153.044 210.691 153.181C210.086 153.318 209.346 153.397 208.468 153.42C206.918 153.466 205.521 153.232 204.279 152.719C203.037 152.195 202.051 151.386 201.321 150.291C200.603 149.197 200.25 147.829 200.261 146.188V120.508ZM223.561 137.674V153.061H217.371V118.046H223.424V131.262H223.732C224.347 129.78 225.299 128.612 226.587 127.757C227.886 126.891 229.539 126.458 231.545 126.458C233.369 126.458 234.959 126.84 236.315 127.603C237.672 128.367 238.72 129.484 239.461 130.954C240.213 132.425 240.589 134.22 240.589 136.34V153.061H234.4V137.297C234.4 135.531 233.944 134.157 233.032 133.177C232.132 132.185 230.867 131.689 229.237 131.689C228.143 131.689 227.162 131.929 226.296 132.408C225.441 132.875 224.769 133.553 224.279 134.442C223.8 135.331 223.561 136.408 223.561 137.674ZM258.525 153.574C255.892 153.574 253.618 153.027 251.703 151.933C249.799 150.827 248.335 149.266 247.309 147.248C246.283 145.219 245.77 142.831 245.77 140.084C245.77 137.383 246.283 135.012 247.309 132.972C248.346 130.92 249.794 129.324 251.651 128.185C253.509 127.033 255.692 126.458 258.2 126.458C259.818 126.458 261.346 126.72 262.782 127.244C264.229 127.757 265.506 128.555 266.612 129.638C267.729 130.721 268.606 132.1 269.245 133.775C269.883 135.439 270.202 137.423 270.202 139.725V141.623H248.677V137.451H264.269C264.258 136.266 264.001 135.212 263.5 134.288C262.998 133.354 262.297 132.618 261.397 132.083C260.508 131.547 259.471 131.279 258.285 131.279C257.02 131.279 255.909 131.587 254.951 132.202C253.994 132.806 253.247 133.604 252.711 134.596C252.187 135.576 251.919 136.653 251.908 137.827V141.469C251.908 142.997 252.187 144.307 252.746 145.402C253.304 146.484 254.085 147.316 255.088 147.898C256.091 148.468 257.265 148.753 258.61 148.753C259.511 148.753 260.326 148.627 261.055 148.376C261.784 148.114 262.417 147.732 262.953 147.231C263.489 146.729 263.893 146.108 264.167 145.367L269.946 146.017C269.581 147.544 268.886 148.878 267.86 150.018C266.845 151.146 265.546 152.024 263.962 152.651C262.377 153.266 260.565 153.574 258.525 153.574Z" fill="white"/>
<path d="M38.0586 221.086V184.976H47.428V189.558H47.6331C47.9751 188.669 48.4766 187.854 49.1377 187.113C49.7988 186.361 50.6195 185.763 51.5997 185.318C52.58 184.862 53.7198 184.634 55.0192 184.634C56.7517 184.634 58.3988 185.096 59.9603 186.019C61.5333 186.942 62.8099 188.396 63.7901 190.379C64.7818 192.362 65.2776 194.938 65.2776 198.107C65.2776 201.139 64.8046 203.652 63.8585 205.647C62.9239 207.642 61.6701 209.129 60.0971 210.109C58.5355 211.09 56.8201 211.58 54.9508 211.58C53.7198 211.58 52.6199 211.38 51.651 210.981C50.6936 210.571 49.8729 210.018 49.189 209.323C48.5165 208.616 47.9979 207.818 47.6331 206.929H47.4964V221.086H38.0586ZM47.2912 198.107C47.2912 199.384 47.4565 200.489 47.787 201.424C48.129 202.347 48.6077 203.065 49.2232 203.578C49.8501 204.08 50.5967 204.33 51.4629 204.33C52.3292 204.33 53.0644 204.085 53.6685 203.595C54.284 203.094 54.7513 202.381 55.0705 201.458C55.401 200.523 55.5663 199.406 55.5663 198.107C55.5663 196.808 55.401 195.696 55.0705 194.773C54.7513 193.838 54.284 193.126 53.6685 192.636C53.0644 192.134 52.3292 191.884 51.4629 191.884C50.5967 191.884 49.8501 192.134 49.2232 192.636C48.6077 193.126 48.129 193.838 47.787 194.773C47.4565 195.696 47.2912 196.808 47.2912 198.107ZM81.8834 211.716C79.0338 211.716 76.5946 211.152 74.5657 210.024C72.5368 208.884 70.981 207.3 69.8982 205.271C68.8153 203.23 68.2739 200.865 68.2739 198.175C68.2739 195.485 68.8153 193.126 69.8982 191.097C70.981 189.057 72.5368 187.472 74.5657 186.344C76.5946 185.204 79.0338 184.634 81.8834 184.634C84.733 184.634 87.1722 185.204 89.2011 186.344C91.2299 187.472 92.7858 189.057 93.8686 191.097C94.9515 193.126 95.4929 195.485 95.4929 198.175C95.4929 200.865 94.9515 203.23 93.8686 205.271C92.7858 207.3 91.2299 208.884 89.2011 210.024C87.1722 211.152 84.733 211.716 81.8834 211.716ZM81.9518 204.741C82.7497 204.741 83.4393 204.473 84.0206 203.937C84.6019 203.401 85.0521 202.638 85.3713 201.646C85.6904 200.654 85.85 199.475 85.85 198.107C85.85 196.728 85.6904 195.548 85.3713 194.568C85.0521 193.576 84.6019 192.812 84.0206 192.277C83.4393 191.741 82.7497 191.473 81.9518 191.473C81.1083 191.473 80.3845 191.741 79.7804 192.277C79.1763 192.812 78.7147 193.576 78.3955 194.568C78.0764 195.548 77.9168 196.728 77.9168 198.107C77.9168 199.475 78.0764 200.654 78.3955 201.646C78.7147 202.638 79.1763 203.401 79.7804 203.937C80.3845 204.473 81.1083 204.741 81.9518 204.741ZM103.503 211.238L96.9376 184.976H106.375L109.384 200.979H109.59L112.941 184.976H122.105L125.593 200.843H125.798L128.67 184.976H138.108L131.543 211.238H121.353L117.66 197.149H117.386L113.693 211.238H103.503ZM153.094 211.716C150.29 211.716 147.873 211.181 145.845 210.109C143.827 209.026 142.271 207.476 141.177 205.459C140.094 203.43 139.553 201.002 139.553 198.175C139.553 195.463 140.1 193.092 141.194 191.063C142.288 189.034 143.833 187.455 145.827 186.327C147.822 185.198 150.176 184.634 152.889 184.634C154.872 184.634 156.667 184.942 158.274 185.557C159.881 186.173 161.255 187.068 162.395 188.242C163.535 189.404 164.412 190.818 165.028 192.482C165.643 194.146 165.951 196.021 165.951 198.107V200.295H142.493V195.098H157.266C157.254 194.346 157.06 193.684 156.684 193.115C156.32 192.533 155.824 192.083 155.197 191.764C154.581 191.433 153.88 191.268 153.094 191.268C152.33 191.268 151.629 191.433 150.991 191.764C150.353 192.083 149.84 192.528 149.452 193.097C149.076 193.667 148.876 194.334 148.854 195.098V200.706C148.854 201.549 149.03 202.301 149.384 202.963C149.737 203.624 150.244 204.142 150.905 204.518C151.566 204.895 152.364 205.083 153.299 205.083C153.949 205.083 154.541 204.991 155.077 204.809C155.624 204.627 156.092 204.365 156.479 204.023C156.867 203.669 157.152 203.248 157.334 202.757H165.951C165.655 204.581 164.954 206.165 163.848 207.51C162.742 208.844 161.278 209.881 159.454 210.622C157.642 211.352 155.522 211.716 153.094 211.716ZM169.802 211.238V184.976H178.966V189.969H179.24C179.719 188.122 180.477 186.771 181.514 185.917C182.563 185.062 183.788 184.634 185.19 184.634C185.6 184.634 186.005 184.668 186.404 184.737C186.814 184.794 187.207 184.879 187.583 184.993V193.046C187.116 192.887 186.541 192.767 185.857 192.687C185.173 192.607 184.586 192.567 184.096 192.567C183.172 192.567 182.34 192.778 181.599 193.2C180.87 193.61 180.294 194.192 179.873 194.944C179.451 195.685 179.24 196.557 179.24 197.56V211.238H169.802ZM212.922 211.716C210.072 211.716 207.633 211.152 205.604 210.024C203.575 208.884 202.019 207.3 200.936 205.271C199.854 203.23 199.312 200.865 199.312 198.175C199.312 195.485 199.854 193.126 200.936 191.097C202.019 189.057 203.575 187.472 205.604 186.344C207.633 185.204 210.072 184.634 212.922 184.634C215.771 184.634 218.21 185.204 220.239 186.344C222.268 187.472 223.824 189.057 224.907 191.097C225.99 193.126 226.531 195.485 226.531 198.175C226.531 200.865 225.99 203.23 224.907 205.271C223.824 207.3 222.268 208.884 220.239 210.024C218.21 211.152 215.771 211.716 212.922 211.716ZM212.99 204.741C213.788 204.741 214.478 204.473 215.059 203.937C215.64 203.401 216.09 202.638 216.41 201.646C216.729 200.654 216.888 199.475 216.888 198.107C216.888 196.728 216.729 195.548 216.41 194.568C216.09 193.576 215.64 192.812 215.059 192.277C214.478 191.741 213.788 191.473 212.99 191.473C212.147 191.473 211.423 191.741 210.819 192.277C210.215 192.812 209.753 193.576 209.434 194.568C209.115 195.548 208.955 196.728 208.955 198.107C208.955 199.475 209.115 200.654 209.434 201.646C209.753 202.638 210.215 203.401 210.819 203.937C211.423 204.473 212.147 204.741 212.99 204.741ZM246.091 184.976V191.815H228.514V184.976H246.091ZM231.866 211.238V184.224C231.866 182.058 232.253 180.263 233.028 178.838C233.803 177.413 234.897 176.348 236.311 175.641C237.724 174.934 239.388 174.581 241.303 174.581C242.5 174.581 243.663 174.672 244.791 174.855C245.931 175.037 246.774 175.197 247.322 175.333L245.954 182.104C245.612 182.001 245.213 181.921 244.757 181.864C244.301 181.796 243.902 181.762 243.56 181.762C242.671 181.762 242.073 181.95 241.765 182.326C241.457 182.702 241.303 183.198 241.303 183.814V211.238H231.866ZM7.66169 269.414V243.153H16.6207V248.145H16.8943C17.4414 246.504 18.376 245.204 19.6982 244.247C21.0204 243.29 22.5934 242.811 24.4171 242.811C26.2636 242.811 27.8537 243.301 29.1872 244.281C30.5208 245.25 31.3244 246.538 31.598 248.145H31.8715C32.3161 246.538 33.2621 245.25 34.7097 244.281C36.1573 243.301 37.8556 242.811 39.8047 242.811C42.3237 242.811 44.364 243.62 45.9255 245.239C47.4985 246.857 48.285 249.011 48.285 251.701V269.414H38.8472V254.095C38.8472 252.944 38.5566 252.043 37.9753 251.394C37.394 250.733 36.6132 250.402 35.6329 250.402C34.6641 250.402 33.8947 250.733 33.3248 251.394C32.7663 252.043 32.487 252.944 32.487 254.095V269.414H23.4596V254.095C23.4596 252.944 23.169 252.043 22.5877 251.394C22.0064 250.733 21.2256 250.402 20.2453 250.402C19.5956 250.402 19.0371 250.55 18.5698 250.847C18.1025 251.143 17.7377 251.57 17.4756 252.129C17.2248 252.676 17.0994 253.331 17.0994 254.095V269.414H7.66169ZM65.5918 269.893C62.7422 269.893 60.303 269.329 58.2741 268.2C56.2452 267.061 54.6894 265.476 53.6065 263.447C52.5237 261.407 51.9823 259.042 51.9823 256.352C51.9823 253.662 52.5237 251.302 53.6065 249.274C54.6894 247.233 56.2452 245.649 58.2741 244.521C60.303 243.381 62.7422 242.811 65.5918 242.811C68.4413 242.811 70.8805 243.381 72.9094 244.521C74.9383 245.649 76.4942 247.233 77.577 249.274C78.6598 251.302 79.2013 253.662 79.2013 256.352C79.2013 259.042 78.6598 261.407 77.577 263.447C76.4942 265.476 74.9383 267.061 72.9094 268.2C70.8805 269.329 68.4413 269.893 65.5918 269.893ZM65.6602 262.917C66.458 262.917 67.1476 262.649 67.7289 262.114C68.3102 261.578 68.7605 260.814 69.0796 259.823C69.3988 258.831 69.5583 257.651 69.5583 256.284C69.5583 254.904 69.3988 253.725 69.0796 252.744C68.7605 251.753 68.3102 250.989 67.7289 250.453C67.1476 249.918 66.458 249.65 65.6602 249.65C64.8167 249.65 64.0929 249.918 63.4888 250.453C62.8847 250.989 62.4231 251.753 62.1039 252.744C61.7848 253.725 61.6252 254.904 61.6252 256.284C61.6252 257.651 61.7848 258.831 62.1039 259.823C62.4231 260.814 62.8847 261.578 63.4888 262.114C64.0929 262.649 64.8167 262.917 65.6602 262.917ZM108.698 243.153L99.8762 269.414H88.9339L80.1117 243.153H90.0281L94.2683 260.524H94.5418L98.782 243.153H108.698ZM123.167 269.893C120.363 269.893 117.947 269.357 115.918 268.286C113.9 267.203 112.344 265.653 111.25 263.635C110.167 261.606 109.626 259.179 109.626 256.352C109.626 253.639 110.173 251.268 111.267 249.239C112.362 247.211 113.906 245.632 115.901 244.503C117.895 243.375 120.249 242.811 122.962 242.811C124.945 242.811 126.74 243.119 128.348 243.734C129.955 244.35 131.328 245.244 132.468 246.418C133.608 247.581 134.486 248.994 135.101 250.658C135.717 252.323 136.024 254.198 136.024 256.284V258.472H112.567V253.274H127.339C127.327 252.522 127.134 251.861 126.758 251.291C126.393 250.71 125.897 250.26 125.27 249.94C124.655 249.61 123.954 249.445 123.167 249.445C122.403 249.445 121.702 249.61 121.064 249.94C120.426 250.26 119.913 250.704 119.525 251.274C119.149 251.844 118.95 252.511 118.927 253.274V258.882C118.927 259.726 119.104 260.478 119.457 261.139C119.81 261.8 120.318 262.319 120.979 262.695C121.64 263.071 122.438 263.259 123.372 263.259C124.022 263.259 124.615 263.168 125.15 262.986C125.697 262.803 126.165 262.541 126.552 262.199C126.94 261.846 127.225 261.424 127.407 260.934H136.024C135.728 262.758 135.027 264.342 133.921 265.687C132.816 267.021 131.351 268.058 129.527 268.799C127.715 269.528 125.595 269.893 123.167 269.893ZM139.875 269.414V243.153H148.834V248.145H149.108C149.655 246.504 150.59 245.204 151.912 244.247C153.234 243.29 154.807 242.811 156.631 242.811C158.477 242.811 160.067 243.301 161.401 244.281C162.735 245.25 163.538 246.538 163.812 248.145H164.085C164.53 246.538 165.476 245.25 166.923 244.281C168.371 243.301 170.069 242.811 172.018 242.811C174.537 242.811 176.578 243.62 178.139 245.239C179.712 246.857 180.499 249.011 180.499 251.701V269.414H171.061V254.095C171.061 252.944 170.77 252.043 170.189 251.394C169.608 250.733 168.827 250.402 167.847 250.402C166.878 250.402 166.108 250.733 165.539 251.394C164.98 252.043 164.701 252.944 164.701 254.095V269.414H155.673V254.095C155.673 252.944 155.383 252.043 154.801 251.394C154.22 250.733 153.439 250.402 152.459 250.402C151.809 250.402 151.251 250.55 150.784 250.847C150.316 251.143 149.951 251.57 149.689 252.129C149.439 252.676 149.313 253.331 149.313 254.095V269.414H139.875ZM197.737 269.893C194.933 269.893 192.517 269.357 190.488 268.286C188.47 267.203 186.915 265.653 185.82 263.635C184.737 261.606 184.196 259.179 184.196 256.352C184.196 253.639 184.743 251.268 185.837 249.239C186.932 247.211 188.476 245.632 190.471 244.503C192.465 243.375 194.819 242.811 197.532 242.811C199.515 242.811 201.31 243.119 202.918 243.734C204.525 244.35 205.898 245.244 207.038 246.418C208.178 247.581 209.056 248.994 209.671 250.658C210.287 252.323 210.594 254.198 210.594 256.284V258.472H187.137V253.274H201.909C201.897 252.522 201.704 251.861 201.328 251.291C200.963 250.71 200.467 250.26 199.84 249.94C199.225 249.61 198.524 249.445 197.737 249.445C196.973 249.445 196.272 249.61 195.634 249.94C194.996 250.26 194.483 250.704 194.095 251.274C193.719 251.844 193.52 252.511 193.497 253.274V258.882C193.497 259.726 193.674 260.478 194.027 261.139C194.38 261.8 194.888 262.319 195.549 262.695C196.21 263.071 197.008 263.259 197.942 263.259C198.592 263.259 199.185 263.168 199.72 262.986C200.268 262.803 200.735 262.541 201.122 262.199C201.51 261.846 201.795 261.424 201.977 260.934H210.594C210.298 262.758 209.597 264.342 208.491 265.687C207.386 267.021 205.921 268.058 204.097 268.799C202.285 269.528 200.165 269.893 197.737 269.893ZM223.883 254.642V269.414H214.446V243.153H223.405V248.145H223.678C224.248 246.481 225.251 245.176 226.687 244.23C228.135 243.284 229.822 242.811 231.748 242.811C233.606 242.811 235.219 243.238 236.587 244.093C237.966 244.937 239.031 246.099 239.784 247.581C240.547 249.063 240.924 250.755 240.912 252.659V269.414H231.474V254.642C231.486 253.343 231.155 252.323 230.483 251.582C229.822 250.841 228.898 250.47 227.713 250.47C226.938 250.47 226.26 250.641 225.678 250.983C225.109 251.314 224.67 251.793 224.362 252.42C224.054 253.035 223.895 253.776 223.883 254.642ZM261.232 243.153V249.992H243.93V243.153H261.232ZM247.281 236.861H256.719V260.968C256.719 261.333 256.781 261.641 256.907 261.891C257.032 262.131 257.226 262.313 257.488 262.439C257.75 262.553 258.086 262.61 258.497 262.61C258.782 262.61 259.112 262.575 259.488 262.507C259.876 262.439 260.161 262.382 260.343 262.336L261.711 268.97C261.289 269.095 260.685 269.249 259.899 269.431C259.124 269.614 258.2 269.733 257.129 269.79C254.963 269.904 253.145 269.682 251.675 269.124C250.205 268.554 249.099 267.659 248.358 266.439C247.617 265.22 247.258 263.692 247.281 261.857V236.861ZM270.213 269.961C268.891 269.961 267.756 269.5 266.81 268.576C265.876 267.642 265.414 266.508 265.426 265.174C265.414 263.875 265.876 262.763 266.81 261.84C267.756 260.917 268.891 260.455 270.213 260.455C271.467 260.455 272.572 260.917 273.53 261.84C274.499 262.763 274.989 263.875 275 265.174C274.989 266.063 274.755 266.872 274.299 267.602C273.855 268.32 273.273 268.896 272.555 269.329C271.837 269.751 271.056 269.961 270.213 269.961Z" fill="url(#paint0_linear_95_53)"/>
<defs>
<linearGradient id="paint0_linear_95_53" x1="-31.0218" y1="81.3435" x2="314.025" y2="81.3435" gradientUnits="userSpaceOnUse">
<stop stop-color="#09D8FD"/>
<stop offset="0.5" stop-color="#38B15C"/>
<stop offset="0.75" stop-color="#768C4F"/>
<stop offset="1" stop-color="#FFCC00"/>
</linearGradient>
</defs>
</svg>
