<svg width="332" height="31" viewBox="0 0 332 31" fill="none" xmlns="http://www.w3.org/2000/svg">
<path d="M1.12347e-05 23.333V-2.29475e-05H5.63958V18.753H15.3465V23.333H1.12347e-05ZM26.4462 23.6634C24.6157 23.6634 23.0359 23.3026 21.7067 22.5811C20.3851 21.8519 19.3673 20.8151 18.6533 19.4707C17.947 18.1188 17.5938 16.5123 17.5938 14.6515C17.5938 12.8438 17.9508 11.2639 18.6647 9.91195C19.3787 8.55238 20.3851 7.49662 21.6839 6.74468C22.9827 5.98514 24.5132 5.60537 26.2753 5.60537C27.5209 5.60537 28.6602 5.79905 29.6932 6.18642C30.7262 6.57378 31.6186 7.14723 32.3706 7.90677C33.1225 8.66631 33.7074 9.60434 34.1251 10.7209C34.5429 11.8298 34.7517 13.102 34.7517 14.5375V15.9275H19.542V12.6919H29.5679C29.5603 12.0994 29.4198 11.5715 29.1464 11.1082C28.8729 10.6449 28.4969 10.2841 28.0184 10.0259C27.5475 9.76005 27.0045 9.62713 26.3892 9.62713C25.7664 9.62713 25.2081 9.76764 24.7144 10.0487C24.2207 10.3221 23.8296 10.6981 23.541 11.1766C23.2523 11.6475 23.1004 12.183 23.0852 12.783V16.0756C23.0852 16.7896 23.2257 17.4162 23.5068 17.9555C23.7878 18.4871 24.1866 18.9011 24.703 19.1973C25.2195 19.4935 25.8348 19.6416 26.5487 19.6416C27.0424 19.6416 27.4906 19.5733 27.8931 19.4366C28.2957 19.2998 28.6413 19.0986 28.9299 18.8327C29.2185 18.5669 29.435 18.2403 29.5793 17.8529L34.6948 18.001C34.4821 19.1479 34.015 20.1467 33.2934 20.9974C32.5795 21.8405 31.6414 22.4975 30.4793 22.9684C29.3172 23.4317 27.9729 23.6634 26.4462 23.6634ZM47.475 5.83323V9.93474H36.4351V5.83323H47.475ZM38.7479 1.64058H44.3191V17.8301C44.3191 18.1719 44.3722 18.4492 44.4786 18.6618C44.5925 18.8669 44.7558 19.015 44.9685 19.1062C45.1812 19.1897 45.4356 19.2315 45.7318 19.2315C45.9445 19.2315 46.1686 19.2125 46.404 19.1745C46.6471 19.129 46.8294 19.091 46.9509 19.0606L47.794 23.0824C47.5281 23.1583 47.1522 23.2532 46.6661 23.3672C46.1875 23.4811 45.6141 23.5533 44.9457 23.5836C43.6393 23.6444 42.519 23.4925 41.5847 23.1279C40.6581 22.7557 39.9479 22.1785 39.4542 21.3962C38.9681 20.6139 38.7327 19.6302 38.7479 18.4454V1.64058ZM55.6751 -2.29475e-05V2.5976C55.6751 3.31916 55.5308 4.04832 55.2422 4.78507C54.9612 5.51423 54.5928 6.19781 54.1371 6.83582C53.6813 7.47384 53.199 8.01311 52.6901 8.45364L50.3204 7.15483C50.6698 6.57758 50.9812 5.92818 51.2546 5.20661C51.528 4.47746 51.6648 3.61158 51.6648 2.60899V-2.29475e-05H55.6751ZM71.9872 11.1766L66.8717 11.3133C66.8185 10.9487 66.6742 10.6259 66.4387 10.3449C66.2033 10.0563 65.8957 9.8322 65.5159 9.6727C65.1437 9.5056 64.7108 9.42205 64.2171 9.42205C63.5715 9.42205 63.0208 9.55117 62.5651 9.80942C62.117 10.0677 61.8967 10.417 61.9043 10.8576C61.8967 11.1994 62.0334 11.4956 62.3144 11.7462C62.6031 11.9969 63.1158 12.1982 63.8525 12.3501L67.2249 12.9881C68.9718 13.3223 70.2706 13.8767 71.1213 14.6515C71.9796 15.4262 72.4125 16.4516 72.4201 17.7276C72.4125 18.9277 72.0555 19.972 71.3492 20.8607C70.6504 21.7494 69.6934 22.4405 68.4781 22.9342C67.2628 23.4203 65.8729 23.6634 64.3082 23.6634C61.8094 23.6634 59.8383 23.1507 58.3952 22.1253C56.9597 21.0924 56.1394 19.71 55.9343 17.9783L61.4372 17.8415C61.5587 18.4795 61.8739 18.9657 62.3828 19.2998C62.8917 19.634 63.5411 19.8011 64.331 19.8011C65.045 19.8011 65.626 19.6682 66.0742 19.4024C66.5223 19.1365 66.7501 18.7834 66.7577 18.3428C66.7501 17.9479 66.5755 17.6327 66.2337 17.3972C65.8919 17.1542 65.3564 16.9643 64.6272 16.8276L61.5739 16.2465C59.8194 15.9275 58.513 15.3389 57.6547 14.4806C56.7964 13.6147 56.3711 12.5134 56.3787 11.1766C56.3711 10.0069 56.6825 9.0081 57.3129 8.18021C57.9433 7.34471 58.8396 6.7067 60.0017 6.26617C61.1637 5.82564 62.5347 5.60537 64.1146 5.60537C66.4843 5.60537 68.3528 6.10287 69.7199 7.09786C71.0871 8.08526 71.8429 9.44484 71.9872 11.1766Z" fill="white"/>
<path d="M88.9486 -2.29475e-05H95.9326L101.857 14.4464H102.13L108.055 -2.29475e-05H115.039V23.333H109.547V9.00051H109.354L103.748 23.1849H100.239L94.6338 8.92076H94.4401V23.333H88.9486V-2.29475e-05ZM126.725 23.6634C124.887 23.6634 123.307 23.2874 121.986 22.5355C120.672 21.7759 119.658 20.7202 118.944 19.3682C118.237 18.0086 117.884 16.4326 117.884 14.6401C117.884 12.84 118.237 11.2639 118.944 9.91195C119.658 8.55238 120.672 7.49662 121.986 6.74468C123.307 5.98514 124.887 5.60537 126.725 5.60537C128.563 5.60537 130.139 5.98514 131.453 6.74468C132.775 7.49662 133.789 8.55238 134.495 9.91195C135.209 11.2639 135.566 12.84 135.566 14.6401C135.566 16.4326 135.209 18.0086 134.495 19.3682C133.789 20.7202 132.775 21.7759 131.453 22.5355C130.139 23.2874 128.563 23.6634 126.725 23.6634ZM126.759 19.4594C127.428 19.4594 127.994 19.2543 128.457 18.8441C128.92 18.434 129.273 17.8643 129.517 17.1352C129.767 16.406 129.892 15.5629 129.892 14.6059C129.892 13.6337 129.767 12.783 129.517 12.0539C129.273 11.3247 128.92 10.755 128.457 10.3449C127.994 9.93474 127.428 9.72967 126.759 9.72967C126.068 9.72967 125.483 9.93474 125.005 10.3449C124.534 10.755 124.173 11.3247 123.923 12.0539C123.679 12.783 123.558 13.6337 123.558 14.6059C123.558 15.5629 123.679 16.406 123.923 17.1352C124.173 17.8643 124.534 18.434 125.005 18.8441C125.483 19.2543 126.068 19.4594 126.759 19.4594ZM154.832 5.83323L148.828 23.333H142.448L136.455 5.83323H142.322L145.547 17.8871H145.729L148.964 5.83323H154.832ZM164.584 23.6634C162.754 23.6634 161.174 23.3026 159.845 22.5811C158.523 21.8519 157.506 20.8151 156.792 19.4707C156.085 18.1188 155.732 16.5123 155.732 14.6515C155.732 12.8438 156.089 11.2639 156.803 9.91195C157.517 8.55238 158.523 7.49662 159.822 6.74468C161.121 5.98514 162.651 5.60537 164.414 5.60537C165.659 5.60537 166.798 5.79905 167.831 6.18642C168.864 6.57378 169.757 7.14723 170.509 7.90677C171.261 8.66631 171.846 9.60434 172.263 10.7209C172.681 11.8298 172.89 13.102 172.89 14.5375V15.9275H157.68V12.6919H167.706C167.699 12.0994 167.558 11.5715 167.285 11.1082C167.011 10.6449 166.635 10.2841 166.157 10.0259C165.686 9.76005 165.143 9.62713 164.527 9.62713C163.905 9.62713 163.346 9.76764 162.853 10.0487C162.359 10.3221 161.968 10.6981 161.679 11.1766C161.391 11.6475 161.239 12.183 161.223 12.783V16.0756C161.223 16.7896 161.364 17.4162 161.645 17.9555C161.926 18.4871 162.325 18.9011 162.841 19.1973C163.358 19.4935 163.973 19.6416 164.687 19.6416C165.181 19.6416 165.629 19.5733 166.031 19.4366C166.434 19.2998 166.779 19.0986 167.068 18.8327C167.357 18.5669 167.573 18.2403 167.717 17.8529L172.833 18.001C172.62 19.1479 172.153 20.1467 171.432 20.9974C170.718 21.8405 169.78 22.4975 168.618 22.9684C167.455 23.4317 166.111 23.6634 164.584 23.6634ZM329.038 23.6634C328.217 23.6634 327.515 23.3748 326.93 22.7975C326.353 22.2203 326.068 21.5215 326.076 20.7012C326.068 19.8961 326.353 19.2087 326.93 18.6391C327.515 18.0618 328.217 17.7732 329.038 17.7732C329.812 17.7732 330.496 18.0618 331.089 18.6391C331.689 19.2087 331.992 19.8961 332 20.7012C331.992 21.2481 331.848 21.7456 331.567 22.1937C331.294 22.6418 330.933 22.9988 330.485 23.2646C330.044 23.5305 329.562 23.6634 329.038 23.6634Z" fill="url(#paint0_linear_110_188)"/>
<path d="M181.865 4.57999V-2.29475e-05H201.586V4.57999H194.511V23.333H188.951V4.57999H181.865ZM209.972 23.6634C208.133 23.6634 206.554 23.2874 205.232 22.5355C203.918 21.7759 202.904 20.7202 202.19 19.3682C201.484 18.0086 201.131 16.4326 201.131 14.6401C201.131 12.84 201.484 11.2639 202.19 9.91195C202.904 8.55238 203.918 7.49662 205.232 6.74468C206.554 5.98514 208.133 5.60537 209.972 5.60537C211.81 5.60537 213.386 5.98514 214.7 6.74468C216.021 7.49662 217.035 8.55238 217.742 9.91195C218.456 11.2639 218.813 12.84 218.813 14.6401C218.813 16.4326 218.456 18.0086 217.742 19.3682C217.035 20.7202 216.021 21.7759 214.7 22.5355C213.386 23.2874 211.81 23.6634 209.972 23.6634ZM210.006 19.4594C210.674 19.4594 211.24 19.2543 211.703 18.8441C212.167 18.434 212.52 17.8643 212.763 17.1352C213.014 16.406 213.139 15.5629 213.139 14.6059C213.139 13.6337 213.014 12.783 212.763 12.0539C212.52 11.3247 212.167 10.755 211.703 10.3449C211.24 9.93474 210.674 9.72967 210.006 9.72967C209.315 9.72967 208.73 9.93474 208.251 10.3449C207.78 10.755 207.42 11.3247 207.169 12.0539C206.926 12.783 206.804 13.6337 206.804 14.6059C206.804 15.5629 206.926 16.406 207.169 17.1352C207.42 17.8643 207.78 18.434 208.251 18.8441C208.73 19.2543 209.315 19.4594 210.006 19.4594ZM229.824 30.26C228.161 30.26 226.736 30.0283 225.552 29.565C224.367 29.1017 223.436 28.4675 222.76 27.6624C222.084 26.8573 221.678 25.9458 221.541 24.928L226.816 24.6318C226.915 24.9888 227.097 25.3002 227.363 25.566C227.637 25.8319 227.99 26.037 228.423 26.1813C228.863 26.3256 229.38 26.3977 229.972 26.3977C230.906 26.3977 231.677 26.1699 232.285 25.7142C232.9 25.266 233.208 24.4799 233.208 23.3558V20.2797H233.014C232.794 20.8189 232.46 21.3012 232.011 21.7266C231.563 22.1519 231.005 22.4861 230.337 22.7292C229.676 22.9722 228.916 23.0937 228.058 23.0937C226.782 23.0937 225.612 22.7975 224.549 22.2051C223.493 21.605 222.646 20.6784 222.008 19.4252C221.378 18.1643 221.063 16.5427 221.063 14.5603C221.063 12.5172 221.389 10.8348 222.043 9.5132C222.696 8.184 223.55 7.2004 224.606 6.56239C225.669 5.92438 226.812 5.60537 228.035 5.60537C228.954 5.60537 229.74 5.76487 230.394 6.08388C231.054 6.39529 231.598 6.79785 232.023 7.29155C232.448 7.78525 232.771 8.29793 232.991 8.82961H233.151V5.83323H238.699V23.4014C238.699 24.8825 238.327 26.1319 237.583 27.1497C236.838 28.1675 235.798 28.9384 234.461 29.4625C233.124 29.9942 231.579 30.26 229.824 30.26ZM229.995 19.0378C230.671 19.0378 231.248 18.8593 231.727 18.5023C232.205 18.1454 232.574 17.6327 232.832 16.9643C233.09 16.2959 233.219 15.4946 233.219 14.5603C233.219 13.6109 233.09 12.7944 232.832 12.1108C232.581 11.4196 232.213 10.888 231.727 10.5158C231.248 10.1436 230.671 9.95753 229.995 9.95753C229.304 9.95753 228.719 10.1474 228.24 10.5272C227.762 10.9069 227.397 11.4424 227.147 12.1336C226.904 12.8172 226.782 13.6261 226.782 14.5603C226.782 15.4946 226.907 16.2959 227.158 16.9643C227.409 17.6327 227.769 18.1454 228.24 18.5023C228.719 18.8593 229.304 19.0378 229.995 19.0378ZM250.431 23.6634C248.601 23.6634 247.021 23.3026 245.692 22.5811C244.37 21.8519 243.352 20.8151 242.638 19.4707C241.932 18.1188 241.579 16.5123 241.579 14.6515C241.579 12.8438 241.936 11.2639 242.65 9.91195C243.364 8.55238 244.37 7.49662 245.669 6.74468C246.968 5.98514 248.498 5.60537 250.26 5.60537C251.506 5.60537 252.645 5.79905 253.678 6.18642C254.711 6.57378 255.604 7.14723 256.356 7.90677C257.108 8.66631 257.692 9.60434 258.11 10.7209C258.528 11.8298 258.737 13.102 258.737 14.5375V15.9275H243.527V12.6919H253.553C253.545 12.0994 253.405 11.5715 253.131 11.1082C252.858 10.6449 252.482 10.2841 252.003 10.0259C251.533 9.76005 250.989 9.62713 250.374 9.62713C249.751 9.62713 249.193 9.76764 248.699 10.0487C248.206 10.3221 247.815 10.6981 247.526 11.1766C247.237 11.6475 247.085 12.183 247.07 12.783V16.0756C247.07 16.7896 247.211 17.4162 247.492 17.9555C247.773 18.4871 248.172 18.9011 248.688 19.1973C249.205 19.4935 249.82 19.6416 250.534 19.6416C251.027 19.6416 251.476 19.5733 251.878 19.4366C252.281 19.2998 252.626 19.0986 252.915 18.8327C253.204 18.5669 253.42 18.2403 253.564 17.8529L258.68 18.001C258.467 19.1479 258 20.1467 257.278 20.9974C256.565 21.8405 255.626 22.4975 254.464 22.9684C253.302 23.4317 251.958 23.6634 250.431 23.6634ZM271.46 5.83323V9.93474H260.42V5.83323H271.46ZM262.733 1.64058H268.304V17.8301C268.304 18.1719 268.357 18.4492 268.464 18.6618C268.578 18.8669 268.741 19.015 268.954 19.1062C269.166 19.1897 269.421 19.2315 269.717 19.2315C269.93 19.2315 270.154 19.2125 270.389 19.1745C270.632 19.129 270.814 19.091 270.936 19.0606L271.779 23.0824C271.513 23.1583 271.137 23.2532 270.651 23.3672C270.173 23.4811 269.599 23.5533 268.931 23.5836C267.624 23.6444 266.504 23.4925 265.57 23.1279C264.643 22.7557 263.933 22.1785 263.439 21.3962C262.953 20.6139 262.718 19.6302 262.733 18.4454V1.64058ZM280.25 13.3527V23.333H274.679V-2.29475e-05H280.067V9.04608H280.261C280.656 7.96754 281.302 7.12445 282.198 6.51682C283.102 5.90919 284.207 5.60537 285.513 5.60537C286.744 5.60537 287.815 5.87881 288.726 6.42567C289.638 6.96495 290.344 7.72828 290.845 8.71568C291.354 9.70308 291.605 10.8576 291.597 12.1792V23.333H286.026V13.2729C286.034 12.3007 285.791 11.5412 285.297 10.9943C284.803 10.4474 284.108 10.174 283.212 10.174C282.627 10.174 282.111 10.3031 281.663 10.5614C281.222 10.812 280.876 11.1728 280.626 11.6437C280.383 12.1146 280.257 12.6843 280.25 13.3527ZM303.255 23.6634C301.425 23.6634 299.845 23.3026 298.516 22.5811C297.194 21.8519 296.176 20.8151 295.462 19.4707C294.756 18.1188 294.403 16.5123 294.403 14.6515C294.403 12.8438 294.76 11.2639 295.474 9.91195C296.188 8.55238 297.194 7.49662 298.493 6.74468C299.792 5.98514 301.322 5.60537 303.084 5.60537C304.33 5.60537 305.469 5.79905 306.502 6.18642C307.535 6.57378 308.428 7.14723 309.18 7.90677C309.932 8.66631 310.516 9.60434 310.934 10.7209C311.352 11.8298 311.561 13.102 311.561 14.5375V15.9275H296.351V12.6919H306.377C306.369 12.0994 306.229 11.5715 305.955 11.1082C305.682 10.6449 305.306 10.2841 304.827 10.0259C304.357 9.76005 303.813 9.62713 303.198 9.62713C302.575 9.62713 302.017 9.76764 301.523 10.0487C301.03 10.3221 300.639 10.6981 300.35 11.1766C300.061 11.6475 299.909 12.183 299.894 12.783V16.0756C299.894 16.7896 300.035 17.4162 300.316 17.9555C300.597 18.4871 300.996 18.9011 301.512 19.1973C302.029 19.4935 302.644 19.6416 303.358 19.6416C303.851 19.6416 304.3 19.5733 304.702 19.4366C305.105 19.2998 305.45 19.0986 305.739 18.8327C306.028 18.5669 306.244 18.2403 306.388 17.8529L311.504 18.001C311.291 19.1479 310.824 20.1467 310.102 20.9974C309.389 21.8405 308.45 22.4975 307.288 22.9684C306.126 23.4317 304.782 23.6634 303.255 23.6634ZM314.406 23.333V5.83323H319.818V9.02329H320C320.319 7.8688 320.839 7.01052 321.561 6.44846C322.283 5.8788 323.122 5.59398 324.079 5.59398C324.337 5.59398 324.603 5.61297 324.876 5.65094C325.15 5.68132 325.404 5.73069 325.64 5.79905V10.6411C325.374 10.55 325.025 10.4778 324.592 10.4246C324.166 10.3715 323.787 10.3449 323.452 10.3449C322.792 10.3449 322.195 10.493 321.664 10.7892C321.14 11.0778 320.726 11.4842 320.422 12.0083C320.126 12.5248 319.977 13.1324 319.977 13.8312V23.333H314.406Z" fill="#F4F4F4"/>
<defs>
<linearGradient id="paint0_linear_110_188" x1="-1.76592" y1="11.8032" x2="334.102" y2="11.8032" gradientUnits="userSpaceOnUse">
<stop stop-color="#FFC000"/>
<stop offset="0.5" stop-color="#09D8FD"/>
<stop offset="0.75" stop-color="#38B15C"/>
<stop offset="0.875" stop-color="#84CC7F"/>
<stop offset="1" stop-color="#999999"/>
</linearGradient>
</defs>
</svg>
