<svg width="294" height="69" viewBox="0 0 294 69" fill="none" xmlns="http://www.w3.org/2000/svg">
<path d="M0.750664 -1.14539e-05H3.33242L6.78992 8.43903H6.9264L10.3839 -1.14539e-05H12.9657V11.6463H10.9412V3.64515H10.8332L7.61449 11.6122H6.10183L2.88317 3.62809H2.77512V11.6463H0.750664V-1.14539e-05ZM19.039 11.8169C18.1633 11.8169 17.407 11.6349 16.77 11.271C16.1369 10.9033 15.6498 10.3839 15.3086 9.71284C14.9674 9.03802 14.7968 8.24378 14.7968 7.33012C14.7968 6.43163 14.9674 5.64307 15.3086 4.96446C15.6536 4.28206 16.135 3.7513 16.753 3.37219C17.3709 2.98929 18.0969 2.79784 18.931 2.79784C19.4693 2.79784 19.9773 2.88503 20.455 3.05942C20.9365 3.23002 21.3611 3.4954 21.7288 3.85556C22.1004 4.21572 22.3923 4.67444 22.6046 5.23174C22.8169 5.78524 22.923 6.4449 22.923 7.2107V7.84192H15.7635V6.45437H20.9498C20.946 6.0601 20.8607 5.70942 20.6939 5.40234C20.527 5.09146 20.2939 4.84694 19.9944 4.66875C19.6987 4.49057 19.3537 4.40148 18.9594 4.40148C18.5386 4.40148 18.169 4.50384 17.8505 4.70856C17.5321 4.90949 17.2837 5.17487 17.1056 5.5047C16.9312 5.83073 16.8421 6.18899 16.8383 6.57948V7.79074C16.8383 8.29875 16.9312 8.73473 17.1169 9.09868C17.3027 9.45884 17.5624 9.73559 17.896 9.92894C18.2296 10.1185 18.6201 10.2133 19.0675 10.2133C19.367 10.2133 19.638 10.1716 19.8807 10.0882C20.1233 10.001 20.3337 9.87396 20.5119 9.70716C20.6901 9.54035 20.8247 9.33373 20.9156 9.08731L22.8377 9.3034C22.7164 9.81141 22.4852 10.255 22.144 10.6341C21.8066 11.0094 21.3744 11.3013 20.8474 11.5098C20.3204 11.7146 19.7176 11.8169 19.039 11.8169ZM28.5315 11.8169C27.6558 11.8169 26.8995 11.6349 26.2625 11.271C25.6294 10.9033 25.1423 10.3839 24.8011 9.71284C24.4599 9.03802 24.2893 8.24378 24.2893 7.33012C24.2893 6.43163 24.4599 5.64307 24.8011 4.96446C25.1461 4.28206 25.6275 3.7513 26.2455 3.37219C26.8634 2.98929 27.5894 2.79784 28.4235 2.79784C28.9618 2.79784 29.4698 2.88503 29.9475 3.05942C30.429 3.23002 30.8536 3.4954 31.2213 3.85556C31.5929 4.21572 31.8848 4.67444 32.0971 5.23174C32.3094 5.78524 32.4155 6.4449 32.4155 7.2107V7.84192H25.256V6.45437H30.4423C30.4385 6.0601 30.3532 5.70942 30.1864 5.40234C30.0195 5.09146 29.7864 4.84694 29.4869 4.66875C29.1912 4.49057 28.8462 4.40148 28.4519 4.40148C28.0311 4.40148 27.6615 4.50384 27.343 4.70856C27.0246 4.90949 26.7762 5.17487 26.5981 5.5047C26.4237 5.83073 26.3346 6.18899 26.3308 6.57948V7.79074C26.3308 8.29875 26.4237 8.73473 26.6094 9.09868C26.7952 9.45884 27.0549 9.73559 27.3885 9.92894C27.7221 10.1185 28.1126 10.2133 28.56 10.2133C28.8595 10.2133 29.1305 10.1716 29.3732 10.0882C29.6158 10.001 29.8262 9.87396 30.0044 9.70716C30.1826 9.54035 30.3171 9.33373 30.4081 9.08731L32.3302 9.3034C32.2089 9.81141 31.9777 10.255 31.6365 10.6341C31.299 11.0094 30.8669 11.3013 30.3399 11.5098C29.8129 11.7146 29.2101 11.8169 28.5315 11.8169ZM38.5188 2.91157V4.50384H33.4974V2.91157H38.5188ZM34.7371 0.818871H36.7957V9.01907C36.7957 9.29582 36.8374 9.50812 36.9208 9.65598C37.008 9.80004 37.1217 9.89861 37.262 9.95168C37.4023 10.0048 37.5577 10.0313 37.7283 10.0313C37.8572 10.0313 37.9747 10.0218 38.0809 10.0029C38.1908 9.98391 38.2742 9.96685 38.3311 9.95168L38.678 11.561C38.568 11.5989 38.4107 11.6406 38.206 11.6861C38.0051 11.7316 37.7586 11.7582 37.4667 11.7657C36.9511 11.7809 36.4867 11.7032 36.0735 11.5326C35.6603 11.3582 35.3323 11.089 35.0897 10.7251C34.8509 10.3611 34.7333 9.90619 34.7371 9.36027V0.818871ZM48.0226 11.8169C47.1696 11.8169 46.4304 11.6293 45.8048 11.2539C45.1793 10.8786 44.694 10.3535 44.349 9.67872C44.0078 9.0039 43.8372 8.21535 43.8372 7.31306C43.8372 6.41077 44.0078 5.62033 44.349 4.94172C44.694 4.2631 45.1793 3.73614 45.8048 3.36082C46.4304 2.9855 47.1696 2.79784 48.0226 2.79784C48.8756 2.79784 49.6149 2.9855 50.2404 3.36082C50.866 3.73614 51.3493 4.2631 51.6905 4.94172C52.0355 5.62033 52.208 6.41077 52.208 7.31306C52.208 8.21535 52.0355 9.0039 51.6905 9.67872C51.3493 10.3535 50.866 10.8786 50.2404 11.2539C49.6149 11.6293 48.8756 11.8169 48.0226 11.8169ZM48.034 10.1678C48.4965 10.1678 48.8832 10.0408 49.1941 9.78677C49.505 9.52897 49.7362 9.18398 49.8879 8.75179C50.0433 8.3196 50.121 7.83813 50.121 7.30738C50.121 6.77283 50.0433 6.28946 49.8879 5.85727C49.7362 5.42129 49.505 5.0744 49.1941 4.81661C48.8832 4.55881 48.4965 4.42991 48.034 4.42991C47.5601 4.42991 47.1658 4.55881 46.8512 4.81661C46.5403 5.0744 46.3071 5.42129 46.1517 5.85727C46.0001 6.28946 45.9242 6.77283 45.9242 7.30738C45.9242 7.83813 46.0001 8.3196 46.1517 8.75179C46.3071 9.18398 46.5403 9.52897 46.8512 9.78677C47.1658 10.0408 47.5601 10.1678 48.034 10.1678ZM59.5225 7.97272V2.91157H61.5811V11.6463H59.5851V10.0938H59.4941C59.297 10.5829 58.9728 10.9829 58.5217 11.2937C58.0743 11.6046 57.5227 11.76 56.8668 11.76C56.2944 11.76 55.7883 11.633 55.3485 11.379C54.9125 11.1212 54.5713 10.7478 54.3249 10.2588C54.0785 9.76592 53.9553 9.17071 53.9553 8.47315V2.91157H56.0138V8.15469C56.0138 8.70819 56.1655 9.14796 56.4688 9.474C56.7721 9.80004 57.1701 9.96306 57.663 9.96306C57.9663 9.96306 58.2601 9.88913 58.5444 9.74128C58.8287 9.59342 59.0619 9.37354 59.2439 9.08162C59.4296 8.78591 59.5225 8.41628 59.5225 7.97272ZM63.698 11.6463V2.91157H65.694V4.36736H65.785C65.9442 3.86314 66.2172 3.47455 66.6039 3.20159C66.9944 2.92484 67.4398 2.78646 67.9402 2.78646C68.054 2.78646 68.181 2.79215 68.3212 2.80352C68.4653 2.8111 68.5847 2.82437 68.6795 2.84333V4.73699C68.5923 4.70667 68.4539 4.68013 68.2644 4.65738C68.0786 4.63084 67.8985 4.61757 67.7241 4.61757C67.3488 4.61757 67.0114 4.69908 66.7119 4.8621C66.4162 5.02133 66.1831 5.24311 66.0125 5.52744C65.8418 5.81178 65.7565 6.13971 65.7565 6.51124V11.6463H63.698ZM118.843 11.6463L116.375 2.91157H118.474L120.009 9.05319H120.089L121.658 2.91157H123.734L125.303 9.01907H125.389L126.901 2.91157H129.005L126.532 11.6463H124.388L122.75 5.74354H122.63L120.993 11.6463H118.843ZM132.501 6.5283V11.6463H130.443V-1.14539e-05H132.456V4.39579H132.558C132.763 3.90295 133.079 3.51436 133.508 3.23002C133.94 2.9419 134.49 2.79784 135.157 2.79784C135.763 2.79784 136.292 2.92484 136.743 3.17884C137.195 3.43285 137.543 3.80438 137.79 4.29343C138.04 4.78249 138.165 5.37959 138.165 6.08474V11.6463H136.106V6.40319C136.106 5.81557 135.955 5.35874 135.652 5.0327C135.352 4.70287 134.931 4.53796 134.389 4.53796C134.025 4.53796 133.699 4.61757 133.411 4.7768C133.127 4.93224 132.903 5.15781 132.74 5.45352C132.581 5.74922 132.501 6.10749 132.501 6.5283ZM144.074 11.8169C143.221 11.8169 142.481 11.6293 141.856 11.2539C141.23 10.8786 140.745 10.3535 140.4 9.67872C140.059 9.0039 139.888 8.21535 139.888 7.31306C139.888 6.41077 140.059 5.62033 140.4 4.94172C140.745 4.2631 141.23 3.73614 141.856 3.36082C142.481 2.9855 143.221 2.79784 144.074 2.79784C144.927 2.79784 145.666 2.9855 146.291 3.36082C146.917 3.73614 147.4 4.2631 147.741 4.94172C148.086 5.62033 148.259 6.41077 148.259 7.31306C148.259 8.21535 148.086 9.0039 147.741 9.67872C147.4 10.3535 146.917 10.8786 146.291 11.2539C145.666 11.6293 144.927 11.8169 144.074 11.8169ZM144.085 10.1678C144.547 10.1678 144.934 10.0408 145.245 9.78677C145.556 9.52897 145.787 9.18398 145.939 8.75179C146.094 8.3196 146.172 7.83813 146.172 7.30738C146.172 6.77283 146.094 6.28946 145.939 5.85727C145.787 5.42129 145.556 5.0744 145.245 4.81661C144.934 4.55881 144.547 4.42991 144.085 4.42991C143.611 4.42991 143.217 4.55881 142.902 4.81661C142.591 5.0744 142.358 5.42129 142.203 5.85727C142.051 6.28946 141.975 6.77283 141.975 7.30738C141.975 7.83813 142.051 8.3196 142.203 8.75179C142.358 9.18398 142.591 9.52897 142.902 9.78677C143.217 10.0408 143.611 10.1678 144.085 10.1678ZM157.788 11.8169C156.916 11.8169 156.168 11.6255 155.542 11.2426C154.92 10.8597 154.441 10.3308 154.103 9.65598C153.77 8.97736 153.603 8.19639 153.603 7.31306C153.603 6.42594 153.774 5.64307 154.115 4.96446C154.456 4.28206 154.937 3.7513 155.559 3.37219C156.185 2.98929 156.924 2.79784 157.777 2.79784C158.486 2.79784 159.113 2.92863 159.659 3.19022C160.209 3.44801 160.647 3.81386 160.973 4.28775C161.299 4.75785 161.485 5.30756 161.53 5.93688H159.563C159.483 5.51607 159.293 5.16539 158.994 4.88485C158.698 4.60051 158.302 4.45835 157.805 4.45835C157.385 4.45835 157.015 4.57208 156.697 4.79955C156.378 5.02322 156.13 5.34547 155.952 5.76628C155.777 6.1871 155.69 6.69132 155.69 7.27894C155.69 7.87415 155.777 8.38595 155.952 8.81435C156.126 9.23895 156.371 9.56688 156.685 9.79814C157.004 10.0256 157.377 10.1393 157.805 10.1393C158.109 10.1393 158.38 10.0825 158.619 9.96874C158.861 9.85122 159.064 9.68251 159.227 9.46263C159.39 9.24274 159.502 8.97547 159.563 8.66081H161.53C161.481 9.27876 161.299 9.82658 160.984 10.3043C160.67 10.7781 160.241 11.1497 159.699 11.4188C159.157 11.6842 158.52 11.8169 157.788 11.8169ZM163.221 11.6463V2.91157H165.217V4.36736H165.308C165.467 3.86314 165.74 3.47455 166.126 3.20159C166.517 2.92484 166.962 2.78646 167.463 2.78646C167.577 2.78646 167.704 2.79215 167.844 2.80352C167.988 2.8111 168.107 2.82437 168.202 2.84333V4.73699C168.115 4.70667 167.977 4.68013 167.787 4.65738C167.601 4.63084 167.421 4.61757 167.247 4.61757C166.871 4.61757 166.534 4.69908 166.235 4.8621C165.939 5.02133 165.706 5.24311 165.535 5.52744C165.364 5.81178 165.279 6.13971 165.279 6.51124V11.6463H163.221ZM173.077 11.8169C172.201 11.8169 171.445 11.6349 170.808 11.271C170.175 10.9033 169.688 10.3839 169.347 9.71284C169.005 9.03802 168.835 8.24378 168.835 7.33012C168.835 6.43163 169.005 5.64307 169.347 4.96446C169.692 4.28206 170.173 3.7513 170.791 3.37219C171.409 2.98929 172.135 2.79784 172.969 2.79784C173.507 2.79784 174.015 2.88503 174.493 3.05942C174.974 3.23002 175.399 3.4954 175.767 3.85556C176.138 4.21572 176.43 4.67444 176.643 5.23174C176.855 5.78524 176.961 6.4449 176.961 7.2107V7.84192H169.802V6.45437H174.988C174.984 6.0601 174.899 5.70942 174.732 5.40234C174.565 5.09146 174.332 4.84694 174.032 4.66875C173.737 4.49057 173.392 4.40148 172.997 4.40148C172.577 4.40148 172.207 4.50384 171.889 4.70856C171.57 4.90949 171.322 5.17487 171.144 5.5047C170.969 5.83073 170.88 6.18899 170.876 6.57948V7.79074C170.876 8.29875 170.969 8.73473 171.155 9.09868C171.341 9.45884 171.6 9.73559 171.934 9.92894C172.268 10.1185 172.658 10.2133 173.105 10.2133C173.405 10.2133 173.676 10.1716 173.919 10.0882C174.161 10.001 174.372 9.87396 174.55 9.70716C174.728 9.54035 174.863 9.33373 174.954 9.08731L176.876 9.3034C176.754 9.81141 176.523 10.255 176.182 10.6341C175.845 11.0094 175.412 11.3013 174.885 11.5098C174.358 11.7146 173.756 11.8169 173.077 11.8169ZM181.216 11.8226C180.663 11.8226 180.164 11.724 179.721 11.5269C179.281 11.326 178.932 11.0303 178.674 10.6398C178.42 10.2493 178.293 9.76781 178.293 9.19535C178.293 8.70251 178.384 8.29496 178.566 7.97272C178.748 7.65047 178.996 7.39268 179.311 7.19933C179.626 7.00598 179.98 6.86002 180.374 6.76145C180.773 6.65909 181.184 6.58517 181.608 6.53967C182.12 6.4866 182.535 6.43921 182.854 6.39751C183.172 6.35201 183.404 6.28377 183.548 6.19279C183.695 6.09801 183.769 5.95205 183.769 5.75491V5.72079C183.769 5.29239 183.642 4.96067 183.388 4.72562C183.134 4.49057 182.769 4.37305 182.291 4.37305C181.787 4.37305 181.387 4.48299 181.091 4.70288C180.799 4.92276 180.602 5.18245 180.5 5.48195L178.577 5.20899C178.729 4.67823 178.979 4.23467 179.328 3.87831C179.677 3.51815 180.103 3.24898 180.608 3.0708C181.112 2.88882 181.669 2.79784 182.28 2.79784C182.7 2.79784 183.119 2.84712 183.536 2.94569C183.953 3.04426 184.334 3.20728 184.679 3.43474C185.024 3.65842 185.301 3.96361 185.51 4.3503C185.722 4.73699 185.828 5.22036 185.828 5.8004V11.6463H183.849V10.4464H183.781C183.656 10.6891 183.479 10.9165 183.252 11.1288C183.028 11.3373 182.746 11.506 182.405 11.6349C182.067 11.76 181.671 11.8226 181.216 11.8226ZM181.751 10.3099C182.164 10.3099 182.522 10.2284 182.825 10.0654C183.129 9.89861 183.362 9.67872 183.525 9.40576C183.692 9.1328 183.775 8.8352 183.775 8.51295V7.48366C183.711 7.53674 183.601 7.58602 183.445 7.63152C183.294 7.67701 183.123 7.71682 182.933 7.75094C182.744 7.78506 182.556 7.81539 182.37 7.84192C182.185 7.86846 182.024 7.89121 181.887 7.91016C181.58 7.95187 181.305 8.02011 181.063 8.11488C180.82 8.20966 180.628 8.34235 180.488 8.51295C180.348 8.67976 180.278 8.89586 180.278 9.16123C180.278 9.54035 180.416 9.82658 180.693 10.0199C180.97 10.2133 181.322 10.3099 181.751 10.3099ZM192.26 2.91157V4.50384H187.238V2.91157H192.26ZM188.478 0.818871H190.537V9.01907C190.537 9.29582 190.578 9.50812 190.662 9.65598C190.749 9.80004 190.863 9.89861 191.003 9.95168C191.143 10.0048 191.299 10.0313 191.469 10.0313C191.598 10.0313 191.716 10.0218 191.822 10.0029C191.932 9.98391 192.015 9.96685 192.072 9.95168L192.419 11.561C192.309 11.5989 192.152 11.6406 191.947 11.6861C191.746 11.7316 191.5 11.7582 191.208 11.7657C190.692 11.7809 190.228 11.7032 189.814 11.5326C189.401 11.3582 189.073 11.089 188.831 10.7251C188.592 10.3611 188.474 9.90619 188.478 9.36027V0.818871ZM197.754 11.8169C196.879 11.8169 196.122 11.6349 195.485 11.271C194.852 10.9033 194.365 10.3839 194.024 9.71284C193.683 9.03802 193.512 8.24378 193.512 7.33012C193.512 6.43163 193.683 5.64307 194.024 4.96446C194.369 4.28206 194.85 3.7513 195.468 3.37219C196.086 2.98929 196.812 2.79784 197.646 2.79784C198.185 2.79784 198.693 2.88503 199.17 3.05942C199.652 3.23002 200.076 3.4954 200.444 3.85556C200.816 4.21572 201.108 4.67444 201.32 5.23174C201.532 5.78524 201.638 6.4449 201.638 7.2107V7.84192H194.479V6.45437H199.665C199.661 6.0601 199.576 5.70942 199.409 5.40234C199.242 5.09146 199.009 4.84694 198.71 4.66875C198.414 4.49057 198.069 4.40148 197.675 4.40148C197.254 4.40148 196.884 4.50384 196.566 4.70856C196.247 4.90949 195.999 5.17487 195.821 5.5047C195.647 5.83073 195.557 6.18899 195.554 6.57948V7.79074C195.554 8.29875 195.647 8.73473 195.832 9.09868C196.018 9.45884 196.278 9.73559 196.611 9.92894C196.945 10.1185 197.335 10.2133 197.783 10.2133C198.082 10.2133 198.353 10.1716 198.596 10.0882C198.839 10.001 199.049 9.87396 199.227 9.70716C199.405 9.54035 199.54 9.33373 199.631 9.08731L201.553 9.3034C201.432 9.81141 201.201 10.255 200.859 10.6341C200.522 11.0094 200.09 11.3013 199.563 11.5098C199.036 11.7146 198.433 11.8169 197.754 11.8169ZM206.621 11.7999C205.935 11.7999 205.321 11.6236 204.779 11.271C204.237 10.9184 203.808 10.4066 203.494 9.73559C203.179 9.06456 203.022 8.24947 203.022 7.29032C203.022 6.31979 203.181 5.50091 203.499 4.83367C203.822 4.16264 204.256 3.65653 204.802 3.31532C205.348 2.97033 205.956 2.79784 206.627 2.79784C207.139 2.79784 207.56 2.88503 207.889 3.05942C208.219 3.23002 208.481 3.43664 208.674 3.67927C208.868 3.91811 209.017 4.14368 209.123 4.35599H209.209V-1.14539e-05H211.273V11.6463H209.249V10.2701H209.123C209.017 10.4824 208.864 10.708 208.663 10.9469C208.462 11.1819 208.197 11.3828 207.867 11.5496C207.537 11.7164 207.122 11.7999 206.621 11.7999ZM207.196 10.1109C207.632 10.1109 208.003 9.99338 208.31 9.75834C208.617 9.51949 208.851 9.18777 209.01 8.76317C209.169 8.33856 209.249 7.84382 209.249 7.27894C209.249 6.71406 209.169 6.22311 209.01 5.80609C208.854 5.38907 208.623 5.06493 208.316 4.83367C208.013 4.60241 207.639 4.48678 207.196 4.48678C206.737 4.48678 206.354 4.6062 206.047 4.84504C205.74 5.08388 205.509 5.41371 205.353 5.83452C205.198 6.25534 205.12 6.73681 205.12 7.27894C205.12 7.82486 205.198 8.31202 205.353 8.74042C205.512 9.16502 205.746 9.50054 206.053 9.74696C206.364 9.98959 206.745 10.1109 207.196 10.1109ZM215.884 10.054L215.81 10.6796C215.757 11.1573 215.662 11.6425 215.525 12.1354C215.393 12.632 215.252 13.0888 215.104 13.5059C214.957 13.9229 214.837 14.2508 214.746 14.4897H213.359C213.412 14.2584 213.484 13.9437 213.575 13.5457C213.67 13.1476 213.761 12.7002 213.848 12.2036C213.935 11.707 213.994 11.2028 214.024 10.691L214.064 10.054H215.884ZM221.802 14.9218V2.91157H223.826V4.35599H223.946C224.052 4.14368 224.202 3.91811 224.395 3.67927C224.588 3.43664 224.85 3.23002 225.18 3.05942C225.51 2.88503 225.93 2.79784 226.442 2.79784C227.117 2.79784 227.726 2.97033 228.268 3.31532C228.814 3.65653 229.246 4.16264 229.564 4.83367C229.887 5.50091 230.048 6.31979 230.048 7.29032C230.048 8.24947 229.89 9.06456 229.576 9.73559C229.261 10.4066 228.833 10.9184 228.29 11.271C227.748 11.6236 227.134 11.7999 226.448 11.7999C225.948 11.7999 225.532 11.7164 225.203 11.5496C224.873 11.3828 224.607 11.1819 224.406 10.9469C224.209 10.708 224.056 10.4824 223.946 10.2701H223.861V14.9218H221.802ZM223.821 7.27894C223.821 7.84382 223.9 8.33856 224.06 8.76317C224.223 9.18777 224.456 9.51949 224.759 9.75834C225.066 9.99338 225.438 10.1109 225.874 10.1109C226.329 10.1109 226.71 9.98959 227.017 9.74696C227.324 9.50054 227.555 9.16502 227.71 8.74042C227.87 8.31202 227.949 7.82486 227.949 7.27894C227.949 6.73681 227.872 6.25534 227.716 5.83452C227.561 5.41371 227.329 5.08388 227.022 4.84504C226.715 4.6062 226.332 4.48678 225.874 4.48678C225.434 4.48678 225.06 4.60241 224.753 4.83367C224.446 5.06493 224.213 5.38907 224.054 5.80609C223.898 6.22311 223.821 6.71406 223.821 7.27894ZM231.811 11.6463V2.91157H233.807V4.36736H233.898C234.057 3.86314 234.33 3.47455 234.716 3.20159C235.107 2.92484 235.552 2.78646 236.053 2.78646C236.167 2.78646 236.294 2.79215 236.434 2.80352C236.578 2.8111 236.697 2.82437 236.792 2.84333V4.73699C236.705 4.70667 236.566 4.68013 236.377 4.65738C236.191 4.63084 236.011 4.61757 235.837 4.61757C235.461 4.61757 235.124 4.69908 234.824 4.8621C234.529 5.02133 234.296 5.24311 234.125 5.52744C233.954 5.81178 233.869 6.13971 233.869 6.51124V11.6463H231.811ZM241.61 11.8169C240.757 11.8169 240.018 11.6293 239.392 11.2539C238.767 10.8786 238.281 10.3535 237.936 9.67872C237.595 9.0039 237.425 8.21535 237.425 7.31306C237.425 6.41077 237.595 5.62033 237.936 4.94172C238.281 4.2631 238.767 3.73614 239.392 3.36082C240.018 2.9855 240.757 2.79784 241.61 2.79784C242.463 2.79784 243.202 2.9855 243.828 3.36082C244.453 3.73614 244.937 4.2631 245.278 4.94172C245.623 5.62033 245.795 6.41077 245.795 7.31306C245.795 8.21535 245.623 9.0039 245.278 9.67872C244.937 10.3535 244.453 10.8786 243.828 11.2539C243.202 11.6293 242.463 11.8169 241.61 11.8169ZM241.621 10.1678C242.084 10.1678 242.471 10.0408 242.782 9.78677C243.092 9.52897 243.324 9.18398 243.475 8.75179C243.631 8.3196 243.708 7.83813 243.708 7.30738C243.708 6.77283 243.631 6.28946 243.475 5.85727C243.324 5.42129 243.092 5.0744 242.782 4.81661C242.471 4.55881 242.084 4.42991 241.621 4.42991C241.148 4.42991 240.753 4.55881 240.439 4.81661C240.128 5.0744 239.895 5.42129 239.739 5.85727C239.588 6.28946 239.512 6.77283 239.512 7.30738C239.512 7.83813 239.588 8.3196 239.739 8.75179C239.895 9.18398 240.128 9.52897 240.439 9.78677C240.753 10.0408 241.148 10.1678 241.621 10.1678ZM250.784 11.7999C250.098 11.7999 249.484 11.6236 248.942 11.271C248.4 10.9184 247.971 10.4066 247.656 9.73559C247.342 9.06456 247.184 8.24947 247.184 7.29032C247.184 6.31979 247.344 5.50091 247.662 4.83367C247.984 4.16264 248.418 3.65653 248.964 3.31532C249.51 2.97033 250.119 2.79784 250.79 2.79784C251.302 2.79784 251.722 2.88503 252.052 3.05942C252.382 3.23002 252.644 3.43664 252.837 3.67927C253.03 3.91811 253.18 4.14368 253.286 4.35599H253.372V-1.14539e-05H255.436V11.6463H253.411V10.2701H253.286C253.18 10.4824 253.027 10.708 252.826 10.9469C252.625 11.1819 252.359 11.3828 252.03 11.5496C251.7 11.7164 251.285 11.7999 250.784 11.7999ZM251.358 10.1109C251.794 10.1109 252.166 9.99338 252.473 9.75834C252.78 9.51949 253.013 9.18777 253.173 8.76317C253.332 8.33856 253.411 7.84382 253.411 7.27894C253.411 6.71406 253.332 6.22311 253.173 5.80609C253.017 5.38907 252.786 5.06493 252.479 4.83367C252.175 4.60241 251.802 4.48678 251.358 4.48678C250.9 4.48678 250.517 4.6062 250.21 4.84504C249.903 5.08388 249.671 5.41371 249.516 5.83452C249.361 6.25534 249.283 6.73681 249.283 7.27894C249.283 7.82486 249.361 8.31202 249.516 8.74042C249.675 9.16502 249.908 9.50054 250.215 9.74696C250.526 9.98959 250.907 10.1109 251.358 10.1109ZM263.197 7.97272V2.91157H265.255V11.6463H263.259V10.0938H263.168C262.971 10.5829 262.647 10.9829 262.196 11.2937C261.749 11.6046 261.197 11.76 260.541 11.76C259.969 11.76 259.462 11.633 259.023 11.379C258.587 11.1212 258.246 10.7478 257.999 10.2588C257.753 9.76592 257.629 9.17071 257.629 8.47315V2.91157H259.688V8.15469C259.688 8.70819 259.84 9.14796 260.143 9.474C260.446 9.80004 260.844 9.96306 261.337 9.96306C261.64 9.96306 261.934 9.88913 262.219 9.74128C262.503 9.59342 262.736 9.37354 262.918 9.08162C263.104 8.78591 263.197 8.41628 263.197 7.97272ZM271.182 11.8169C270.31 11.8169 269.562 11.6255 268.936 11.2426C268.314 10.8597 267.835 10.3308 267.497 9.65598C267.164 8.97736 266.997 8.19639 266.997 7.31306C266.997 6.42594 267.167 5.64307 267.509 4.96446C267.85 4.28206 268.331 3.7513 268.953 3.37219C269.579 2.98929 270.318 2.79784 271.171 2.79784C271.88 2.79784 272.507 2.92863 273.053 3.19022C273.603 3.44801 274.041 3.81386 274.367 4.28775C274.693 4.75785 274.879 5.30756 274.924 5.93688H272.956C272.877 5.51607 272.687 5.16539 272.388 4.88485C272.092 4.60051 271.696 4.45835 271.199 4.45835C270.779 4.45835 270.409 4.57208 270.09 4.79955C269.772 5.02322 269.524 5.34547 269.345 5.76628C269.171 6.1871 269.084 6.69132 269.084 7.27894C269.084 7.87415 269.171 8.38595 269.345 8.81435C269.52 9.23895 269.764 9.56688 270.079 9.79814C270.397 10.0256 270.771 10.1393 271.199 10.1393C271.503 10.1393 271.774 10.0825 272.013 9.96874C272.255 9.85122 272.458 9.68251 272.621 9.46263C272.784 9.24274 272.896 8.97547 272.956 8.66081H274.924C274.875 9.27876 274.693 9.82658 274.378 10.3043C274.064 10.7781 273.635 11.1497 273.093 11.4188C272.551 11.6842 271.914 11.8169 271.182 11.8169ZM280.481 11.8169C279.606 11.8169 278.849 11.6349 278.212 11.271C277.579 10.9033 277.092 10.3839 276.751 9.71284C276.41 9.03802 276.239 8.24378 276.239 7.33012C276.239 6.43163 276.41 5.64307 276.751 4.96446C277.096 4.28206 277.577 3.7513 278.195 3.37219C278.813 2.98929 279.539 2.79784 280.373 2.79784C280.912 2.79784 281.42 2.88503 281.897 3.05942C282.379 3.23002 282.803 3.4954 283.171 3.85556C283.543 4.21572 283.835 4.67444 284.047 5.23174C284.259 5.78524 284.365 6.4449 284.365 7.2107V7.84192H277.206V6.45437H282.392C282.388 6.0601 282.303 5.70942 282.136 5.40234C281.969 5.09146 281.736 4.84694 281.437 4.66875C281.141 4.49057 280.796 4.40148 280.402 4.40148C279.981 4.40148 279.611 4.50384 279.293 4.70856C278.974 4.90949 278.726 5.17487 278.548 5.5047C278.374 5.83073 278.284 6.18899 278.281 6.57948V7.79074C278.281 8.29875 278.374 8.73473 278.559 9.09868C278.745 9.45884 279.005 9.73559 279.338 9.92894C279.672 10.1185 280.062 10.2133 280.51 10.2133C280.809 10.2133 281.08 10.1716 281.323 10.0882C281.566 10.001 281.776 9.87396 281.954 9.70716C282.132 9.54035 282.267 9.33373 282.358 9.08731L284.28 9.3034C284.159 9.81141 283.928 10.255 283.586 10.6341C283.249 11.0094 282.817 11.3013 282.29 11.5098C281.763 11.7146 281.16 11.8169 280.481 11.8169ZM289.348 11.7999C288.662 11.7999 288.048 11.6236 287.506 11.271C286.964 10.9184 286.535 10.4066 286.221 9.73559C285.906 9.06456 285.749 8.24947 285.749 7.29032C285.749 6.31979 285.908 5.50091 286.226 4.83367C286.549 4.16264 286.983 3.65653 287.529 3.31532C288.075 2.97033 288.683 2.79784 289.354 2.79784C289.866 2.79784 290.287 2.88503 290.616 3.05942C290.946 3.23002 291.208 3.43664 291.401 3.67927C291.595 3.91811 291.744 4.14368 291.851 4.35599H291.936V-1.14539e-05H294V11.6463H291.976V10.2701H291.851C291.744 10.4824 291.591 10.708 291.39 10.9469C291.189 11.1819 290.924 11.3828 290.594 11.5496C290.264 11.7164 289.849 11.7999 289.348 11.7999ZM289.923 10.1109C290.359 10.1109 290.73 9.99338 291.037 9.75834C291.344 9.51949 291.578 9.18777 291.737 8.76317C291.896 8.33856 291.976 7.84382 291.976 7.27894C291.976 6.71406 291.896 6.22311 291.737 5.80609C291.581 5.38907 291.35 5.06493 291.043 4.83367C290.74 4.60241 290.366 4.48678 289.923 4.48678C289.464 4.48678 289.081 4.6062 288.774 4.84504C288.467 5.08388 288.236 5.41371 288.08 5.83452C287.925 6.25534 287.847 6.73681 287.847 7.27894C287.847 7.82486 287.925 8.31202 288.08 8.74042C288.239 9.16502 288.473 9.50054 288.78 9.74696C289.091 9.98959 289.472 10.1109 289.923 10.1109ZM4.13993 30.8332C3.34379 30.8332 2.65949 30.6891 2.08703 30.401C1.51458 30.1129 1.07291 29.7243 0.762038 29.2352C0.454957 28.7424 0.301416 28.187 0.301416 27.569C0.301416 27.1027 0.396194 26.6895 0.58575 26.3293C0.779098 25.9692 1.04448 25.6356 1.38189 25.3285C1.72309 25.0214 2.11736 24.7162 2.56472 24.4129L4.62898 23.0083C4.93227 22.8112 5.16163 22.6027 5.31707 22.3828C5.4763 22.1629 5.55591 21.9051 5.55591 21.6094C5.55591 21.3592 5.44976 21.1222 5.23746 20.8985C5.02894 20.6749 4.74082 20.563 4.37308 20.563C4.12666 20.563 3.90867 20.6218 3.71911 20.7393C3.53335 20.8531 3.38739 21.0028 3.28124 21.1886C3.17888 21.3743 3.1277 21.5715 3.1277 21.78C3.1277 22.034 3.19783 22.2918 3.3381 22.5534C3.48217 22.815 3.66793 23.086 3.8954 23.3666C4.12666 23.6471 4.37308 23.9447 4.63467 24.2594L10.0996 30.6626H7.87039L3.33242 25.465C2.99501 25.0707 2.66897 24.6821 2.35431 24.2992C2.04344 23.9163 1.78754 23.5182 1.58661 23.105C1.38947 22.688 1.2909 22.2368 1.2909 21.7515C1.2909 21.2018 1.4179 20.7109 1.67191 20.2787C1.92591 19.8427 2.28038 19.4996 2.73532 19.2494C3.19404 18.9992 3.73049 18.8741 4.34465 18.8741C4.95881 18.8741 5.48578 18.9954 5.92555 19.238C6.36532 19.4807 6.70462 19.8029 6.94346 20.2048C7.1823 20.6066 7.30172 21.0445 7.30172 21.5184C7.30172 22.0681 7.16524 22.561 6.89228 22.9969C6.61932 23.4291 6.24021 23.8215 5.75494 24.1741L3.40066 25.8971C3.01396 26.1777 2.73721 26.462 2.5704 26.7501C2.40359 27.0345 2.32019 27.2771 2.32019 27.478C2.32019 27.7851 2.39791 28.0638 2.55334 28.314C2.70878 28.5642 2.92677 28.7651 3.20731 28.9168C3.49164 29.0646 3.82337 29.1385 4.20248 29.1385C4.6195 29.1385 5.03084 29.0457 5.43649 28.8599C5.84214 28.6703 6.21177 28.4012 6.54539 28.0524C6.87901 27.7036 7.14439 27.2866 7.34153 26.8013C7.53867 26.3123 7.63724 25.7701 7.63724 25.1749H9.40579C9.40579 25.9104 9.32429 26.5511 9.16127 27.097C8.99825 27.6392 8.78784 28.0979 8.53005 28.4732C8.27225 28.8447 7.99929 29.1423 7.71116 29.366C7.62018 29.4305 7.53298 29.4949 7.44958 29.5594C7.36617 29.6238 7.27898 29.6883 7.18799 29.7527C6.77855 30.1242 6.29897 30.3972 5.74926 30.5716C5.20334 30.746 4.66689 30.8332 4.13993 30.8332ZM22.1539 24.2366L20.2773 24.4413C20.2242 24.2518 20.1314 24.0736 19.9987 23.9068C19.8698 23.74 19.6954 23.6054 19.4755 23.503C19.2556 23.4007 18.9864 23.3495 18.668 23.3495C18.2396 23.3495 17.8794 23.4424 17.5875 23.6282C17.2994 23.8139 17.1572 24.0547 17.161 24.3504C17.1572 24.6044 17.2501 24.811 17.4397 24.9702C17.633 25.1294 17.9515 25.2602 18.395 25.3626L19.8849 25.681C20.7114 25.8592 21.3256 26.1417 21.7274 26.5284C22.1331 26.9151 22.3378 27.4212 22.3416 28.0467C22.3378 28.5964 22.1767 29.0817 21.8582 29.5025C21.5435 29.9195 21.1057 30.2456 20.5446 30.4806C19.9835 30.7157 19.339 30.8332 18.6111 30.8332C17.542 30.8332 16.6814 30.6095 16.0294 30.1622C15.3773 29.711 14.9887 29.0836 14.8636 28.2799L16.871 28.0865C16.962 28.4808 17.1553 28.7784 17.451 28.9793C17.7467 29.1803 18.1315 29.2807 18.6054 29.2807C19.0945 29.2807 19.4869 29.1803 19.7826 28.9793C20.0821 28.7784 20.2318 28.5301 20.2318 28.2344C20.2318 27.9842 20.1351 27.7775 19.9418 27.6145C19.7522 27.4515 19.4565 27.3264 19.0547 27.2392L17.5648 26.9264C16.7269 26.752 16.1071 26.4582 15.7052 26.045C15.3034 25.628 15.1043 25.101 15.1081 24.4641C15.1043 23.9258 15.2503 23.4594 15.546 23.0652C15.8455 22.6671 16.2606 22.36 16.7914 22.1439C17.3259 21.924 17.942 21.8141 18.6395 21.8141C19.6631 21.8141 20.4688 22.0321 21.0564 22.4681C21.6478 22.904 22.0136 23.4936 22.1539 24.2366ZM29.6063 26.989V21.9278H31.6649V30.6626H29.6689V29.1101H29.5779C29.3807 29.5992 29.0566 29.9991 28.6055 30.31C28.1581 30.6209 27.6065 30.7763 26.9506 30.7763C26.3782 30.7763 25.8721 30.6493 25.4323 30.3953C24.9963 30.1375 24.6551 29.7641 24.4087 29.275C24.1623 28.7822 24.039 28.187 24.039 27.4894V21.9278H26.0976V27.171C26.0976 27.7245 26.2493 28.1642 26.5526 28.4903C26.8559 28.8163 27.2539 28.9793 27.7468 28.9793C28.0501 28.9793 28.3439 28.9054 28.6282 28.7575C28.9125 28.6097 29.1457 28.3898 29.3277 28.0979C29.5134 27.8022 29.6063 27.4325 29.6063 26.989ZM33.7818 33.9381V21.9278H35.8062V23.3723H35.9256C36.0318 23.1599 36.1815 22.9344 36.3749 22.6955C36.5682 22.4529 36.8298 22.2463 37.1596 22.0757C37.4895 21.9013 37.9103 21.8141 38.4221 21.8141C39.0969 21.8141 39.7054 21.9866 40.2475 22.3316C40.7934 22.6728 41.2256 23.1789 41.5441 23.8499C41.8663 24.5172 42.0274 25.3361 42.0274 26.3066C42.0274 27.2657 41.8701 28.0808 41.5555 28.7519C41.2408 29.4229 40.8124 29.9347 40.2703 30.2873C39.7281 30.6398 39.114 30.8161 38.4278 30.8161C37.9273 30.8161 37.5122 30.7327 37.1824 30.5659C36.8526 30.3991 36.5872 30.1982 36.3863 29.9631C36.1891 29.7243 36.0356 29.4987 35.9256 29.2864H35.8403V33.9381H33.7818ZM35.8005 26.2952C35.8005 26.8601 35.8801 27.3548 36.0394 27.7794C36.2024 28.204 36.4355 28.5358 36.7388 28.7746C37.0459 29.0096 37.4174 29.1272 37.8534 29.1272C38.3084 29.1272 38.6894 29.0059 38.9964 28.7632C39.3035 28.5168 39.5348 28.1813 39.6902 27.7567C39.8494 27.3283 39.9291 26.8411 39.9291 26.2952C39.9291 25.7531 39.8513 25.2716 39.6959 24.8508C39.5405 24.43 39.3092 24.1001 39.0021 23.8613C38.6951 23.6225 38.3121 23.503 37.8534 23.503C37.4137 23.503 37.0402 23.6187 36.7331 23.8499C36.4261 24.0812 36.1929 24.4053 36.0337 24.8224C35.8782 25.2394 35.8005 25.7303 35.8005 26.2952ZM43.7903 33.9381V21.9278H45.8148V23.3723H45.9342C46.0403 23.1599 46.1901 22.9344 46.3834 22.6955C46.5768 22.4529 46.8384 22.2463 47.1682 22.0757C47.498 21.9013 47.9188 21.8141 48.4307 21.8141C49.1055 21.8141 49.7139 21.9866 50.2561 22.3316C50.802 22.6728 51.2342 23.1789 51.5526 23.8499C51.8749 24.5172 52.036 25.3361 52.036 26.3066C52.036 27.2657 51.8787 28.0808 51.564 28.7519C51.2493 29.4229 50.821 29.9347 50.2788 30.2873C49.7367 30.6398 49.1225 30.8161 48.4363 30.8161C47.9359 30.8161 47.5208 30.7327 47.191 30.5659C46.8611 30.3991 46.5957 30.1982 46.3948 29.9631C46.1977 29.7243 46.0441 29.4987 45.9342 29.2864H45.8489V33.9381H43.7903ZM45.8091 26.2952C45.8091 26.8601 45.8887 27.3548 46.0479 27.7794C46.2109 28.204 46.4441 28.5358 46.7474 28.7746C47.0545 29.0096 47.426 29.1272 47.862 29.1272C48.3169 29.1272 48.6979 29.0059 49.005 28.7632C49.3121 28.5168 49.5433 28.1813 49.6988 27.7567C49.858 27.3283 49.9376 26.8411 49.9376 26.2952C49.9376 25.7531 49.8599 25.2716 49.7045 24.8508C49.549 24.43 49.3178 24.1001 49.0107 23.8613C48.7036 23.6225 48.3207 23.503 47.862 23.503C47.4222 23.503 47.0488 23.6187 46.7417 23.8499C46.4346 24.0812 46.2015 24.4053 46.0422 24.8224C45.8868 25.2394 45.8091 25.7303 45.8091 26.2952ZM57.609 30.8332C56.756 30.8332 56.0167 30.6455 55.3911 30.2702C54.7656 29.8949 54.2804 29.3698 53.9354 28.695C53.5942 28.0202 53.4236 27.2316 53.4236 26.3293C53.4236 25.427 53.5942 24.6366 53.9354 23.958C54.2804 23.2794 54.7656 22.7524 55.3911 22.3771C56.0167 22.0018 56.756 21.8141 57.609 21.8141C58.462 21.8141 59.2012 22.0018 59.8268 22.3771C60.4523 22.7524 60.9357 23.2794 61.2769 23.958C61.6219 24.6366 61.7944 25.427 61.7944 26.3293C61.7944 27.2316 61.6219 28.0202 61.2769 28.695C60.9357 29.3698 60.4523 29.8949 59.8268 30.2702C59.2012 30.6455 58.462 30.8332 57.609 30.8332ZM57.6203 29.184C58.0828 29.184 58.4695 29.057 58.7804 28.803C59.0913 28.5452 59.3225 28.2002 59.4742 27.7681C59.6296 27.3359 59.7073 26.8544 59.7073 26.3236C59.7073 25.7891 59.6296 25.3057 59.4742 24.8735C59.3225 24.4376 59.0913 24.0907 58.7804 23.8329C58.4695 23.5751 58.0828 23.4462 57.6203 23.4462C57.1464 23.4462 56.7522 23.5751 56.4375 23.8329C56.1266 24.0907 55.8935 24.4376 55.738 24.8735C55.5864 25.3057 55.5106 25.7891 55.5106 26.3236C55.5106 26.8544 55.5864 27.3359 55.738 27.7681C55.8935 28.2002 56.1266 28.5452 56.4375 28.803C56.7522 29.057 57.1464 29.184 57.6203 29.184ZM63.5416 30.6626V21.9278H65.5376V23.3836H65.6286C65.7878 22.8794 66.0608 22.4908 66.4475 22.2179C66.838 21.9411 67.2834 21.8027 67.7839 21.8027C67.8976 21.8027 68.0246 21.8084 68.1649 21.8198C68.3089 21.8274 68.4283 21.8406 68.5231 21.8596V23.7533C68.4359 23.7229 68.2975 23.6964 68.108 23.6736C67.9222 23.6471 67.7421 23.6338 67.5678 23.6338C67.1924 23.6338 66.855 23.7153 66.5555 23.8784C66.2598 24.0376 66.0267 24.2594 65.8561 24.5437C65.6855 24.828 65.6002 25.156 65.6002 25.5275V30.6626H63.5416ZM74.7216 21.9278V23.5201H69.7003V21.9278H74.7216ZM70.94 19.8351H72.9985V28.0353C72.9985 28.3121 73.0402 28.5244 73.1236 28.6722C73.2108 28.8163 73.3246 28.9149 73.4648 28.9679C73.6051 29.021 73.7606 29.0476 73.9312 29.0476C74.0601 29.0476 74.1776 29.0381 74.2837 29.0191C74.3937 29.0002 74.4771 28.9831 74.5339 28.9679L74.8808 30.5773C74.7709 30.6152 74.6136 30.6569 74.4088 30.7024C74.2079 30.7479 73.9615 30.7744 73.6696 30.782C73.154 30.7972 72.6896 30.7194 72.2763 30.5488C71.8631 30.3745 71.5352 30.1053 71.2925 29.7413C71.0537 29.3774 70.9362 28.9225 70.94 28.3765V19.8351ZM80.2164 30.8332C79.3406 30.8332 78.5843 30.6512 77.9474 30.2873C77.3143 29.9195 76.8271 29.4001 76.4859 28.7291C76.1447 28.0543 75.9741 27.26 75.9741 26.3464C75.9741 25.4479 76.1447 24.6593 76.4859 23.9807C76.8309 23.2983 77.3124 22.7676 77.9303 22.3885C78.5483 22.0056 79.2743 21.8141 80.1083 21.8141C80.6467 21.8141 81.1547 21.9013 81.6323 22.0757C82.1138 22.2463 82.5384 22.5117 82.9062 22.8718C83.2777 23.232 83.5696 23.6907 83.7819 24.248C83.9942 24.8015 84.1004 25.4612 84.1004 26.227V26.8582H76.9408V25.4706H82.1271C82.1233 25.0764 82.038 24.7257 81.8712 24.4186C81.7044 24.1077 81.4712 23.8632 81.1717 23.685C80.876 23.5068 80.531 23.4177 80.1367 23.4177C79.7159 23.4177 79.3463 23.5201 79.0278 23.7248C78.7094 23.9258 78.4611 24.1911 78.2829 24.521C78.1085 24.847 78.0194 25.2053 78.0156 25.5957V26.807C78.0156 27.315 78.1085 27.751 78.2943 28.1149C78.48 28.4751 78.7397 28.7519 79.0733 28.9452C79.407 29.1348 79.7974 29.2295 80.2448 29.2295C80.5443 29.2295 80.8154 29.1878 81.058 29.1044C81.3006 29.0172 81.511 28.8902 81.6892 28.7234C81.8674 28.5566 82.002 28.35 82.093 28.1036L84.0151 28.3197C83.8937 28.8277 83.6625 29.2712 83.3213 29.6503C82.9839 30.0257 82.5517 30.3176 82.0247 30.5261C81.4978 30.7308 80.895 30.8332 80.2164 30.8332ZM89.0833 30.8161C88.3971 30.8161 87.783 30.6398 87.2408 30.2873C86.6987 29.9347 86.2703 29.4229 85.9556 28.7519C85.641 28.0808 85.4836 27.2657 85.4836 26.3066C85.4836 25.3361 85.6429 24.5172 85.9613 23.8499C86.2836 23.1789 86.7177 22.6728 87.2636 22.3316C87.8095 21.9866 88.418 21.8141 89.089 21.8141C89.6008 21.8141 90.0216 21.9013 90.3514 22.0757C90.6813 22.2463 90.9429 22.4529 91.1362 22.6955C91.3296 22.9344 91.4793 23.1599 91.5855 23.3723H91.6708V19.0163H93.735V30.6626H91.7106V29.2864H91.5855C91.4793 29.4987 91.3258 29.7243 91.1248 29.9631C90.9239 30.1982 90.6585 30.3991 90.3287 30.5659C89.9989 30.7327 89.5837 30.8161 89.0833 30.8161ZM89.6577 29.1272C90.0937 29.1272 90.4652 29.0096 90.7723 28.7746C91.0793 28.5358 91.3125 28.204 91.4717 27.7794C91.631 27.3548 91.7106 26.8601 91.7106 26.2952C91.7106 25.7303 91.631 25.2394 91.4717 24.8224C91.3163 24.4053 91.085 24.0812 90.778 23.8499C90.4747 23.6187 90.1012 23.503 89.6577 23.503C89.1989 23.503 88.816 23.6225 88.509 23.8613C88.2019 24.1001 87.9706 24.43 87.8152 24.8508C87.6598 25.2716 87.582 25.7531 87.582 26.2952C87.582 26.8411 87.6598 27.3283 87.8152 27.7567C87.9744 28.1813 88.2076 28.5168 88.5147 28.7632C88.8255 29.0059 89.2065 29.1272 89.6577 29.1272ZM106.804 24.2366L104.928 24.4413C104.875 24.2518 104.782 24.0736 104.649 23.9068C104.52 23.74 104.346 23.6054 104.126 23.503C103.906 23.4007 103.637 23.3495 103.319 23.3495C102.89 23.3495 102.53 23.4424 102.238 23.6282C101.95 23.8139 101.808 24.0547 101.812 24.3504C101.808 24.6044 101.901 24.811 102.09 24.9702C102.284 25.1294 102.602 25.2602 103.046 25.3626L104.535 25.681C105.362 25.8592 105.976 26.1417 106.378 26.5284C106.784 26.9151 106.988 27.4212 106.992 28.0467C106.988 28.5964 106.827 29.0817 106.509 29.5025C106.194 29.9195 105.756 30.2456 105.195 30.4806C104.634 30.7157 103.99 30.8332 103.262 30.8332C102.193 30.8332 101.332 30.6095 100.68 30.1622C100.028 29.711 99.6392 29.0836 99.5141 28.2799L101.522 28.0865C101.613 28.4808 101.806 28.7784 102.102 28.9793C102.397 29.1803 102.782 29.2807 103.256 29.2807C103.745 29.2807 104.137 29.1803 104.433 28.9793C104.733 28.7784 104.882 28.5301 104.882 28.2344C104.882 27.9842 104.786 27.7775 104.592 27.6145C104.403 27.4515 104.107 27.3264 103.705 27.2392L102.215 26.9264C101.377 26.752 100.758 26.4582 100.356 26.045C99.9539 25.628 99.7549 25.101 99.7586 24.4641C99.7549 23.9258 99.9008 23.4594 100.197 23.0652C100.496 22.6671 100.911 22.36 101.442 22.1439C101.976 21.924 102.593 21.8141 103.29 21.8141C104.314 21.8141 105.119 22.0321 105.707 22.4681C106.298 22.904 106.664 23.4936 106.804 24.2366ZM112.5 30.8332C111.647 30.8332 110.907 30.6455 110.282 30.2702C109.656 29.8949 109.171 29.3698 108.826 28.695C108.485 28.0202 108.314 27.2316 108.314 26.3293C108.314 25.427 108.485 24.6366 108.826 23.958C109.171 23.2794 109.656 22.7524 110.282 22.3771C110.907 22.0018 111.647 21.8141 112.5 21.8141C113.353 21.8141 114.092 22.0018 114.717 22.3771C115.343 22.7524 115.826 23.2794 116.168 23.958C116.513 24.6366 116.685 25.427 116.685 26.3293C116.685 27.2316 116.513 28.0202 116.168 28.695C115.826 29.3698 115.343 29.8949 114.717 30.2702C114.092 30.6455 113.353 30.8332 112.5 30.8332ZM112.511 29.184C112.974 29.184 113.36 29.057 113.671 28.803C113.982 28.5452 114.213 28.2002 114.365 27.7681C114.52 27.3359 114.598 26.8544 114.598 26.3236C114.598 25.7891 114.52 25.3057 114.365 24.8735C114.213 24.4376 113.982 24.0907 113.671 23.8329C113.36 23.5751 112.974 23.4462 112.511 23.4462C112.037 23.4462 111.643 23.5751 111.328 23.8329C111.017 24.0907 110.784 24.4376 110.629 24.8735C110.477 25.3057 110.401 25.7891 110.401 26.3236C110.401 26.8544 110.477 27.3359 110.629 27.7681C110.784 28.2002 111.017 28.5452 111.328 28.803C111.643 29.057 112.037 29.184 112.511 29.184ZM118.432 30.6626V21.9278H120.4V23.4121H120.502C120.684 22.9116 120.986 22.5211 121.406 22.2406C121.827 21.9563 122.33 21.8141 122.913 21.8141C123.505 21.8141 124.003 21.9582 124.409 22.2463C124.818 22.5306 125.107 22.9192 125.273 23.4121H125.364C125.558 22.9268 125.884 22.5401 126.342 22.252C126.805 21.9601 127.353 21.8141 127.986 21.8141C128.79 21.8141 129.445 22.0681 129.954 22.5761C130.462 23.0841 130.716 23.8253 130.716 24.7996V30.6626H128.651V25.1181C128.651 24.5759 128.507 24.1798 128.219 23.9295C127.931 23.6755 127.578 23.5485 127.161 23.5485C126.665 23.5485 126.276 23.704 125.996 24.0148C125.719 24.3219 125.58 24.7219 125.58 25.2147V30.6626H123.562V25.0328C123.562 24.5816 123.425 24.2215 123.152 23.9523C122.883 23.6831 122.53 23.5485 122.095 23.5485C121.799 23.5485 121.53 23.6244 121.287 23.776C121.044 23.9239 120.851 24.1343 120.707 24.4072C120.563 24.6764 120.491 24.9911 120.491 25.3512V30.6626H118.432ZM136.671 30.8332C135.795 30.8332 135.039 30.6512 134.402 30.2873C133.769 29.9195 133.282 29.4001 132.94 28.7291C132.599 28.0543 132.429 27.26 132.429 26.3464C132.429 25.4479 132.599 24.6593 132.94 23.9807C133.285 23.2983 133.767 22.7676 134.385 22.3885C135.003 22.0056 135.729 21.8141 136.563 21.8141C137.101 21.8141 137.609 21.9013 138.087 22.0757C138.568 22.2463 138.993 22.5117 139.361 22.8718C139.732 23.232 140.024 23.6907 140.236 24.248C140.449 24.8015 140.555 25.4612 140.555 26.227V26.8582H133.395V25.4706H138.582C138.578 25.0764 138.493 24.7257 138.326 24.4186C138.159 24.1077 137.926 23.8632 137.626 23.685C137.331 23.5068 136.986 23.4177 136.591 23.4177C136.17 23.4177 135.801 23.5201 135.482 23.7248C135.164 23.9258 134.916 24.1911 134.737 24.521C134.563 24.847 134.474 25.2053 134.47 25.5957V26.807C134.47 27.315 134.563 27.751 134.749 28.1149C134.935 28.4751 135.194 28.7519 135.528 28.9452C135.861 29.1348 136.252 29.2295 136.699 29.2295C136.999 29.2295 137.27 29.1878 137.513 29.1044C137.755 29.0172 137.966 28.8902 138.144 28.7234C138.322 28.5566 138.457 28.35 138.548 28.1036L140.47 28.3197C140.348 28.8277 140.117 29.2712 139.776 29.6503C139.438 30.0257 139.006 30.3176 138.479 30.5261C137.952 30.7308 137.35 30.8332 136.671 30.8332ZM150.079 30.8332C149.226 30.8332 148.486 30.6455 147.861 30.2702C147.235 29.8949 146.75 29.3698 146.405 28.695C146.064 28.0202 145.893 27.2316 145.893 26.3293C145.893 25.427 146.064 24.6366 146.405 23.958C146.75 23.2794 147.235 22.7524 147.861 22.3771C148.486 22.0018 149.226 21.8141 150.079 21.8141C150.932 21.8141 151.671 22.0018 152.296 22.3771C152.922 22.7524 153.405 23.2794 153.747 23.958C154.092 24.6366 154.264 25.427 154.264 26.3293C154.264 27.2316 154.092 28.0202 153.747 28.695C153.405 29.3698 152.922 29.8949 152.296 30.2702C151.671 30.6455 150.932 30.8332 150.079 30.8332ZM150.09 29.184C150.553 29.184 150.939 29.057 151.25 28.803C151.561 28.5452 151.792 28.2002 151.944 27.7681C152.099 27.3359 152.177 26.8544 152.177 26.3236C152.177 25.7891 152.099 25.3057 151.944 24.8735C151.792 24.4376 151.561 24.0907 151.25 23.8329C150.939 23.5751 150.553 23.4462 150.09 23.4462C149.616 23.4462 149.222 23.5751 148.907 23.8329C148.596 24.0907 148.363 24.4376 148.208 24.8735C148.056 25.3057 147.98 25.7891 147.98 26.3236C147.98 26.8544 148.056 27.3359 148.208 27.7681C148.363 28.2002 148.596 28.5452 148.907 28.803C149.222 29.057 149.616 29.184 150.09 29.184ZM160.436 21.9278V23.5201H155.272V21.9278H160.436ZM156.563 30.6626V21.1033C156.563 20.5156 156.684 20.0266 156.927 19.6361C157.173 19.2456 157.503 18.9537 157.916 18.7604C158.33 18.567 158.788 18.4703 159.293 18.4703C159.649 18.4703 159.965 18.4988 160.242 18.5556C160.519 18.6125 160.724 18.6637 160.856 18.7092L160.447 20.3014C160.36 20.2749 160.25 20.2484 160.117 20.2218C159.984 20.1915 159.837 20.1763 159.674 20.1763C159.291 20.1763 159.02 20.2692 158.86 20.455C158.705 20.637 158.627 20.8985 158.627 21.2397V30.6626H156.563ZM170.382 21.9278V23.5201H165.36V21.9278H170.382ZM166.6 19.8351H168.658V28.0353C168.658 28.3121 168.7 28.5244 168.784 28.6722C168.871 28.8163 168.985 28.9149 169.125 28.9679C169.265 29.021 169.42 29.0476 169.591 29.0476C169.72 29.0476 169.838 29.0381 169.944 29.0191C170.054 29.0002 170.137 28.9831 170.194 28.9679L170.541 30.5773C170.431 30.6152 170.274 30.6569 170.069 30.7024C169.868 30.7479 169.621 30.7744 169.33 30.782C168.814 30.7972 168.35 30.7194 167.936 30.5488C167.523 30.3745 167.195 30.1053 166.952 29.7413C166.714 29.3774 166.596 28.9225 166.6 28.3765V19.8351ZM174.349 25.5446V30.6626H172.291V19.0163H174.304V23.4121H174.406C174.611 22.9192 174.928 22.5306 175.356 22.2463C175.788 21.9582 176.338 21.8141 177.005 21.8141C177.612 21.8141 178.141 21.9411 178.592 22.1951C179.043 22.4491 179.392 22.8206 179.638 23.3097C179.888 23.7988 180.013 24.3959 180.013 25.101V30.6626H177.955V25.4195C177.955 24.8318 177.803 24.375 177.5 24.049C177.2 23.7191 176.78 23.5542 176.237 23.5542C175.873 23.5542 175.547 23.6338 175.259 23.7931C174.975 23.9485 174.751 24.1741 174.588 24.4698C174.429 24.7655 174.349 25.1238 174.349 25.5446ZM185.979 30.8332C185.103 30.8332 184.347 30.6512 183.71 30.2873C183.077 29.9195 182.589 29.4001 182.248 28.7291C181.907 28.0543 181.736 27.26 181.736 26.3464C181.736 25.4479 181.907 24.6593 182.248 23.9807C182.593 23.2983 183.075 22.7676 183.693 22.3885C184.311 22.0056 185.037 21.8141 185.871 21.8141C186.409 21.8141 186.917 21.9013 187.395 22.0757C187.876 22.2463 188.301 22.5117 188.668 22.8718C189.04 23.232 189.332 23.6907 189.544 24.248C189.757 24.8015 189.863 25.4612 189.863 26.227V26.8582H182.703V25.4706H187.889C187.886 25.0764 187.8 24.7257 187.634 24.4186C187.467 24.1077 187.234 23.8632 186.934 23.685C186.638 23.5068 186.293 23.4177 185.899 23.4177C185.478 23.4177 185.109 23.5201 184.79 23.7248C184.472 23.9258 184.223 24.1911 184.045 24.521C183.871 24.847 183.782 25.2053 183.778 25.5957V26.807C183.778 27.315 183.871 27.751 184.057 28.1149C184.242 28.4751 184.502 28.7519 184.836 28.9452C185.169 29.1348 185.56 29.2295 186.007 29.2295C186.307 29.2295 186.578 29.1878 186.82 29.1044C187.063 29.0172 187.273 28.8902 187.452 28.7234C187.63 28.5566 187.764 28.35 187.855 28.1036L189.777 28.3197C189.656 28.8277 189.425 29.2712 189.084 29.6503C188.746 30.0257 188.314 30.3176 187.787 30.5261C187.26 30.7308 186.657 30.8332 185.979 30.8332ZM195.576 30.6626V21.9278H197.544V23.4121H197.646C197.828 22.9116 198.13 22.5211 198.551 22.2406C198.971 21.9563 199.474 21.8141 200.057 21.8141C200.649 21.8141 201.147 21.9582 201.553 22.2463C201.963 22.5306 202.251 22.9192 202.417 23.4121H202.508C202.702 22.9268 203.028 22.5401 203.487 22.252C203.949 21.9601 204.497 21.8141 205.13 21.8141C205.934 21.8141 206.59 22.0681 207.098 22.5761C207.606 23.0841 207.86 23.8253 207.86 24.7996V30.6626H205.795V25.1181C205.795 24.5759 205.651 24.1798 205.363 23.9295C205.075 23.6755 204.722 23.5485 204.305 23.5485C203.809 23.5485 203.42 23.704 203.14 24.0148C202.863 24.3219 202.725 24.7219 202.725 25.2147V30.6626H200.706V25.0328C200.706 24.5816 200.569 24.2215 200.296 23.9523C200.027 23.6831 199.675 23.5485 199.239 23.5485C198.943 23.5485 198.674 23.6244 198.431 23.776C198.188 23.9239 197.995 24.1343 197.851 24.4072C197.707 24.6764 197.635 24.9911 197.635 25.3512V30.6626H195.576ZM213.758 30.8332C212.905 30.8332 212.166 30.6455 211.54 30.2702C210.915 29.8949 210.43 29.3698 210.085 28.695C209.743 28.0202 209.573 27.2316 209.573 26.3293C209.573 25.427 209.743 24.6366 210.085 23.958C210.43 23.2794 210.915 22.7524 211.54 22.3771C212.166 22.0018 212.905 21.8141 213.758 21.8141C214.611 21.8141 215.35 22.0018 215.976 22.3771C216.601 22.7524 217.085 23.2794 217.426 23.958C217.771 24.6366 217.944 25.427 217.944 26.3293C217.944 27.2316 217.771 28.0202 217.426 28.695C217.085 29.3698 216.601 29.8949 215.976 30.2702C215.35 30.6455 214.611 30.8332 213.758 30.8332ZM213.77 29.184C214.232 29.184 214.619 29.057 214.93 28.803C215.24 28.5452 215.472 28.2002 215.623 27.7681C215.779 27.3359 215.857 26.8544 215.857 26.3236C215.857 25.7891 215.779 25.3057 215.623 24.8735C215.472 24.4376 215.24 24.0907 214.93 23.8329C214.619 23.5751 214.232 23.4462 213.77 23.4462C213.296 23.4462 212.901 23.5751 212.587 23.8329C212.276 24.0907 212.043 24.4376 211.887 24.8735C211.736 25.3057 211.66 25.7891 211.66 26.3236C211.66 26.8544 211.736 27.3359 211.887 27.7681C212.043 28.2002 212.276 28.5452 212.587 28.803C212.901 29.057 213.296 29.184 213.77 29.184ZM226.594 24.2366L224.718 24.4413C224.665 24.2518 224.572 24.0736 224.439 23.9068C224.31 23.74 224.136 23.6054 223.916 23.503C223.696 23.4007 223.427 23.3495 223.108 23.3495C222.68 23.3495 222.32 23.4424 222.028 23.6282C221.74 23.8139 221.598 24.0547 221.601 24.3504C221.598 24.6044 221.691 24.811 221.88 24.9702C222.073 25.1294 222.392 25.2602 222.836 25.3626L224.325 25.681C225.152 25.8592 225.766 26.1417 226.168 26.5284C226.574 26.9151 226.778 27.4212 226.782 28.0467C226.778 28.5964 226.617 29.0817 226.299 29.5025C225.984 29.9195 225.546 30.2456 224.985 30.4806C224.424 30.7157 223.779 30.8332 223.052 30.8332C221.983 30.8332 221.122 30.6095 220.47 30.1622C219.818 29.711 219.429 29.0836 219.304 28.2799L221.311 28.0865C221.402 28.4808 221.596 28.7784 221.892 28.9793C222.187 29.1803 222.572 29.2807 223.046 29.2807C223.535 29.2807 223.927 29.1803 224.223 28.9793C224.523 28.7784 224.672 28.5301 224.672 28.2344C224.672 27.9842 224.576 27.7775 224.382 27.6145C224.193 27.4515 223.897 27.3264 223.495 27.2392L222.005 26.9264C221.167 26.752 220.548 26.4582 220.146 26.045C219.744 25.628 219.545 25.101 219.549 24.4641C219.545 23.9258 219.691 23.4594 219.986 23.0652C220.286 22.6671 220.701 22.36 221.232 22.1439C221.766 21.924 222.382 21.8141 223.08 21.8141C224.104 21.8141 224.909 22.0321 225.497 22.4681C226.088 22.904 226.454 23.4936 226.594 24.2366ZM232.841 21.9278V23.5201H227.82V21.9278H232.841ZM229.06 19.8351H231.118V28.0353C231.118 28.3121 231.16 28.5244 231.243 28.6722C231.33 28.8163 231.444 28.9149 231.584 28.9679C231.725 29.021 231.88 29.0476 232.051 29.0476C232.18 29.0476 232.297 29.0381 232.403 29.0191C232.513 29.0002 232.597 28.9831 232.654 28.9679L233 30.5773C232.891 30.6152 232.733 30.6569 232.528 30.7024C232.328 30.7479 232.081 30.7744 231.789 30.782C231.274 30.7972 230.809 30.7194 230.396 30.5488C229.983 30.3745 229.655 30.1053 229.412 29.7413C229.173 29.3774 229.056 28.9225 229.06 28.3765V19.8351ZM0.659677 49.6788V40.9441H2.71826V49.6788H0.659677ZM1.69465 39.7044C1.36862 39.7044 1.08807 39.5964 0.853025 39.3803C0.617975 39.1604 0.50045 38.8969 0.50045 38.5898C0.50045 38.2789 0.617975 38.0155 0.853025 37.7994C1.08807 37.5795 1.36862 37.4695 1.69465 37.4695C2.02448 37.4695 2.30502 37.5795 2.53628 37.7994C2.77133 38.0155 2.88886 38.2789 2.88886 38.5898C2.88886 38.8969 2.77133 39.1604 2.53628 39.3803C2.30502 39.5964 2.02448 39.7044 1.69465 39.7044ZM4.83512 49.6788V40.9441H6.80272V42.4283H6.90508C7.08705 41.9279 7.38844 41.5374 7.80926 41.2569C8.23007 40.9725 8.7324 40.8304 9.31623 40.8304C9.90764 40.8304 10.4062 40.9744 10.8118 41.2626C11.2213 41.5469 11.5094 41.9355 11.6762 42.4283H11.7672C11.9605 41.9431 12.2866 41.5564 12.7453 41.2682C13.2078 40.9763 13.7556 40.8304 14.3887 40.8304C15.1925 40.8304 15.8483 41.0844 16.3563 41.5924C16.8644 42.1004 17.1184 42.8416 17.1184 43.8159V49.6788H15.0541V44.1343C15.0541 43.5922 14.91 43.196 14.6219 42.9458C14.3338 42.6918 13.9812 42.5648 13.5642 42.5648C13.0675 42.5648 12.679 42.7202 12.3984 43.0311C12.1217 43.3382 11.9833 43.7382 11.9833 44.231V49.6788H9.96451V44.049C9.96451 43.5979 9.82803 43.2377 9.55507 42.9686C9.2859 42.6994 8.93333 42.5648 8.49735 42.5648C8.20164 42.5648 7.93247 42.6406 7.68984 42.7923C7.44721 42.9401 7.25386 43.1505 7.1098 43.4235C6.96573 43.6927 6.8937 44.0073 6.8937 44.3675V49.6788H4.83512ZM19.2068 52.9544V40.9441H21.2312V42.3885H21.3507C21.4568 42.1762 21.6066 41.9506 21.7999 41.7118C21.9933 41.4692 22.2549 41.2626 22.5847 41.092C22.9145 40.9176 23.3353 40.8304 23.8471 40.8304C24.5219 40.8304 25.1304 41.0029 25.6725 41.3479C26.2185 41.6891 26.6507 42.1952 26.9691 42.8662C27.2914 43.5334 27.4525 44.3523 27.4525 45.3228C27.4525 46.282 27.2951 47.0971 26.9805 47.7681C26.6658 48.4391 26.2374 48.9509 25.6953 49.3035C25.1532 49.6561 24.539 49.8324 23.8528 49.8324C23.3524 49.8324 22.9373 49.749 22.6074 49.5822C22.2776 49.4154 22.0122 49.2144 21.8113 48.9794C21.6142 48.7405 21.4606 48.515 21.3507 48.3027H21.2654V52.9544H19.2068ZM21.2256 45.3115C21.2256 45.8763 21.3052 46.3711 21.4644 46.7957C21.6274 47.2203 21.8606 47.552 22.1639 47.7909C22.4709 48.0259 22.8425 48.1434 23.2785 48.1434C23.7334 48.1434 24.1144 48.0221 24.4215 47.7795C24.7286 47.5331 24.9598 47.1976 25.1153 46.7729C25.2745 46.3446 25.3541 45.8574 25.3541 45.3115C25.3541 44.7693 25.2764 44.2879 25.1209 43.8671C24.9655 43.4462 24.7342 43.1164 24.4272 42.8776C24.1201 42.6387 23.7372 42.5193 23.2785 42.5193C22.8387 42.5193 22.4653 42.6349 22.1582 42.8662C21.8511 43.0975 21.6179 43.4216 21.4587 43.8386C21.3033 44.2556 21.2256 44.7466 21.2256 45.3115ZM31.7289 49.8551C31.1754 49.8551 30.6768 49.7566 30.2333 49.5594C29.7935 49.3585 29.4447 49.0628 29.1869 48.6723C28.9329 48.2818 28.8059 47.8003 28.8059 47.2279C28.8059 46.735 28.8969 46.3275 29.0789 46.0052C29.2608 45.683 29.5092 45.4252 29.8238 45.2319C30.1385 45.0385 30.493 44.8926 30.8872 44.794C31.2853 44.6916 31.6966 44.6177 32.1212 44.5722C32.633 44.5191 33.0482 44.4717 33.3666 44.43C33.6851 44.3845 33.9163 44.3163 34.0604 44.2253C34.2083 44.1305 34.2822 43.9846 34.2822 43.7874V43.7533C34.2822 43.3249 34.1552 42.9932 33.9012 42.7582C33.6472 42.5231 33.2813 42.4056 32.8036 42.4056C32.2994 42.4056 31.8995 42.5155 31.6038 42.7354C31.3118 42.9553 31.1147 43.215 31.0123 43.5145L29.0902 43.2415C29.2419 42.7108 29.4921 42.2672 29.8409 41.9108C30.1897 41.5507 30.6162 41.2815 31.1204 41.1033C31.6246 40.9214 32.1819 40.8304 32.7923 40.8304C33.2131 40.8304 33.632 40.8797 34.049 40.9782C34.4661 41.0768 34.8471 41.2398 35.1921 41.4673C35.537 41.691 35.8138 41.9961 36.0223 42.3828C36.2346 42.7695 36.3408 43.2529 36.3408 43.8329V49.6788H34.3618V48.479H34.2936C34.1685 48.7216 33.9922 48.9491 33.7647 49.1614C33.541 49.3699 33.2586 49.5386 32.9174 49.6675C32.58 49.7926 32.1838 49.8551 31.7289 49.8551ZM32.2634 48.3425C32.6766 48.3425 33.0349 48.261 33.3382 48.0979C33.6415 47.9311 33.8746 47.7113 34.0377 47.4383C34.2045 47.1653 34.2879 46.8677 34.2879 46.5455V45.5162C34.2234 45.5693 34.1135 45.6186 33.958 45.664C33.8064 45.7095 33.6358 45.7493 33.4462 45.7835C33.2567 45.8176 33.069 45.8479 32.8833 45.8745C32.6975 45.901 32.5364 45.9237 32.3999 45.9427C32.0928 45.9844 31.818 46.0526 31.5753 46.1474C31.3327 46.2422 31.1412 46.3749 31.001 46.5455C30.8607 46.7123 30.7906 46.9284 30.7906 47.1938C30.7906 47.5729 30.9289 47.8591 31.2057 48.0525C31.4824 48.2458 31.835 48.3425 32.2634 48.3425ZM42.2208 49.8494C41.3488 49.8494 40.6001 49.658 39.9746 49.2751C39.3528 48.8922 38.8732 48.3633 38.5358 47.6885C38.2022 47.0099 38.0354 46.2289 38.0354 45.3456C38.0354 44.4585 38.206 43.6756 38.5472 42.997C38.8884 42.3146 39.3699 41.7838 39.9916 41.4047C40.6171 41.0218 41.3564 40.8304 42.2094 40.8304C42.9184 40.8304 43.5458 40.9612 44.0917 41.2227C44.6414 41.4805 45.0793 41.8464 45.4053 42.3203C45.7314 42.7904 45.9171 43.3401 45.9626 43.9694H43.995C43.9154 43.5486 43.7259 43.1979 43.4264 42.9174C43.1307 42.633 42.7345 42.4909 42.2379 42.4909C41.817 42.4909 41.4474 42.6046 41.129 42.8321C40.8105 43.0558 40.5622 43.378 40.384 43.7988C40.2096 44.2196 40.1224 44.7238 40.1224 45.3115C40.1224 45.9067 40.2096 46.4185 40.384 46.8469C40.5584 47.2715 40.8029 47.5994 41.1176 47.8307C41.436 48.0581 41.8095 48.1719 42.2379 48.1719C42.5411 48.1719 42.8122 48.115 43.051 48.0013C43.2937 47.8837 43.4965 47.715 43.6595 47.4952C43.8225 47.2753 43.9344 47.008 43.995 46.6933H45.9626C45.9133 47.3113 45.7314 47.8591 45.4167 48.3368C45.102 48.8107 44.6736 49.1822 44.1315 49.4514C43.5894 49.7168 42.9525 49.8494 42.2208 49.8494ZM52.0147 40.9441V42.5364H46.9933V40.9441H52.0147ZM48.233 38.8514H50.2916V47.0516C50.2916 47.3283 50.3333 47.5407 50.4167 47.6885C50.5039 47.8326 50.6177 47.9311 50.7579 47.9842C50.8982 48.0373 51.0536 48.0638 51.2242 48.0638C51.3531 48.0638 51.4707 48.0543 51.5768 48.0354C51.6868 48.0164 51.7702 47.9994 51.827 47.9842L52.1739 49.5935C52.064 49.6315 51.9066 49.6732 51.7019 49.7187C51.501 49.7641 51.2546 49.7907 50.9626 49.7983C50.4471 49.8134 49.9826 49.7357 49.5694 49.5651C49.1562 49.3907 48.8282 49.1215 48.5856 48.7576C48.3468 48.3937 48.2292 47.9387 48.233 47.3928V38.8514ZM58.1606 40.9441V42.5364H52.9971V40.9441H58.1606ZM54.2879 49.6788V40.1195C54.2879 39.5319 54.4092 39.0429 54.6519 38.6524C54.8983 38.2619 55.2281 37.97 55.6414 37.7766C56.0546 37.5833 56.5133 37.4866 57.0175 37.4866C57.3739 37.4866 57.6905 37.515 57.9672 37.5719C58.244 37.6288 58.4487 37.6799 58.5814 37.7254L58.1719 39.3177C58.0847 39.2912 57.9748 39.2646 57.8421 39.2381C57.7094 39.2078 57.5616 39.1926 57.3985 39.1926C57.0156 39.1926 56.7446 39.2855 56.5854 39.4712C56.4299 39.6532 56.3522 39.9148 56.3522 40.256V49.6788H54.2879ZM65.34 46.0052V40.9441H67.3986V49.6788H65.4026V48.1264H65.3116C65.1144 48.6154 64.7903 49.0154 64.3391 49.3263C63.8918 49.6371 63.3402 49.7926 62.6843 49.7926C62.1119 49.7926 61.6057 49.6656 61.166 49.4116C60.73 49.1538 60.3888 48.7803 60.1424 48.2913C59.8959 47.7984 59.7727 47.2032 59.7727 46.5057V40.9441H61.8313V46.1872C61.8313 46.7407 61.983 47.1805 62.2863 47.5065C62.5895 47.8326 62.9876 47.9956 63.4805 47.9956C63.7837 47.9956 64.0776 47.9217 64.3619 47.7738C64.6462 47.626 64.8794 47.4061 65.0614 47.1142C65.2471 46.8184 65.34 46.4488 65.34 46.0052ZM71.574 38.0325V49.6788H69.5154V38.0325H71.574ZM77.663 49.6788V40.9441H79.6306V42.4283H79.733C79.915 41.9279 80.2164 41.5374 80.6372 41.2569C81.058 40.9725 81.5603 40.8304 82.1441 40.8304C82.7356 40.8304 83.2341 40.9744 83.6397 41.2626C84.0492 41.5469 84.3373 41.9355 84.5041 42.4283H84.5951C84.7885 41.9431 85.1145 41.5564 85.5732 41.2682C86.0357 40.9763 86.5835 40.8304 87.2167 40.8304C88.0204 40.8304 88.6762 41.0844 89.1843 41.5924C89.6923 42.1004 89.9463 42.8416 89.9463 43.8159V49.6788H87.882V44.1343C87.882 43.5922 87.7379 43.196 87.4498 42.9458C87.1617 42.6918 86.8091 42.5648 86.3921 42.5648C85.8955 42.5648 85.5069 42.7202 85.2263 43.0311C84.9496 43.3382 84.8112 43.7382 84.8112 44.231V49.6788H82.7924V44.049C82.7924 43.5979 82.6559 43.2377 82.383 42.9686C82.1138 42.6994 81.7612 42.5648 81.3253 42.5648C81.0296 42.5648 80.7604 42.6406 80.5178 42.7923C80.2751 42.9401 80.0818 43.1505 79.9377 43.4235C79.7937 43.6927 79.7216 44.0073 79.7216 44.3675V49.6788H77.663ZM94.5482 49.8551C93.9947 49.8551 93.4962 49.7566 93.0526 49.5594C92.6129 49.3585 92.2641 49.0628 92.0063 48.6723C91.7523 48.2818 91.6253 47.8003 91.6253 47.2279C91.6253 46.735 91.7163 46.3275 91.8982 46.0052C92.0802 45.683 92.3285 45.4252 92.6432 45.2319C92.9578 45.0385 93.3123 44.8926 93.7066 44.794C94.1047 44.6916 94.516 44.6177 94.9406 44.5722C95.4524 44.5191 95.8675 44.4717 96.186 44.43C96.5044 44.3845 96.7357 44.3163 96.8798 44.2253C97.0276 44.1305 97.1015 43.9846 97.1015 43.7874V43.7533C97.1015 43.3249 96.9745 42.9932 96.7205 42.7582C96.4665 42.5231 96.1007 42.4056 95.623 42.4056C95.1188 42.4056 94.7188 42.5155 94.4231 42.7354C94.1312 42.9553 93.9341 43.215 93.8317 43.5145L91.9096 43.2415C92.0612 42.7108 92.3115 42.2672 92.6602 41.9108C93.009 41.5507 93.4355 41.2815 93.9397 41.1033C94.444 40.9214 95.0013 40.8304 95.6116 40.8304C96.0324 40.8304 96.4514 40.8797 96.8684 40.9782C97.2854 41.0768 97.6664 41.2398 98.0114 41.4673C98.3564 41.691 98.6332 41.9961 98.8417 42.3828C99.054 42.7695 99.1601 43.2529 99.1601 43.8329V49.6788H97.1812V48.479H97.1129C96.9878 48.7216 96.8115 48.9491 96.5841 49.1614C96.3604 49.3699 96.0779 49.5386 95.7367 49.6675C95.3993 49.7926 95.0032 49.8551 94.5482 49.8551ZM95.0828 48.3425C95.496 48.3425 95.8543 48.261 96.1576 48.0979C96.4608 47.9311 96.694 47.7113 96.857 47.4383C97.0238 47.1653 97.1072 46.8677 97.1072 46.5455V45.5162C97.0428 45.5693 96.9328 45.6186 96.7774 45.664C96.6258 45.7095 96.4552 45.7493 96.2656 45.7835C96.076 45.8176 95.8884 45.8479 95.7026 45.8745C95.5169 45.901 95.3557 45.9237 95.2192 45.9427C94.9122 45.9844 94.6373 46.0526 94.3947 46.1474C94.152 46.2422 93.9606 46.3749 93.8203 46.5455C93.6801 46.7123 93.6099 46.9284 93.6099 47.1938C93.6099 47.5729 93.7483 47.8591 94.025 48.0525C94.3018 48.2458 94.6544 48.3425 95.0828 48.3425ZM108.134 43.2529L106.257 43.4576C106.204 43.2681 106.111 43.0899 105.978 42.9231C105.85 42.7563 105.675 42.6217 105.455 42.5193C105.235 42.417 104.966 42.3658 104.648 42.3658C104.219 42.3658 103.859 42.4587 103.567 42.6444C103.279 42.8302 103.137 43.0709 103.141 43.3666C103.137 43.6206 103.23 43.8272 103.419 43.9865C103.613 44.1457 103.931 44.2765 104.375 44.3789L105.865 44.6973C106.691 44.8755 107.305 45.1579 107.707 45.5446C108.113 45.9313 108.318 46.4374 108.321 47.063C108.318 47.6127 108.156 48.0979 107.838 48.5188C107.523 48.9358 107.085 49.2618 106.524 49.4969C105.963 49.7319 105.319 49.8494 104.591 49.8494C103.522 49.8494 102.661 49.6258 102.009 49.1784C101.357 48.7273 100.968 48.0998 100.843 47.2961L102.851 47.1028C102.942 47.4971 103.135 47.7947 103.431 47.9956C103.727 48.1965 104.111 48.297 104.585 48.297C105.074 48.297 105.467 48.1965 105.762 47.9956C106.062 47.7947 106.212 47.5463 106.212 47.2506C106.212 47.0004 106.115 46.7938 105.922 46.6308C105.732 46.4678 105.436 46.3427 105.034 46.2555L103.545 45.9427C102.707 45.7683 102.087 45.4745 101.685 45.0613C101.283 44.6442 101.084 44.1173 101.088 43.4804C101.084 42.942 101.23 42.4757 101.526 42.0814C101.825 41.6834 102.24 41.3763 102.771 41.1602C103.306 40.9403 103.922 40.8304 104.619 40.8304C105.643 40.8304 106.449 41.0484 107.036 41.4843C107.628 41.9203 107.993 42.5098 108.134 43.2529ZM116.922 43.2529L115.046 43.4576C114.993 43.2681 114.9 43.0899 114.767 42.9231C114.638 42.7563 114.464 42.6217 114.244 42.5193C114.024 42.417 113.755 42.3658 113.437 42.3658C113.008 42.3658 112.648 42.4587 112.356 42.6444C112.068 42.8302 111.926 43.0709 111.93 43.3666C111.926 43.6206 112.019 43.8272 112.208 43.9865C112.402 44.1457 112.72 44.2765 113.164 44.3789L114.653 44.6973C115.48 44.8755 116.094 45.1579 116.496 45.5446C116.902 45.9313 117.106 46.4374 117.11 47.063C117.106 47.6127 116.945 48.0979 116.627 48.5188C116.312 48.9358 115.874 49.2618 115.313 49.4969C114.752 49.7319 114.108 49.8494 113.38 49.8494C112.311 49.8494 111.45 49.6258 110.798 49.1784C110.146 48.7273 109.757 48.0998 109.632 47.2961L111.64 47.1028C111.731 47.4971 111.924 47.7947 112.22 47.9956C112.515 48.1965 112.9 48.297 113.374 48.297C113.863 48.297 114.255 48.1965 114.551 47.9956C114.851 47.7947 115 47.5463 115 47.2506C115 47.0004 114.904 46.7938 114.71 46.6308C114.521 46.4678 114.225 46.3427 113.823 46.2555L112.333 45.9427C111.495 45.7683 110.876 45.4745 110.474 45.0613C110.072 44.6442 109.873 44.1173 109.877 43.4804C109.873 42.942 110.019 42.4757 110.315 42.0814C110.614 41.6834 111.029 41.3763 111.56 41.1602C112.094 40.9403 112.711 40.8304 113.408 40.8304C114.432 40.8304 115.237 41.0484 115.825 41.4843C116.416 41.9203 116.782 42.5098 116.922 43.2529ZM122.78 52.9544V40.9441H124.804V42.3885H124.924C125.03 42.1762 125.18 41.9506 125.373 41.7118C125.566 41.4692 125.828 41.2626 126.158 41.092C126.487 40.9176 126.908 40.8304 127.42 40.8304C128.095 40.8304 128.703 41.0029 129.246 41.3479C129.791 41.6891 130.224 42.1952 130.542 42.8662C130.864 43.5334 131.025 44.3523 131.025 45.3228C131.025 46.282 130.868 47.0971 130.553 47.7681C130.239 48.4391 129.81 48.9509 129.268 49.3035C128.726 49.6561 128.112 49.8324 127.426 49.8324C126.925 49.8324 126.51 49.749 126.18 49.5822C125.851 49.4154 125.585 49.2144 125.384 48.9794C125.187 48.7405 125.034 48.515 124.924 48.3027H124.838V52.9544H122.78ZM124.799 45.3115C124.799 45.8763 124.878 46.3711 125.037 46.7957C125.2 47.2203 125.434 47.552 125.737 47.7909C126.044 48.0259 126.415 48.1434 126.851 48.1434C127.306 48.1434 127.687 48.0221 127.994 47.7795C128.302 47.5331 128.533 47.1976 128.688 46.7729C128.847 46.3446 128.927 45.8574 128.927 45.3115C128.927 44.7693 128.849 44.2879 128.694 43.8671C128.538 43.4462 128.307 43.1164 128 42.8776C127.693 42.6387 127.31 42.5193 126.851 42.5193C126.412 42.5193 126.038 42.6349 125.731 42.8662C125.424 43.0975 125.191 43.4216 125.032 43.8386C124.876 44.2556 124.799 44.7466 124.799 45.3115ZM135.302 49.8551C134.748 49.8551 134.25 49.7566 133.806 49.5594C133.366 49.3585 133.018 49.0628 132.76 48.6723C132.506 48.2818 132.379 47.8003 132.379 47.2279C132.379 46.735 132.47 46.3275 132.652 46.0052C132.834 45.683 133.082 45.4252 133.397 45.2319C133.711 45.0385 134.066 44.8926 134.46 44.794C134.858 44.6916 135.27 44.6177 135.694 44.5722C136.206 44.5191 136.621 44.4717 136.94 44.43C137.258 44.3845 137.489 44.3163 137.633 44.2253C137.781 44.1305 137.855 43.9846 137.855 43.7874V43.7533C137.855 43.3249 137.728 42.9932 137.474 42.7582C137.22 42.5231 136.854 42.4056 136.377 42.4056C135.872 42.4056 135.472 42.5155 135.177 42.7354C134.885 42.9553 134.688 43.215 134.585 43.5145L132.663 43.2415C132.815 42.7108 133.065 42.2672 133.414 41.9108C133.763 41.5507 134.189 41.2815 134.693 41.1033C135.198 40.9214 135.755 40.8304 136.365 40.8304C136.786 40.8304 137.205 40.8797 137.622 40.9782C138.039 41.0768 138.42 41.2398 138.765 41.4673C139.11 41.691 139.387 41.9961 139.595 42.3828C139.808 42.7695 139.914 43.2529 139.914 43.8329V49.6788H137.935V48.479H137.867C137.741 48.7216 137.565 48.9491 137.338 49.1614C137.114 49.3699 136.832 49.5386 136.49 49.6675C136.153 49.7926 135.757 49.8551 135.302 49.8551ZM135.836 48.3425C136.25 48.3425 136.608 48.261 136.911 48.0979C137.214 47.9311 137.448 47.7113 137.611 47.4383C137.777 47.1653 137.861 46.8677 137.861 46.5455V45.5162C137.796 45.5693 137.686 45.6186 137.531 45.664C137.379 45.7095 137.209 45.7493 137.019 45.7835C136.83 45.8176 136.642 45.8479 136.456 45.8745C136.27 45.901 136.109 45.9237 135.973 45.9427C135.666 45.9844 135.391 46.0526 135.148 46.1474C134.906 46.2422 134.714 46.3749 134.574 46.5455C134.434 46.7123 134.364 46.9284 134.364 47.1938C134.364 47.5729 134.502 47.8591 134.779 48.0525C135.055 48.2458 135.408 48.3425 135.836 48.3425ZM141.984 49.6788V40.9441H143.98V42.3999H144.071C144.23 41.8957 144.503 41.5071 144.89 41.2341C145.28 40.9574 145.726 40.819 146.226 40.819C146.34 40.819 146.467 40.8247 146.607 40.8361C146.751 40.8436 146.87 40.8569 146.965 40.8759V42.7695C146.878 42.7392 146.74 42.7127 146.55 42.6899C146.364 42.6634 146.184 42.6501 146.01 42.6501C145.635 42.6501 145.297 42.7316 144.998 42.8946C144.702 43.0539 144.469 43.2756 144.298 43.56C144.128 43.8443 144.042 44.1722 144.042 44.5438V49.6788H141.984ZM153.164 40.9441V42.5364H148.142V40.9441H153.164ZM149.382 38.8514H151.441V47.0516C151.441 47.3283 151.482 47.5407 151.566 47.6885C151.653 47.8326 151.767 47.9311 151.907 47.9842C152.047 48.0373 152.203 48.0638 152.373 48.0638C152.502 48.0638 152.62 48.0543 152.726 48.0354C152.836 48.0164 152.919 47.9994 152.976 47.9842L153.323 49.5935C153.213 49.6315 153.056 49.6732 152.851 49.7187C152.65 49.7641 152.404 49.7907 152.112 49.7983C151.596 49.8134 151.132 49.7357 150.718 49.5651C150.305 49.3907 149.977 49.1215 149.735 48.7576C149.496 48.3937 149.378 47.9387 149.382 47.3928V38.8514ZM154.885 49.6788V40.9441H156.944V49.6788H154.885ZM155.92 39.7044C155.594 39.7044 155.314 39.5964 155.079 39.3803C154.844 39.1604 154.726 38.8969 154.726 38.5898C154.726 38.2789 154.844 38.0155 155.079 37.7994C155.314 37.5795 155.594 37.4695 155.92 37.4695C156.25 37.4695 156.531 37.5795 156.762 37.7994C156.997 38.0155 157.115 38.2789 157.115 38.5898C157.115 38.8969 156.997 39.1604 156.762 39.3803C156.531 39.5964 156.25 39.7044 155.92 39.7044ZM162.871 49.8494C161.999 49.8494 161.25 49.658 160.625 49.2751C160.003 48.8922 159.523 48.3633 159.186 47.6885C158.852 47.0099 158.685 46.2289 158.685 45.3456C158.685 44.4585 158.856 43.6756 159.197 42.997C159.538 42.3146 160.02 41.7838 160.642 41.4047C161.267 41.0218 162.006 40.8304 162.859 40.8304C163.568 40.8304 164.196 40.9612 164.742 41.2227C165.291 41.4805 165.729 41.8464 166.055 42.3203C166.381 42.7904 166.567 43.3401 166.613 43.9694H164.645C164.565 43.5486 164.376 43.1979 164.076 42.9174C163.781 42.633 163.385 42.4909 162.888 42.4909C162.467 42.4909 162.097 42.6046 161.779 42.8321C161.461 43.0558 161.212 43.378 161.034 43.7988C160.86 44.2196 160.772 44.7238 160.772 45.3115C160.772 45.9067 160.86 46.4185 161.034 46.8469C161.208 47.2715 161.453 47.5994 161.768 47.8307C162.086 48.0581 162.46 48.1719 162.888 48.1719C163.191 48.1719 163.462 48.115 163.701 48.0013C163.944 47.8837 164.147 47.715 164.31 47.4952C164.473 47.2753 164.584 47.008 164.645 46.6933H166.613C166.563 47.3113 166.381 47.8591 166.067 48.3368C165.752 48.8107 165.324 49.1822 164.782 49.4514C164.239 49.7168 163.603 49.8494 162.871 49.8494ZM168.303 49.6788V40.9441H170.362V49.6788H168.303ZM169.338 39.7044C169.012 39.7044 168.731 39.5964 168.496 39.3803C168.261 39.1604 168.144 38.8969 168.144 38.5898C168.144 38.2789 168.261 38.0155 168.496 37.7994C168.731 37.5795 169.012 37.4695 169.338 37.4695C169.668 37.4695 169.948 37.5795 170.18 37.7994C170.415 38.0155 170.532 38.2789 170.532 38.5898C170.532 38.8969 170.415 39.1604 170.18 39.3803C169.948 39.5964 169.668 39.7044 169.338 39.7044ZM172.479 52.9544V40.9441H174.503V42.3885H174.622C174.729 42.1762 174.878 41.9506 175.072 41.7118C175.265 41.4692 175.527 41.2626 175.856 41.092C176.186 40.9176 176.607 40.8304 177.119 40.8304C177.794 40.8304 178.402 41.0029 178.944 41.3479C179.49 41.6891 179.922 42.1952 180.241 42.8662C180.563 43.5334 180.724 44.3523 180.724 45.3228C180.724 46.282 180.567 47.0971 180.252 47.7681C179.938 48.4391 179.509 48.9509 178.967 49.3035C178.425 49.6561 177.811 49.8324 177.125 49.8324C176.624 49.8324 176.209 49.749 175.879 49.5822C175.549 49.4154 175.284 49.2144 175.083 48.9794C174.886 48.7405 174.732 48.515 174.622 48.3027H174.537V52.9544H172.479ZM174.497 45.3115C174.497 45.8763 174.577 46.3711 174.736 46.7957C174.899 47.2203 175.132 47.552 175.436 47.7909C175.743 48.0259 176.114 48.1434 176.55 48.1434C177.005 48.1434 177.386 48.0221 177.693 47.7795C178 47.5331 178.232 47.1976 178.387 46.7729C178.546 46.3446 178.626 45.8574 178.626 45.3115C178.626 44.7693 178.548 44.2879 178.393 43.8671C178.237 43.4462 178.006 43.1164 177.699 42.8776C177.392 42.6387 177.009 42.5193 176.55 42.5193C176.11 42.5193 175.737 42.6349 175.43 42.8662C175.123 43.0975 174.89 43.4216 174.73 43.8386C174.575 44.2556 174.497 44.7466 174.497 45.3115ZM185.001 49.8551C184.447 49.8551 183.949 49.7566 183.505 49.5594C183.065 49.3585 182.716 49.0628 182.459 48.6723C182.205 48.2818 182.078 47.8003 182.078 47.2279C182.078 46.735 182.169 46.3275 182.351 46.0052C182.533 45.683 182.781 45.4252 183.096 45.2319C183.41 45.0385 183.765 44.8926 184.159 44.794C184.557 44.6916 184.968 44.6177 185.393 44.5722C185.905 44.5191 186.32 44.4717 186.638 44.43C186.957 44.3845 187.188 44.3163 187.332 44.2253C187.48 44.1305 187.554 43.9846 187.554 43.7874V43.7533C187.554 43.3249 187.427 42.9932 187.173 42.7582C186.919 42.5231 186.553 42.4056 186.075 42.4056C185.571 42.4056 185.171 42.5155 184.875 42.7354C184.584 42.9553 184.386 43.215 184.284 43.5145L182.362 43.2415C182.514 42.7108 182.764 42.2672 183.113 41.9108C183.461 41.5507 183.888 41.2815 184.392 41.1033C184.896 40.9214 185.454 40.8304 186.064 40.8304C186.485 40.8304 186.904 40.8797 187.321 40.9782C187.738 41.0768 188.119 41.2398 188.464 41.4673C188.809 41.691 189.086 41.9961 189.294 42.3828C189.506 42.7695 189.612 43.2529 189.612 43.8329V49.6788H187.634V48.479H187.565C187.44 48.7216 187.264 48.9491 187.036 49.1614C186.813 49.3699 186.53 49.5386 186.189 49.6675C185.852 49.7926 185.456 49.8551 185.001 49.8551ZM185.535 48.3425C185.948 48.3425 186.307 48.261 186.61 48.0979C186.913 47.9311 187.146 47.7113 187.309 47.4383C187.476 47.1653 187.56 46.8677 187.56 46.5455V45.5162C187.495 45.5693 187.385 45.6186 187.23 45.664C187.078 45.7095 186.908 45.7493 186.718 45.7835C186.528 45.8176 186.341 45.8479 186.155 45.8745C185.969 45.901 185.808 45.9237 185.672 45.9427C185.365 45.9844 185.09 46.0526 184.847 46.1474C184.604 46.2422 184.413 46.3749 184.273 46.5455C184.132 46.7123 184.062 46.9284 184.062 47.1938C184.062 47.5729 184.201 47.8591 184.477 48.0525C184.754 48.2458 185.107 48.3425 185.535 48.3425ZM196.044 40.9441V42.5364H191.023V40.9441H196.044ZM192.262 38.8514H194.321V47.0516C194.321 47.3283 194.363 47.5407 194.446 47.6885C194.533 47.8326 194.647 47.9311 194.787 47.9842C194.928 48.0373 195.083 48.0638 195.254 48.0638C195.383 48.0638 195.5 48.0543 195.606 48.0354C195.716 48.0164 195.8 47.9994 195.856 47.9842L196.203 49.5935C196.093 49.6315 195.936 49.6732 195.731 49.7187C195.53 49.7641 195.284 49.7907 194.992 49.7983C194.476 49.8134 194.012 49.7357 193.599 49.5651C193.186 49.3907 192.858 49.1215 192.615 48.7576C192.376 48.3937 192.259 47.9387 192.262 47.3928V38.8514ZM197.766 49.6788V40.9441H199.824V49.6788H197.766ZM198.801 39.7044C198.475 39.7044 198.194 39.5964 197.959 39.3803C197.724 39.1604 197.607 38.8969 197.607 38.5898C197.607 38.2789 197.724 38.0155 197.959 37.7994C198.194 37.5795 198.475 37.4695 198.801 37.4695C199.131 37.4695 199.411 37.5795 199.642 37.7994C199.877 38.0155 199.995 38.2789 199.995 38.5898C199.995 38.8969 199.877 39.1604 199.642 39.3803C199.411 39.5964 199.131 39.7044 198.801 39.7044ZM205.751 49.8494C204.898 49.8494 204.159 49.6618 203.533 49.2865C202.908 48.9111 202.423 48.3861 202.078 47.7113C201.736 47.0364 201.566 46.2479 201.566 45.3456C201.566 44.4433 201.736 43.6529 202.078 42.9742C202.423 42.2956 202.908 41.7687 203.533 41.3933C204.159 41.018 204.898 40.8304 205.751 40.8304C206.604 40.8304 207.344 41.018 207.969 41.3933C208.595 41.7687 209.078 42.2956 209.419 42.9742C209.764 43.6529 209.937 44.4433 209.937 45.3456C209.937 46.2479 209.764 47.0364 209.419 47.7113C209.078 48.3861 208.595 48.9111 207.969 49.2865C207.344 49.6618 206.604 49.8494 205.751 49.8494ZM205.763 48.2003C206.225 48.2003 206.612 48.0733 206.923 47.8193C207.234 47.5615 207.465 47.2165 207.617 46.7843C207.772 46.3521 207.85 45.8707 207.85 45.3399C207.85 44.8054 207.772 44.322 207.617 43.8898C207.465 43.4538 207.234 43.1069 206.923 42.8491C206.612 42.5913 206.225 42.4624 205.763 42.4624C205.289 42.4624 204.894 42.5913 204.58 42.8491C204.269 43.1069 204.036 43.4538 203.88 43.8898C203.729 44.322 203.653 44.8054 203.653 45.3399C203.653 45.8707 203.729 46.3521 203.88 46.7843C204.036 47.2165 204.269 47.5615 204.58 47.8193C204.894 48.0733 205.289 48.2003 205.763 48.2003ZM213.743 44.5608V49.6788H211.684V40.9441H213.652V42.4283H213.754C213.955 41.9393 214.275 41.5507 214.715 41.2626C215.158 40.9744 215.706 40.8304 216.358 40.8304C216.961 40.8304 217.486 40.9593 217.934 41.2171C218.385 41.4749 218.734 41.8483 218.98 42.3373C219.23 42.8264 219.353 43.4197 219.35 44.1173V49.6788H217.291V44.4357C217.291 43.8519 217.139 43.3951 216.836 43.0652C216.537 42.7354 216.121 42.5705 215.591 42.5705C215.231 42.5705 214.91 42.6501 214.63 42.8093C214.353 42.9648 214.135 43.1903 213.976 43.486C213.82 43.7818 213.743 44.14 213.743 44.5608ZM229.281 49.8494C228.406 49.8494 227.649 49.6675 227.012 49.3035C226.379 48.9358 225.892 48.4164 225.551 47.7454C225.21 47.0706 225.039 46.2763 225.039 45.3627C225.039 44.4642 225.21 43.6756 225.551 42.997C225.896 42.3146 226.377 41.7838 226.995 41.4047C227.613 41.0218 228.339 40.8304 229.173 40.8304C229.712 40.8304 230.22 40.9176 230.697 41.092C231.179 41.2626 231.603 41.5279 231.971 41.8881C232.343 42.2482 232.635 42.707 232.847 43.2643C233.059 43.8178 233.165 44.4774 233.165 45.2432V45.8745H226.006V44.4869H231.192C231.188 44.0926 231.103 43.7419 230.936 43.4349C230.769 43.124 230.536 42.8795 230.237 42.7013C229.941 42.5231 229.596 42.434 229.202 42.434C228.781 42.434 228.411 42.5364 228.093 42.7411C227.774 42.942 227.526 43.2074 227.348 43.5372C227.173 43.8633 227.084 44.2215 227.081 44.612V45.8233C227.081 46.3313 227.173 46.7673 227.359 47.1312C227.545 47.4914 227.805 47.7681 228.138 47.9615C228.472 48.151 228.862 48.2458 229.31 48.2458C229.609 48.2458 229.88 48.2041 230.123 48.1207C230.366 48.0335 230.576 47.9065 230.754 47.7397C230.932 47.5729 231.067 47.3663 231.158 47.1198L233.08 47.3359C232.959 47.8439 232.727 48.2875 232.386 48.6666C232.049 49.0419 231.617 49.3339 231.09 49.5424C230.563 49.7471 229.96 49.8494 229.281 49.8494ZM242.459 40.9441L239.348 49.6788H237.074L233.963 40.9441H236.158L238.165 47.4326H238.256L240.269 40.9441H242.459ZM247.453 49.8494C246.577 49.8494 245.821 49.6675 245.184 49.3035C244.551 48.9358 244.064 48.4164 243.723 47.7454C243.381 47.0706 243.211 46.2763 243.211 45.3627C243.211 44.4642 243.381 43.6756 243.723 42.997C244.068 42.3146 244.549 41.7838 245.167 41.4047C245.785 41.0218 246.511 40.8304 247.345 40.8304C247.883 40.8304 248.391 40.9176 248.869 41.092C249.351 41.2626 249.775 41.5279 250.143 41.8881C250.514 42.2482 250.806 42.707 251.019 43.2643C251.231 43.8178 251.337 44.4774 251.337 45.2432V45.8745H244.178V44.4869H249.364C249.36 44.0926 249.275 43.7419 249.108 43.4349C248.941 43.124 248.708 42.8795 248.409 42.7013C248.113 42.5231 247.768 42.434 247.374 42.434C246.953 42.434 246.583 42.5364 246.265 42.7411C245.946 42.942 245.698 43.2074 245.52 43.5372C245.345 43.8633 245.256 44.2215 245.252 44.612V45.8233C245.252 46.3313 245.345 46.7673 245.531 47.1312C245.717 47.4914 245.977 47.7681 246.31 47.9615C246.644 48.151 247.034 48.2458 247.482 48.2458C247.781 48.2458 248.052 48.2041 248.295 48.1207C248.537 48.0335 248.748 47.9065 248.926 47.7397C249.104 47.5729 249.239 47.3663 249.33 47.1198L251.252 47.3359C251.131 47.8439 250.899 48.2875 250.558 48.6666C250.221 49.0419 249.788 49.3339 249.262 49.5424C248.735 49.7471 248.132 49.8494 247.453 49.8494ZM255.137 44.5608V49.6788H253.079V40.9441H255.046V42.4283H255.149C255.35 41.9393 255.67 41.5507 256.11 41.2626C256.553 40.9744 257.101 40.8304 257.753 40.8304C258.356 40.8304 258.881 40.9593 259.328 41.2171C259.78 41.4749 260.128 41.8483 260.375 42.3373C260.625 42.8264 260.748 43.4197 260.744 44.1173V49.6788H258.686V44.4357C258.686 43.8519 258.534 43.3951 258.231 43.0652C257.931 42.7354 257.516 42.5705 256.985 42.5705C256.625 42.5705 256.305 42.6501 256.024 42.8093C255.748 42.9648 255.53 43.1903 255.37 43.486C255.215 43.7818 255.137 44.14 255.137 44.5608ZM267.199 40.9441V42.5364H262.177V40.9441H267.199ZM263.417 38.8514H265.476V47.0516C265.476 47.3283 265.517 47.5407 265.601 47.6885C265.688 47.8326 265.802 47.9311 265.942 47.9842C266.082 48.0373 266.238 48.0638 266.408 48.0638C266.537 48.0638 266.655 48.0543 266.761 48.0354C266.871 48.0164 266.954 47.9994 267.011 47.9842L267.358 49.5935C267.248 49.6315 267.091 49.6732 266.886 49.7187C266.685 49.7641 266.439 49.7907 266.147 49.7983C265.631 49.8134 265.167 49.7357 264.753 49.5651C264.34 49.3907 264.012 49.1215 263.77 48.7576C263.531 48.3937 263.413 47.9387 263.417 47.3928V38.8514ZM275.699 43.2529L273.822 43.4576C273.769 43.2681 273.676 43.0899 273.544 42.9231C273.415 42.7563 273.24 42.6217 273.02 42.5193C272.801 42.417 272.531 42.3658 272.213 42.3658C271.785 42.3658 271.424 42.4587 271.132 42.6444C270.844 42.8302 270.702 43.0709 270.706 43.3666C270.702 43.6206 270.795 43.8272 270.985 43.9865C271.178 44.1457 271.496 44.2765 271.94 44.3789L273.43 44.6973C274.256 44.8755 274.871 45.1579 275.272 45.5446C275.678 45.9313 275.883 46.4374 275.887 47.063C275.883 47.6127 275.722 48.0979 275.403 48.5188C275.089 48.9358 274.651 49.2618 274.09 49.4969C273.528 49.7319 272.884 49.8494 272.156 49.8494C271.087 49.8494 270.226 49.6258 269.574 49.1784C268.922 48.7273 268.534 48.0998 268.409 47.2961L270.416 47.1028C270.507 47.4971 270.7 47.7947 270.996 47.9956C271.292 48.1965 271.677 48.297 272.15 48.297C272.639 48.297 273.032 48.1965 273.328 47.9956C273.627 47.7947 273.777 47.5463 273.777 47.2506C273.777 47.0004 273.68 46.7938 273.487 46.6308C273.297 46.4678 273.002 46.3427 272.6 46.2555L271.11 45.9427C270.272 45.7683 269.652 45.4745 269.25 45.0613C268.848 44.6442 268.649 44.1173 268.653 43.4804C268.649 42.942 268.795 42.4757 269.091 42.0814C269.39 41.6834 269.806 41.3763 270.336 41.1602C270.871 40.9403 271.487 40.8304 272.185 40.8304C273.208 40.8304 274.014 41.0484 274.601 41.4843C275.193 41.9203 275.559 42.5098 275.699 43.2529ZM281.556 49.6788V40.9441H283.615V49.6788H281.556ZM282.591 39.7044C282.265 39.7044 281.985 39.5964 281.75 39.3803C281.514 39.1604 281.397 38.8969 281.397 38.5898C281.397 38.2789 281.514 38.0155 281.75 37.7994C281.985 37.5795 282.265 37.4695 282.591 37.4695C282.921 37.4695 283.202 37.5795 283.433 37.7994C283.668 38.0155 283.785 38.2789 283.785 38.5898C283.785 38.8969 283.668 39.1604 283.433 39.3803C283.202 39.5964 282.921 39.7044 282.591 39.7044ZM287.79 44.5608V49.6788H285.732V40.9441H287.699V42.4283H287.802C288.003 41.9393 288.323 41.5507 288.763 41.2626C289.206 40.9744 289.754 40.8304 290.406 40.8304C291.009 40.8304 291.534 40.9593 291.981 41.2171C292.432 41.4749 292.781 41.8483 293.028 42.3373C293.278 42.8264 293.401 43.4197 293.397 44.1173V49.6788H291.339V44.4357C291.339 43.8519 291.187 43.3951 290.884 43.0652C290.584 42.7354 290.169 42.5705 289.638 42.5705C289.278 42.5705 288.958 42.6501 288.677 42.8093C288.401 42.9648 288.183 43.1903 288.023 43.486C287.868 43.7818 287.79 44.14 287.79 44.5608ZM5.02136 59.9604V61.5526H2.22217e-05V59.9604H5.02136ZM1.23972 57.8677H3.2983V66.0679C3.2983 66.3446 3.34 66.5569 3.42341 66.7048C3.5106 66.8488 3.62433 66.9474 3.76461 67.0005C3.90488 67.0536 4.06031 67.0801 4.23091 67.0801C4.35981 67.0801 4.47734 67.0706 4.58349 67.0517C4.69343 67.0327 4.77684 67.0156 4.8337 67.0005L5.18059 68.6098C5.07065 68.6477 4.91332 68.6894 4.7086 68.7349C4.50767 68.7804 4.26124 68.8069 3.96933 68.8145C3.45373 68.8297 2.98932 68.752 2.57609 68.5814C2.16286 68.407 1.83492 68.1378 1.59229 67.7739C1.35345 67.4099 1.23593 66.955 1.23972 66.4091V57.8677ZM8.98925 63.5771V68.6951H6.93067V57.0488H8.94375V61.4446H9.04611C9.25083 60.9517 9.56739 60.5632 9.99579 60.2788C10.428 59.9907 10.9777 59.8466 11.6449 59.8466C12.2515 59.8466 12.7804 59.9736 13.2315 60.2276C13.6827 60.4816 14.0314 60.8532 14.2779 61.3422C14.5281 61.8313 14.6532 62.4284 14.6532 63.1335V68.6951H12.5946V63.452C12.5946 62.8644 12.443 62.4075 12.1397 62.0815C11.8402 61.7517 11.4194 61.5868 10.8772 61.5868C10.5133 61.5868 10.1872 61.6664 9.89911 61.8256C9.61478 61.981 9.3911 62.2066 9.22809 62.5023C9.06886 62.798 8.98925 63.1563 8.98925 63.5771ZM20.6185 68.8657C19.7428 68.8657 18.9864 68.6837 18.3495 68.3198C17.7164 67.952 17.2292 67.4327 16.888 66.7616C16.5468 66.0868 16.3762 65.2926 16.3762 64.3789C16.3762 63.4804 16.5468 62.6919 16.888 62.0133C17.233 61.3309 17.7145 60.8001 18.3325 60.421C18.9504 60.0381 19.6764 59.8466 20.5105 59.8466C21.0488 59.8466 21.5568 59.9338 22.0345 60.1082C22.516 60.2788 22.9406 60.5442 23.3083 60.9044C23.6798 61.2645 23.9718 61.7232 24.1841 62.2805C24.3964 62.834 24.5025 63.4937 24.5025 64.2595V64.8907H17.343V63.5032H22.5292C22.5254 63.1089 22.4401 62.7582 22.2733 62.4511C22.1065 62.1403 21.8734 61.8957 21.5739 61.7175C21.2782 61.5394 20.9332 61.4503 20.5389 61.4503C20.1181 61.4503 19.7484 61.5526 19.43 61.7574C19.1115 61.9583 18.8632 62.2237 18.685 62.5535C18.5106 62.8795 18.4216 63.2378 18.4178 63.6283V64.8395C18.4178 65.3475 18.5106 65.7835 18.6964 66.1475C18.8822 66.5076 19.1419 66.7844 19.4755 66.9777C19.8091 67.1673 20.1996 67.2621 20.6469 67.2621C20.9464 67.2621 21.2175 67.2204 21.4601 67.137C21.7028 67.0498 21.9132 66.9228 22.0914 66.756C22.2695 66.5891 22.4041 66.3825 22.4951 66.1361L24.4172 66.3522C24.2959 66.8602 24.0646 67.3038 23.7234 67.6829C23.386 68.0582 22.9538 68.3501 22.4269 68.5586C21.8999 68.7633 21.2971 68.8657 20.6185 68.8657ZM32.0189 68.6951L29.5509 59.9604H31.6493L33.1847 66.102H33.2643L34.8338 59.9604H36.9094L38.479 66.0679H38.5643L40.0769 59.9604H42.181L39.7073 68.6951H37.5634L35.9256 62.7923H35.8062L34.1685 68.6951H32.0189ZM47.1782 68.8657C46.3252 68.8657 45.5859 68.678 44.9604 68.3027C44.3348 67.9274 43.8496 67.4023 43.5046 66.7275C43.1634 66.0527 42.9928 65.2641 42.9928 64.3619C42.9928 63.4596 43.1634 62.6691 43.5046 61.9905C43.8496 61.3119 44.3348 60.7849 44.9604 60.4096C45.5859 60.0343 46.3252 59.8466 47.1782 59.8466C48.0312 59.8466 48.7704 60.0343 49.396 60.4096C50.0215 60.7849 50.5049 61.3119 50.8461 61.9905C51.1911 62.6691 51.3636 63.4596 51.3636 64.3619C51.3636 65.2641 51.1911 66.0527 50.8461 66.7275C50.5049 67.4023 50.0215 67.9274 49.396 68.3027C48.7704 68.678 48.0312 68.8657 47.1782 68.8657ZM47.1895 67.2166C47.652 67.2166 48.0387 67.0896 48.3496 66.8356C48.6605 66.5778 48.8917 66.2328 49.0434 65.8006C49.1988 65.3684 49.2765 64.8869 49.2765 64.3562C49.2765 63.8216 49.1988 63.3383 49.0434 62.9061C48.8917 62.4701 48.6605 62.1232 48.3496 61.8654C48.0387 61.6076 47.652 61.4787 47.1895 61.4787C46.7156 61.4787 46.3214 61.6076 46.0067 61.8654C45.6958 62.1232 45.4627 62.4701 45.3072 62.9061C45.1556 63.3383 45.0798 63.8216 45.0798 64.3562C45.0798 64.8869 45.1556 65.3684 45.3072 65.8006C45.4627 66.2328 45.6958 66.5778 46.0067 66.8356C46.3214 67.0896 46.7156 67.2166 47.1895 67.2166ZM53.1108 68.6951V59.9604H55.1068V61.4162H55.1978C55.357 60.9119 55.63 60.5233 56.0167 60.2504C56.4072 59.9736 56.8526 59.8353 57.3531 59.8353C57.4668 59.8353 57.5938 59.8409 57.7341 59.8523C57.8781 59.8599 57.9975 59.8732 58.0923 59.8921V61.7858C58.0051 61.7555 57.8668 61.7289 57.6772 61.7062C57.4914 61.6796 57.3114 61.6664 57.137 61.6664C56.7616 61.6664 56.4242 61.7479 56.1247 61.9109C55.829 62.0701 55.5959 62.2919 55.4253 62.5762C55.2547 62.8606 55.1694 63.1885 55.1694 63.56V68.6951H53.1108ZM61.5185 57.0488V68.6951H59.46V57.0488H61.5185ZM66.8768 68.8486C66.1906 68.8486 65.5765 68.6724 65.0343 68.3198C64.4922 67.9672 64.0638 67.4554 63.7492 66.7844C63.4345 66.1134 63.2772 65.2983 63.2772 64.3391C63.2772 63.3686 63.4364 62.5497 63.7548 61.8825C64.0771 61.2114 64.5112 60.7053 65.0571 60.3641C65.603 60.0191 66.2115 59.8466 66.8825 59.8466C67.3943 59.8466 67.8151 59.9338 68.145 60.1082C68.4748 60.2788 68.7364 60.4854 68.9297 60.7281C69.1231 60.9669 69.2728 61.1925 69.379 61.4048H69.4643V57.0488H71.5285V68.6951H69.5041V67.3189H69.379C69.2728 67.5312 69.1193 67.7568 68.9183 67.9956C68.7174 68.2307 68.452 68.4316 68.1222 68.5984C67.7924 68.7652 67.3773 68.8486 66.8768 68.8486ZM67.4512 67.1597C67.8872 67.1597 68.2587 67.0422 68.5658 66.8071C68.8729 66.5683 69.106 66.2366 69.2652 65.812C69.4245 65.3874 69.5041 64.8926 69.5041 64.3277C69.5041 63.7629 69.4245 63.2719 69.2652 62.8549C69.1098 62.4379 68.8785 62.1137 68.5715 61.8825C68.2682 61.6512 67.8947 61.5356 67.4512 61.5356C66.9925 61.5356 66.6096 61.655 66.3025 61.8938C65.9954 62.1327 65.7641 62.4625 65.6087 62.8833C65.4533 63.3041 65.3755 63.7856 65.3755 64.3277C65.3755 64.8737 65.4533 65.3608 65.6087 65.7892C65.7679 66.2138 66.0011 66.5493 66.3082 66.7958C66.619 67.0384 67 67.1597 67.4512 67.1597ZM74.9903 68.8202C74.6453 68.8202 74.3496 68.6989 74.1032 68.4563C73.8568 68.2136 73.7354 67.9179 73.7392 67.5691C73.7354 67.2279 73.8568 66.936 74.1032 66.6934C74.3496 66.4508 74.6453 66.3294 74.9903 66.3294C75.3239 66.3294 75.6139 66.4508 75.8604 66.6934C76.1106 66.936 76.2376 67.2279 76.2414 67.5691C76.2376 67.8004 76.1769 68.0108 76.0594 68.2004C75.9457 68.3899 75.794 68.5416 75.6045 68.6553C75.4187 68.7652 75.214 68.8202 74.9903 68.8202Z" fill="white"/>
<path d="M78.381 2.91157V4.50384H73.3596V2.91157H78.381ZM74.5993 0.818871H76.6579V9.01907C76.6579 9.29582 76.6996 9.50812 76.783 9.65598C76.8702 9.80004 76.984 9.89861 77.1242 9.95168C77.2645 10.0048 77.4199 10.0313 77.5905 10.0313C77.7194 10.0313 77.837 10.0218 77.9431 10.0029C78.0531 9.98391 78.1365 9.96685 78.1933 9.95168L78.5402 11.561C78.4303 11.5989 78.2729 11.6406 78.0682 11.6861C77.8673 11.7316 77.6209 11.7582 77.3289 11.7657C76.8134 11.7809 76.3489 11.7032 75.9357 11.5326C75.5225 11.3582 75.1945 11.089 74.9519 10.7251C74.7131 10.3611 74.5955 9.90619 74.5993 9.36027V0.818871ZM83.8757 11.8169C83 11.8169 82.2437 11.6349 81.6068 11.271C80.9736 10.9033 80.4865 10.3839 80.1453 9.71284C79.8041 9.03802 79.6335 8.24378 79.6335 7.33012C79.6335 6.43163 79.8041 5.64307 80.1453 4.96446C80.4903 4.28206 80.9717 3.7513 81.5897 3.37219C82.2076 2.98929 82.9336 2.79784 83.7677 2.79784C84.306 2.79784 84.814 2.88503 85.2917 3.05942C85.7732 3.23002 86.1978 3.4954 86.5655 3.85556C86.9371 4.21572 87.229 4.67444 87.4413 5.23174C87.6536 5.78524 87.7597 6.4449 87.7597 7.2107V7.84192H80.6002V6.45437H85.7865C85.7827 6.0601 85.6974 5.70942 85.5306 5.40234C85.3638 5.09146 85.1306 4.84694 84.8311 4.66875C84.5354 4.49057 84.1904 4.40148 83.7961 4.40148C83.3753 4.40148 83.0057 4.50384 82.6872 4.70856C82.3688 4.90949 82.1205 5.17487 81.9423 5.5047C81.7679 5.83073 81.6788 6.18899 81.675 6.57948V7.79074C81.675 8.29875 81.7679 8.73473 81.9536 9.09868C82.1394 9.45884 82.3991 9.73559 82.7327 9.92894C83.0663 10.1185 83.4568 10.2133 83.9042 10.2133C84.2037 10.2133 84.4747 10.1716 84.7174 10.0882C84.96 10.001 85.1704 9.87396 85.3486 9.70716C85.5268 9.54035 85.6614 9.33373 85.7523 9.08731L87.6744 9.3034C87.5531 9.81141 87.3219 10.255 86.9807 10.6341C86.6433 11.0094 86.2111 11.3013 85.6841 11.5098C85.1571 11.7146 84.5544 11.8169 83.8757 11.8169ZM92.0148 11.8226C91.4613 11.8226 90.9628 11.724 90.5192 11.5269C90.0794 11.326 89.7307 11.0303 89.4729 10.6398C89.2189 10.2493 89.0918 9.76781 89.0918 9.19535C89.0918 8.70251 89.1828 8.29496 89.3648 7.97272C89.5468 7.65047 89.7951 7.39268 90.1098 7.19933C90.4244 7.00598 90.7789 6.86002 91.1732 6.76145C91.5712 6.65909 91.9826 6.58517 92.4072 6.53967C92.919 6.4866 93.3341 6.43921 93.6526 6.39751C93.971 6.35201 94.2023 6.28377 94.3463 6.19279C94.4942 6.09801 94.5681 5.95205 94.5681 5.75491V5.72079C94.5681 5.29239 94.4411 4.96067 94.1871 4.72562C93.9331 4.49057 93.5673 4.37305 93.0896 4.37305C92.5854 4.37305 92.1854 4.48299 91.8897 4.70288C91.5978 4.92276 91.4006 5.18245 91.2983 5.48195L89.3762 5.20899C89.5278 4.67823 89.778 4.23467 90.1268 3.87831C90.4756 3.51815 90.9021 3.24898 91.4063 3.0708C91.9105 2.88882 92.4678 2.79784 93.0782 2.79784C93.499 2.79784 93.9179 2.84712 94.335 2.94569C94.752 3.04426 95.133 3.20728 95.478 3.43474C95.823 3.65842 96.0997 3.96361 96.3082 4.3503C96.5206 4.73699 96.6267 5.22036 96.6267 5.8004V11.6463H94.6477V10.4464H94.5795C94.4544 10.6891 94.2781 10.9165 94.0506 11.1288C93.827 11.3373 93.5445 11.506 93.2033 11.6349C92.8659 11.76 92.4697 11.8226 92.0148 11.8226ZM92.5494 10.3099C92.9626 10.3099 93.3208 10.2284 93.6241 10.0654C93.9274 9.89861 94.1606 9.67872 94.3236 9.40576C94.4904 9.1328 94.5738 8.8352 94.5738 8.51295V7.48366C94.5094 7.53674 94.3994 7.58602 94.244 7.63152C94.0923 7.67701 93.9217 7.71682 93.7322 7.75094C93.5426 7.78506 93.355 7.81539 93.1692 7.84192C92.9834 7.86846 92.8223 7.89121 92.6858 7.91016C92.3788 7.95187 92.1039 8.02011 91.8613 8.11488C91.6186 8.20966 91.4272 8.34235 91.2869 8.51295C91.1466 8.67976 91.0765 8.89586 91.0765 9.16123C91.0765 9.54035 91.2149 9.82658 91.4916 10.0199C91.7684 10.2133 92.121 10.3099 92.5494 10.3099ZM98.6967 11.6463V2.91157H100.664V4.39579H100.767C100.949 3.89537 101.25 3.50488 101.671 3.22434C102.092 2.94 102.594 2.79784 103.178 2.79784C103.769 2.79784 104.268 2.9419 104.673 3.23002C105.083 3.51436 105.371 3.90295 105.538 4.39579H105.629C105.822 3.91053 106.148 3.52384 106.607 3.23571C107.069 2.94379 107.617 2.79784 108.25 2.79784C109.054 2.79784 109.71 3.05184 110.218 3.55985C110.726 4.06786 110.98 4.80903 110.98 5.78334V11.6463H108.916V6.1018C108.916 5.55967 108.772 5.1635 108.483 4.91328C108.195 4.65928 107.843 4.53227 107.426 4.53227C106.929 4.53227 106.54 4.68771 106.26 4.99858C105.983 5.30566 105.845 5.70563 105.845 6.19847V11.6463H103.826V6.0165C103.826 5.56536 103.69 5.2052 103.417 4.93603C103.147 4.66686 102.795 4.53227 102.359 4.53227C102.063 4.53227 101.794 4.6081 101.551 4.75974C101.309 4.9076 101.115 5.118 100.971 5.39096C100.827 5.66013 100.755 5.9748 100.755 6.33495V11.6463H98.6967Z" fill="url(#paint0_linear_98_64)"/>
<defs>
<linearGradient id="paint0_linear_98_64" x1="-0.398046" y1="48.678" x2="296.856" y2="48.678" gradientUnits="userSpaceOnUse">
<stop stop-color="#09D8FD"/>
<stop offset="0.5" stop-color="#75CE8E"/>
<stop offset="0.75" stop-color="#AAC857"/>
<stop offset="1" stop-color="#E0C320"/>
</linearGradient>
</defs>
</svg>
