<svg width="48" height="48" viewBox="0 0 48 48" fill="none" xmlns="http://www.w3.org/2000/svg">
<g clip-path="url(#clip0_110_198)">
<path d="M45.08 12.84C44.8425 11.8908 44.3586 11.0211 43.6774 10.3188C42.9961 9.61648 42.1416 9.10637 41.2 8.84C37.76 8 24 8 24 8C24 8 10.24 8 6.80005 8.92C5.85854 9.18637 5.004 9.69648 4.32274 10.3988C3.64148 11.1011 3.15762 11.9708 2.92004 12.92C2.29047 16.4111 1.98252 19.9526 2.00004 23.5C1.9776 27.0741 2.28558 30.6426 2.92004 34.16C3.18196 35.0797 3.67666 35.9163 4.35633 36.589C5.03601 37.2616 5.87769 37.7476 6.80005 38C10.24 38.92 24 38.92 24 38.92C24 38.92 37.76 38.92 41.2 38C42.1416 37.7336 42.9961 37.2235 43.6774 36.5212C44.3586 35.8189 44.8425 34.9492 45.08 34C45.7048 30.5352 46.0127 27.0207 46 23.5C46.0225 19.9259 45.7145 16.3574 45.08 12.84Z" stroke="white" stroke-width="4" stroke-linecap="round" stroke-linejoin="round"/>
<path d="M19.5 30.04L31 23.5L19.5 16.96V30.04Z" stroke="white" stroke-width="4" stroke-linecap="round" stroke-linejoin="round"/>
</g>
<defs>
<clipPath id="clip0_110_198">
<rect width="48" height="48" fill="white"/>
</clipPath>
</defs>
</svg>
